<svg width="1369" height="734" viewBox="0 0 1369 734" fill="none" xmlns="http://www.w3.org/2000/svg">
<g clip-path="url(#clip0_418_95)">
<mask id="mask0_418_95" style="mask-type:luminance" maskUnits="userSpaceOnUse" x="512" y="-2" width="355" height="393">
<path d="M512.145 -1.93457H866.569V390.815H512.145V-1.93457Z" fill="white"/>
</mask>
<g mask="url(#mask0_418_95)">
<path d="M688.475 174.421V214.46" stroke="#1D1D1D" stroke-width="2" stroke-linecap="round" stroke-linejoin="round"/>
</g>
<path d="M684.473 181.356L688.476 174.421L692.479 181.356" stroke="#1D1D1D" stroke-width="2" stroke-linecap="round" stroke-linejoin="round"/>
<path d="M692.479 207.524L688.476 214.459L684.473 207.524" stroke="#1D1D1D" stroke-width="2" stroke-linecap="round" stroke-linejoin="round"/>
<mask id="mask1_418_95" style="mask-type:luminance" maskUnits="userSpaceOnUse" x="511" y="189" width="355" height="398">
<path d="M511.254 189.414H865.679V586.137H511.254V189.414Z" fill="white"/>
</mask>
<g mask="url(#mask1_418_95)">
<path d="M687.584 365.77V409.782" stroke="#9FA8B2" stroke-width="2" stroke-linecap="round" stroke-linejoin="round" stroke-dasharray="0.02 4.97"/>
</g>
<mask id="mask2_418_95" style="mask-type:luminance" maskUnits="userSpaceOnUse" x="34" y="236" width="1297" height="355">
<path d="M34.3848 236.078H1330.6V590.553H34.3848V236.078Z" fill="white"/>
</mask>
<g mask="url(#mask2_418_95)">
<path d="M210.715 412.434H1154.27" stroke="#9FA8B2" stroke-width="2" stroke-linecap="round" stroke-linejoin="round" stroke-dasharray="0.02 4.03"/>
</g>
<mask id="mask3_418_95" style="mask-type:luminance" maskUnits="userSpaceOnUse" x="31" y="237" width="356" height="393">
<path d="M31.7637 237.352H386.188V629.189H31.7637V237.352Z" fill="white"/>
</mask>
<g mask="url(#mask3_418_95)">
<path d="M208.094 413.707V452.833" stroke="#9FA8B2" stroke-width="2" stroke-linecap="round" stroke-linejoin="round" stroke-dasharray="0.02 5.52"/>
</g>
<mask id="mask4_418_95" style="mask-type:luminance" maskUnits="userSpaceOnUse" x="340" y="237" width="355" height="393">
<path d="M340.213 237.352H694.638V629.189H340.213V237.352Z" fill="white"/>
</mask>
<g mask="url(#mask4_418_95)">
<path d="M516.543 413.707V452.833" stroke="#9FA8B2" stroke-width="2" stroke-linecap="round" stroke-linejoin="round" stroke-dasharray="0.02 5.52"/>
</g>
<mask id="mask5_418_95" style="mask-type:luminance" maskUnits="userSpaceOnUse" x="703" y="236" width="355" height="394">
<path d="M703.412 236.454H1057.84V629.189H703.412V236.454Z" fill="white"/>
</mask>
<g mask="url(#mask5_418_95)">
<path d="M879.742 412.81V452.833" stroke="#9FA8B2" stroke-width="2" stroke-linecap="round" stroke-linejoin="round" stroke-dasharray="0.02 5.65"/>
</g>
<mask id="mask6_418_95" style="mask-type:luminance" maskUnits="userSpaceOnUse" x="981" y="236" width="356" height="394">
<path d="M981.99 236.454H1336.41V629.189H981.99V236.454Z" fill="white"/>
</mask>
<g mask="url(#mask6_418_95)">
<path d="M1158.32 412.81V452.833" stroke="#9FA8B2" stroke-width="2" stroke-linecap="round" stroke-linejoin="round" stroke-dasharray="0.02 5.65"/>
</g>
<path d="M156.865 475.144C167.68 464.37 182.442 458.507 197.701 458.924C212.961 459.342 227.38 466.003 237.59 477.352C247.975 468.012 262.294 464.39 275.869 467.67C289.444 470.949 300.531 480.709 305.507 493.76C320.533 493.845 334.591 501.193 343.24 513.483C351.889 525.774 354.061 541.489 349.07 555.665C358.906 569.141 361.181 586.707 355.103 602.245C349.024 617.783 335.434 629.141 319.065 632.363C316.29 646.976 306.367 659.222 292.648 664.964C278.928 670.707 263.243 669.181 250.887 660.901C231.597 680.57 200.276 681.656 179.67 663.371C167.777 672.123 152.382 674.572 138.362 669.941C124.341 665.311 113.431 654.175 109.088 640.061C94.3821 640.407 80.4053 633.666 71.518 621.943C62.6308 610.22 59.9149 594.94 64.2178 580.872C55.2519 567.942 53.736 551.252 60.2255 536.918C66.715 522.584 80.2559 512.713 95.8866 510.921C95.8889 496.38 103.593 482.929 116.134 475.571C128.674 468.214 144.173 468.051 156.865 475.144Z" stroke="#1D1D1D" stroke-width="2" stroke-linecap="round" stroke-linejoin="round"/>
<path d="M472.141 474.246C481.828 464.52 495.194 459.375 508.901 460.097C522.608 460.819 535.36 467.34 543.971 478.03C554.273 468.437 568.542 464.351 582.36 467.038C596.178 469.725 607.876 478.861 613.834 491.616C629.606 492.53 644.056 500.727 652.935 513.797C661.813 526.867 664.109 543.323 659.148 558.324C665.464 570.706 666.523 585.112 662.086 598.285C657.649 611.458 648.091 622.286 635.571 628.322C632.776 643.684 622.413 656.596 608.021 662.648C593.629 668.7 577.155 667.074 564.223 658.325C554.843 670.831 539.976 678.006 524.351 677.566C508.725 677.127 494.284 669.129 485.621 656.115C475.565 666.998 460.673 672.032 446.077 669.481C431.481 666.931 419.178 657.144 413.408 643.494C398.099 642.332 384.499 633.281 377.516 619.605C370.533 605.93 371.174 589.604 379.208 576.518C368.751 565.211 365.101 549.192 369.629 534.47C374.157 519.749 386.177 508.55 401.18 505.075C404.298 490.002 414.55 477.387 428.666 471.254C442.782 465.122 458.998 466.237 472.141 474.246Z" stroke="#1D1D1D" stroke-width="2" stroke-linecap="round" stroke-linejoin="round"/>
<path d="M788.512 480.735C797.204 467.965 811.319 459.939 826.737 459.001C842.155 458.063 857.138 464.319 867.314 475.942C879.914 464.615 897.466 460.595 913.739 465.308C930.012 470.022 942.7 482.801 947.298 499.109C961.012 500.959 973.062 509.144 979.835 521.213C986.61 533.282 987.322 547.833 981.759 560.506C990.37 573.146 992.024 589.278 986.157 603.404C980.29 617.529 967.694 627.74 952.662 630.558C950.365 645.074 941.182 657.579 928.02 664.113C914.857 670.648 899.346 670.402 886.397 663.455C875.333 673.881 860.255 678.93 845.145 677.269C830.035 675.608 816.413 667.404 807.877 654.823C798.186 666.284 783.041 671.583 768.32 668.663C753.599 665.743 741.622 655.065 737.037 640.774C722.985 639.453 710.548 631.129 703.969 618.641C697.389 606.153 697.555 591.187 704.411 578.849C694.821 567.856 691.002 552.972 694.114 538.72C697.227 524.468 706.902 512.531 720.201 506.538C723.384 492.16 733.604 480.359 747.378 475.156C761.152 469.954 776.621 472.052 788.512 480.735Z" stroke="#1D1D1D" stroke-width="2" stroke-linecap="round" stroke-linejoin="round"/>
<g opacity="0.5">
<path d="M1115.68 484.921C1125.55 469.263 1142.56 459.545 1161.06 459C1179.56 458.454 1197.12 467.152 1207.9 482.2" stroke="#1D1D1D" stroke-width="3.5" stroke-linecap="round" stroke-linejoin="round" stroke-dasharray="8.59 11.45"/>
<path d="M1207.89 482.2C1221.91 472.837 1239.8 471.479 1255.06 478.62C1270.33 485.761 1280.76 500.362 1282.55 517.122" stroke="#1D1D1D" stroke-width="3.5" stroke-linecap="round" stroke-linejoin="round" stroke-dasharray="7.89 10.51"/>
<path d="M1282.55 517.122C1299.56 524.474 1311.11 540.618 1312.57 559.085C1314.04 577.552 1305.19 595.319 1289.56 605.265" stroke="#1D1D1D" stroke-width="3.5" stroke-linecap="round" stroke-linejoin="round" stroke-dasharray="8.56 11.41"/>
<path d="M1289.56 605.265C1292.67 625.136 1283.25 644.877 1265.85 654.962C1248.45 665.048 1226.64 663.405 1210.95 650.828" stroke="#1D1D1D" stroke-width="3.5" stroke-linecap="round" stroke-linejoin="round" stroke-dasharray="7.34 9.17"/>
<path d="M1210.95 650.828C1201.97 666.353 1185.55 676.079 1167.62 676.497C1149.69 676.916 1132.83 667.967 1123.13 652.878" stroke="#1D1D1D" stroke-width="3.5" stroke-linecap="round" stroke-linejoin="round" stroke-dasharray="8.34 11.12"/>
<path d="M1123.14 652.878C1109.43 664.361 1090.4 667.076 1074.04 659.883C1057.67 652.691 1046.8 636.835 1045.99 618.975" stroke="#1D1D1D" stroke-width="3.5" stroke-linecap="round" stroke-linejoin="round" stroke-dasharray="8.28 11.04"/>
<path d="M1045.99 618.974C1027.25 612.866 1014.42 595.566 1014.01 575.851C1013.6 556.137 1025.71 538.323 1044.19 531.447" stroke="#1D1D1D" stroke-width="3.5" stroke-linecap="round" stroke-linejoin="round" stroke-dasharray="7.19 8.99"/>
<path d="M1044.19 531.447C1039.24 512.706 1046.87 492.9 1063.11 482.327C1079.36 471.754 1100.55 472.799 1115.68 484.92" stroke="#1D1D1D" stroke-width="3.5" stroke-linecap="round" stroke-linejoin="round" stroke-dasharray="7.08 8.85"/>
</g>
<path d="M115.39 163.403C86.549 163.403 62.5952 139.445 62.5952 109.893C60.8927 81.4791 84.8466 57.5221 114.395 57.5221L1256.23 55.6772C1286.01 56.5698 1309.97 80.5268 1309.97 110.079C1308.41 140.18 1284.46 164.137 1254.91 164.137L115.39 163.403ZM116.091 162.886C86.3755 163.158 62.4219 139.201 62.4219 109.649C62.6144 79.4552 86.5682 55.498 116.117 55.498L1254.46 56.9703C1286.09 55.7587 1310.04 79.7159 1310.04 109.268C1308.93 140.254 1284.98 164.211 1255.43 164.211L116.091 162.886Z" stroke="#1D1D1D" stroke-width="2" stroke-linecap="round" stroke-linejoin="round"/>
<path d="M69.2876 219.075L1301.35 219.329C1306.05 219.329 1308.41 221.68 1308.41 226.383L1308.26 352.071C1308.26 356.773 1305.91 359.125 1301.2 359.125L68.0376 359.887C63.3355 359.887 60.9844 357.536 60.9844 352.833L62.2344 226.13C62.2344 221.427 64.5855 219.075 69.2876 219.075ZM69.8826 219.151L1301.2 219.011C1305.9 219.011 1308.25 221.362 1308.25 226.065L1309.98 352.322C1309.98 357.025 1307.63 359.377 1302.93 359.377L69.769 358.828C65.0668 358.828 62.7158 356.477 62.7158 351.774L62.8293 226.205C62.8293 221.503 65.1804 219.151 69.8826 219.151Z" stroke="#1D1D1D" stroke-width="2" stroke-linecap="round" stroke-linejoin="round"/>
</g>
<path d="M559.039 122L568.953 94.0166H572.191L582.105 122H578.547L576.149 115.164H565.035L562.677 122H559.039ZM566.075 112.086H575.069L571.471 101.732C571.378 101.466 571.272 101.159 571.152 100.813C571.045 100.453 570.938 100.106 570.832 99.7732C570.725 99.4267 570.645 99.1336 570.592 98.8937C570.525 99.1336 570.439 99.4267 570.332 99.7732C570.239 100.106 570.132 100.453 570.012 100.813C569.906 101.159 569.806 101.466 569.712 101.732L566.075 112.086ZM587.269 122V94.0166H590.747V122H587.269ZM613.316 122.48C611.104 122.48 609.365 121.867 608.099 120.641C606.833 119.415 606.2 117.736 606.2 115.604C606.2 114.231 606.513 113.039 607.14 112.026C607.766 111.013 608.652 110.234 609.798 109.687C610.944 109.128 612.29 108.848 613.836 108.848C614.835 108.848 615.768 108.961 616.634 109.188C617.513 109.401 618.34 109.727 619.112 110.167V108.728C619.112 107.142 618.753 105.983 618.033 105.25C617.314 104.504 616.194 104.131 614.675 104.131C613.702 104.131 612.69 104.311 611.637 104.67C610.598 105.03 609.625 105.53 608.719 106.169L607.719 103.251C608.745 102.572 609.911 102.045 611.217 101.672C612.536 101.286 613.836 101.092 615.115 101.092C617.54 101.092 619.359 101.712 620.572 102.951C621.784 104.177 622.391 106.009 622.391 108.448V122H619.112V120.121C618.313 120.881 617.413 121.467 616.414 121.88C615.415 122.28 614.382 122.48 613.316 122.48ZM613.836 119.442C614.782 119.442 615.714 119.208 616.634 118.742C617.567 118.276 618.393 117.616 619.112 116.763V113.245C618.433 112.819 617.66 112.486 616.794 112.246C615.928 112.006 615.102 111.886 614.315 111.886C612.823 111.886 611.644 112.226 610.777 112.905C609.911 113.572 609.478 114.484 609.478 115.644C609.478 116.816 609.865 117.743 610.638 118.422C611.41 119.102 612.476 119.442 613.836 119.442ZM628.949 130.115V101.572H632.427V103.291C633.893 101.825 635.638 101.092 637.664 101.092C639.396 101.092 640.889 101.525 642.141 102.392C643.407 103.258 644.38 104.49 645.06 106.089C645.752 107.689 646.099 109.581 646.099 111.766C646.099 113.951 645.752 115.85 645.06 117.463C644.367 119.062 643.387 120.301 642.121 121.18C640.869 122.047 639.383 122.48 637.664 122.48C636.585 122.48 635.612 122.286 634.746 121.9C633.88 121.5 633.107 120.894 632.427 120.081V128.476L628.949 130.115ZM637.224 119.242C638.943 119.242 640.256 118.595 641.162 117.303C642.081 116.01 642.541 114.165 642.541 111.766C642.541 109.461 642.061 107.642 641.102 106.309C640.142 104.963 638.85 104.291 637.224 104.291C636.185 104.291 635.252 104.53 634.426 105.01C633.6 105.49 632.933 106.169 632.427 107.049V116.483C633.133 117.403 633.886 118.096 634.686 118.562C635.485 119.015 636.331 119.242 637.224 119.242ZM651.358 130.115V101.572H654.836V103.291C656.301 101.825 658.047 101.092 660.073 101.092C661.805 101.092 663.297 101.525 664.55 102.392C665.816 103.258 666.789 104.49 667.468 106.089C668.161 107.689 668.508 109.581 668.508 111.766C668.508 113.951 668.161 115.85 667.468 117.463C666.775 119.062 665.796 120.301 664.53 121.18C663.277 122.047 661.792 122.48 660.073 122.48C658.993 122.48 658.02 122.286 657.154 121.9C656.288 121.5 655.515 120.894 654.836 120.081V128.476L651.358 130.115ZM659.633 119.242C661.352 119.242 662.664 118.595 663.57 117.303C664.49 116.01 664.95 114.165 664.95 111.766C664.95 109.461 664.47 107.642 663.51 106.309C662.551 104.963 661.258 104.291 659.633 104.291C658.593 104.291 657.661 104.53 656.834 105.01C656.008 105.49 655.342 106.169 654.836 107.049V116.483C655.542 117.403 656.295 118.096 657.094 118.562C657.894 119.015 658.74 119.242 659.633 119.242ZM679.732 127.197L695.483 93.5369H698.921L683.21 127.197H679.732ZM718.293 122.48C716.081 122.48 714.342 121.867 713.076 120.641C711.81 119.415 711.177 117.736 711.177 115.604C711.177 114.231 711.49 113.039 712.116 112.026C712.743 111.013 713.629 110.234 714.775 109.687C715.921 109.128 717.267 108.848 718.812 108.848C719.812 108.848 720.744 108.961 721.611 109.188C722.49 109.401 723.316 109.727 724.089 110.167V108.728C724.089 107.142 723.729 105.983 723.01 105.25C722.29 104.504 721.171 104.131 719.652 104.131C718.679 104.131 717.666 104.311 716.614 104.67C715.574 105.03 714.601 105.53 713.695 106.169L712.696 103.251C713.722 102.572 714.888 102.045 716.194 101.672C717.513 101.286 718.812 101.092 720.092 101.092C722.517 101.092 724.336 101.712 725.548 102.951C726.761 104.177 727.367 106.009 727.367 108.448V122H724.089V120.121C723.29 120.881 722.39 121.467 721.391 121.88C720.391 122.28 719.359 122.48 718.293 122.48ZM718.812 119.442C719.758 119.442 720.691 119.208 721.611 118.742C722.543 118.276 723.37 117.616 724.089 116.763V113.245C723.41 112.819 722.637 112.486 721.771 112.246C720.904 112.006 720.078 111.886 719.292 111.886C717.8 111.886 716.62 112.226 715.754 112.905C714.888 113.572 714.455 114.484 714.455 115.644C714.455 116.816 714.841 117.743 715.614 118.422C716.387 119.102 717.453 119.442 718.812 119.442ZM740.28 130.515L738.601 127.797C740.413 127.69 741.893 127.443 743.039 127.057C744.198 126.671 745.051 126.124 745.597 125.418C746.157 124.712 746.437 123.826 746.437 122.76V120.001C745.211 121.654 743.452 122.48 741.16 122.48C739.481 122.48 738.015 122.033 736.762 121.141C735.51 120.248 734.537 119.002 733.844 117.403C733.151 115.79 732.805 113.911 732.805 111.766C732.805 109.594 733.151 107.708 733.844 106.109C734.55 104.51 735.536 103.278 736.802 102.412C738.068 101.532 739.561 101.092 741.28 101.092C742.306 101.092 743.265 101.286 744.158 101.672C745.064 102.045 745.824 102.572 746.437 103.251V101.572H749.914V121.44C749.914 122.893 749.721 124.165 749.335 125.258C748.948 126.364 748.355 127.29 747.556 128.036C746.756 128.783 745.75 129.356 744.538 129.755C743.338 130.168 741.919 130.422 740.28 130.515ZM741.879 119.242C742.759 119.242 743.612 118.975 744.438 118.442C745.277 117.909 745.943 117.216 746.437 116.363V107.009C745.983 106.223 745.317 105.576 744.438 105.07C743.572 104.55 742.719 104.291 741.879 104.291C740.08 104.291 738.701 104.93 737.742 106.209C736.796 107.489 736.323 109.341 736.323 111.766C736.323 113.285 736.549 114.604 737.002 115.724C737.469 116.843 738.115 117.709 738.941 118.322C739.78 118.935 740.76 119.242 741.879 119.242ZM764.21 122.48C762.344 122.48 760.732 122.02 759.373 121.101C758.013 120.181 756.967 118.915 756.234 117.303C755.502 115.69 755.135 113.845 755.135 111.766C755.135 109.514 755.515 107.595 756.274 106.009C757.034 104.41 758.093 103.191 759.453 102.352C760.812 101.512 762.397 101.092 764.21 101.092C765.742 101.092 767.148 101.439 768.427 102.132C769.706 102.811 770.726 103.871 771.485 105.31C772.258 106.736 772.645 108.568 772.645 110.807C772.645 111.126 772.631 111.5 772.605 111.926C772.591 112.339 772.565 112.765 772.525 113.205H758.693C758.826 114.444 759.133 115.531 759.612 116.463C760.092 117.396 760.725 118.129 761.511 118.662C762.298 119.182 763.224 119.442 764.29 119.442C765.156 119.442 765.955 119.288 766.688 118.982C767.434 118.675 768.127 118.202 768.767 117.563L770.806 119.841C770.046 120.601 769.1 121.234 767.967 121.74C766.848 122.233 765.596 122.48 764.21 122.48ZM758.653 110.167H769.127C769.127 109.008 768.934 107.975 768.547 107.069C768.174 106.149 767.621 105.43 766.888 104.91C766.155 104.39 765.262 104.131 764.21 104.131C762.731 104.131 761.458 104.61 760.392 105.57C759.339 106.529 758.76 108.062 758.653 110.167ZM778.235 122V101.572H781.713V103.651C782.34 102.785 783.093 102.145 783.972 101.732C784.852 101.306 785.858 101.092 786.99 101.092C789.469 101.092 791.308 101.845 792.507 103.351C793.706 104.844 794.306 107.142 794.306 110.247V122H790.828V109.647C790.828 107.928 790.442 106.609 789.669 105.69C788.909 104.757 787.83 104.291 786.431 104.291C784.872 104.291 783.692 104.737 782.893 105.63C782.106 106.509 781.713 107.822 781.713 109.567V122H778.235ZM805.852 122.48C804.453 122.48 803.38 122.06 802.634 121.22C801.901 120.381 801.535 119.175 801.535 117.603V104.61H798.217V101.572H801.535V94.8161L805.013 93.1371V101.572H810.05V104.61H805.013V116.443C805.013 117.416 805.179 118.129 805.512 118.582C805.859 119.022 806.399 119.242 807.131 119.242C808.064 119.242 809.077 118.882 810.17 118.162L809.77 121.56C809.17 121.88 808.544 122.113 807.891 122.26C807.251 122.406 806.572 122.48 805.852 122.48Z" fill="black"/>
<path d="M382.918 302V274.017H392.832C395.044 274.017 396.783 274.376 398.049 275.096C399.315 275.802 400.214 276.722 400.747 277.854C401.28 278.987 401.547 280.173 401.547 281.412C401.547 282.691 401.187 283.844 400.467 284.87C399.748 285.896 398.735 286.689 397.429 287.249C398.508 287.582 399.428 288.075 400.187 288.728C400.96 289.368 401.547 290.134 401.946 291.027C402.346 291.919 402.546 292.899 402.546 293.965C402.546 294.911 402.393 295.857 402.086 296.803C401.78 297.749 401.273 298.615 400.567 299.402C399.874 300.188 398.941 300.821 397.769 301.3C396.61 301.767 395.177 302 393.471 302H382.918ZM386.396 298.802H393.871C395.244 298.802 396.31 298.575 397.069 298.122C397.829 297.669 398.355 297.09 398.648 296.383C398.955 295.677 399.108 294.951 399.108 294.205C399.108 293.312 398.928 292.472 398.568 291.686C398.209 290.9 397.556 290.267 396.61 289.787C395.677 289.294 394.338 289.048 392.592 289.048H386.396V298.802ZM386.396 285.89H392.152C394.138 285.89 395.623 285.483 396.61 284.67C397.609 283.857 398.109 282.785 398.109 281.452C398.109 280.773 397.975 280.106 397.709 279.453C397.456 278.787 396.963 278.241 396.23 277.814C395.497 277.388 394.431 277.175 393.032 277.175H386.396V285.89ZM414.82 302.48C412.608 302.48 410.869 301.867 409.603 300.641C408.337 299.415 407.705 297.736 407.705 295.604C407.705 294.231 408.018 293.039 408.644 292.026C409.27 291.013 410.156 290.234 411.302 289.687C412.448 289.128 413.794 288.848 415.34 288.848C416.339 288.848 417.272 288.961 418.138 289.188C419.018 289.401 419.844 289.727 420.617 290.167V288.728C420.617 287.142 420.257 285.983 419.537 285.25C418.818 284.504 417.699 284.131 416.179 284.131C415.207 284.131 414.194 284.311 413.141 284.67C412.102 285.03 411.129 285.53 410.223 286.169L409.224 283.251C410.25 282.572 411.416 282.045 412.722 281.672C414.041 281.286 415.34 281.092 416.619 281.092C419.044 281.092 420.863 281.712 422.076 282.951C423.289 284.177 423.895 286.009 423.895 288.448V302H420.617V300.121C419.817 300.881 418.918 301.467 417.918 301.88C416.919 302.28 415.886 302.48 414.82 302.48ZM415.34 299.442C416.286 299.442 417.219 299.208 418.138 298.742C419.071 298.276 419.897 297.616 420.617 296.763V293.245C419.937 292.819 419.164 292.486 418.298 292.246C417.432 292.006 416.606 291.886 415.82 291.886C414.327 291.886 413.148 292.226 412.282 292.905C411.416 293.572 410.983 294.484 410.983 295.644C410.983 296.816 411.369 297.743 412.142 298.422C412.915 299.102 413.981 299.442 415.34 299.442ZM435.982 302.48C434.543 302.48 433.157 302.173 431.825 301.56C430.506 300.934 429.426 300.094 428.587 299.042L431.065 296.923C431.785 297.696 432.584 298.296 433.464 298.722C434.343 299.148 435.21 299.362 436.062 299.362C437.262 299.362 438.194 299.135 438.861 298.682C439.527 298.216 439.86 297.576 439.86 296.763C439.86 296.23 439.707 295.75 439.4 295.324C439.107 294.898 438.614 294.491 437.921 294.105C437.242 293.718 436.329 293.312 435.183 292.885C432.931 292.046 431.312 291.133 430.326 290.147C429.353 289.161 428.867 287.942 428.867 286.489C428.867 284.89 429.5 283.591 430.766 282.592C432.045 281.592 433.704 281.092 435.743 281.092C437.142 281.092 438.428 281.359 439.6 281.892C440.773 282.412 441.779 283.171 442.618 284.171L440.22 286.169C438.994 284.864 437.488 284.211 435.703 284.211C434.65 284.211 433.817 284.417 433.204 284.83C432.604 285.23 432.305 285.783 432.305 286.489C432.305 287.169 432.644 287.768 433.324 288.288C434.017 288.795 435.263 289.381 437.062 290.047C438.528 290.58 439.714 291.16 440.62 291.786C441.539 292.412 442.205 293.125 442.618 293.925C443.045 294.724 443.258 295.644 443.258 296.683C443.258 298.482 442.612 299.901 441.319 300.941C440.027 301.967 438.248 302.48 435.982 302.48ZM448.725 302V281.572H452.203V302H448.725ZM450.444 277.854C449.844 277.854 449.331 277.648 448.905 277.235C448.492 276.808 448.285 276.295 448.285 275.696C448.285 275.069 448.492 274.543 448.905 274.117C449.331 273.677 449.844 273.457 450.444 273.457C451.07 273.457 451.59 273.677 452.003 274.117C452.429 274.543 452.643 275.069 452.643 275.696C452.643 276.295 452.429 276.808 452.003 277.235C451.59 277.648 451.07 277.854 450.444 277.854ZM466.111 302.48C464.352 302.48 462.839 302.053 461.573 301.2C460.308 300.334 459.335 299.108 458.655 297.523C457.976 295.924 457.636 294.018 457.636 291.806C457.636 289.581 457.982 287.669 458.675 286.069C459.368 284.47 460.354 283.244 461.633 282.392C462.926 281.525 464.472 281.092 466.271 281.092C468.03 281.092 469.522 281.499 470.748 282.312C471.974 283.125 472.867 284.304 473.426 285.85L470.148 287.049C469.815 286.169 469.316 285.496 468.649 285.03C467.996 284.564 467.217 284.33 466.311 284.33C464.658 284.33 463.392 284.97 462.513 286.249C461.633 287.529 461.194 289.381 461.194 291.806C461.194 294.178 461.627 296.004 462.493 297.283C463.359 298.562 464.592 299.202 466.191 299.202C467.217 299.202 468.09 298.935 468.809 298.402C469.542 297.869 470.055 297.123 470.348 296.163L473.586 297.243C473.093 298.922 472.194 300.214 470.888 301.121C469.582 302.027 467.99 302.48 466.111 302.48ZM478.943 284.011L477.784 283.411C478.024 283.198 478.31 282.878 478.643 282.452C478.99 282.012 479.296 281.499 479.563 280.913C479.829 280.326 479.983 279.693 480.022 279.014C479.25 278.974 478.59 278.714 478.044 278.234C477.497 277.754 477.224 277.135 477.224 276.375C477.224 275.496 477.491 274.803 478.024 274.296C478.557 273.79 479.183 273.537 479.903 273.537C480.689 273.537 481.388 273.817 482.001 274.376C482.628 274.936 482.941 275.816 482.941 277.015C482.941 278.041 482.761 279 482.401 279.893C482.055 280.786 481.575 281.585 480.962 282.292C480.362 282.985 479.689 283.558 478.943 284.011ZM492.043 302.48C490.604 302.48 489.218 302.173 487.885 301.56C486.566 300.934 485.487 300.094 484.647 299.042L487.126 296.923C487.845 297.696 488.645 298.296 489.524 298.722C490.404 299.148 491.27 299.362 492.123 299.362C493.322 299.362 494.255 299.135 494.921 298.682C495.587 298.216 495.921 297.576 495.921 296.763C495.921 296.23 495.767 295.75 495.461 295.324C495.168 294.898 494.675 294.491 493.982 294.105C493.302 293.718 492.389 293.312 491.243 292.885C488.991 292.046 487.372 291.133 486.386 290.147C485.413 289.161 484.927 287.942 484.927 286.489C484.927 284.89 485.56 283.591 486.826 282.592C488.105 281.592 489.764 281.092 491.803 281.092C493.202 281.092 494.488 281.359 495.661 281.892C496.833 282.412 497.839 283.171 498.679 284.171L496.28 286.169C495.054 284.864 493.549 284.211 491.763 284.211C490.71 284.211 489.877 284.417 489.265 284.83C488.665 285.23 488.365 285.783 488.365 286.489C488.365 287.169 488.705 287.768 489.384 288.288C490.077 288.795 491.323 289.381 493.122 290.047C494.588 290.58 495.774 291.16 496.68 291.786C497.6 292.412 498.266 293.125 498.679 293.925C499.105 294.724 499.319 295.644 499.319 296.683C499.319 298.482 498.672 299.901 497.38 300.941C496.087 301.967 494.308 302.48 492.043 302.48ZM521.989 302.48C519.191 302.48 516.985 301.527 515.373 299.621C513.761 297.703 512.954 295.097 512.954 291.806C512.954 289.607 513.321 287.708 514.054 286.109C514.787 284.51 515.826 283.278 517.172 282.412C518.531 281.532 520.137 281.092 521.989 281.092C523.855 281.092 525.46 281.525 526.806 282.392C528.165 283.244 529.205 284.47 529.924 286.069C530.657 287.669 531.024 289.567 531.024 291.766C531.024 293.965 530.657 295.87 529.924 297.483C529.192 299.082 528.145 300.314 526.786 301.18C525.44 302.047 523.841 302.48 521.989 302.48ZM521.989 299.242C523.708 299.242 525.054 298.582 526.027 297.263C527.013 295.93 527.506 294.098 527.506 291.766C527.506 289.421 527.013 287.589 526.027 286.269C525.054 284.95 523.708 284.291 521.989 284.291C520.257 284.291 518.904 284.95 517.932 286.269C516.959 287.575 516.472 289.421 516.472 291.806C516.472 294.138 516.959 295.964 517.932 297.283C518.904 298.589 520.257 299.242 521.989 299.242ZM536.25 310.115V281.572H539.728V283.291C541.194 281.825 542.939 281.092 544.965 281.092C546.697 281.092 548.19 281.525 549.442 282.392C550.708 283.258 551.681 284.49 552.36 286.089C553.053 287.689 553.4 289.581 553.4 291.766C553.4 293.951 553.053 295.85 552.36 297.463C551.668 299.062 550.688 300.301 549.422 301.18C548.17 302.047 546.684 302.48 544.965 302.48C543.886 302.48 542.913 302.286 542.047 301.9C541.18 301.5 540.408 300.894 539.728 300.081V308.476L536.25 310.115ZM544.525 299.242C546.244 299.242 547.557 298.595 548.463 297.303C549.382 296.01 549.842 294.165 549.842 291.766C549.842 289.461 549.362 287.642 548.403 286.309C547.443 284.963 546.151 284.291 544.525 284.291C543.486 284.291 542.553 284.53 541.727 285.01C540.901 285.49 540.234 286.169 539.728 287.049V296.483C540.434 297.403 541.187 298.096 541.987 298.562C542.786 299.015 543.632 299.242 544.525 299.242ZM567.354 302.48C565.488 302.48 563.876 302.02 562.517 301.101C561.157 300.181 560.111 298.915 559.378 297.303C558.646 295.69 558.279 293.845 558.279 291.766C558.279 289.514 558.659 287.595 559.418 286.009C560.178 284.41 561.237 283.191 562.597 282.352C563.956 281.512 565.541 281.092 567.354 281.092C568.886 281.092 570.292 281.439 571.571 282.132C572.85 282.811 573.87 283.871 574.629 285.31C575.402 286.736 575.789 288.568 575.789 290.807C575.789 291.126 575.775 291.5 575.749 291.926C575.735 292.339 575.709 292.765 575.669 293.205H561.837C561.97 294.444 562.277 295.531 562.756 296.463C563.236 297.396 563.869 298.129 564.655 298.662C565.442 299.182 566.368 299.442 567.434 299.442C568.3 299.442 569.099 299.288 569.832 298.982C570.578 298.675 571.271 298.202 571.911 297.563L573.95 299.841C573.19 300.601 572.244 301.234 571.112 301.74C569.992 302.233 568.74 302.48 567.354 302.48ZM561.797 290.167H572.271C572.271 289.008 572.078 287.975 571.691 287.069C571.318 286.149 570.765 285.43 570.032 284.91C569.299 284.39 568.406 284.131 567.354 284.131C565.875 284.131 564.602 284.61 563.536 285.57C562.483 286.529 561.904 288.062 561.797 290.167ZM581.379 302V281.572H584.857V283.651C585.484 282.785 586.237 282.145 587.116 281.732C587.996 281.306 589.002 281.092 590.134 281.092C592.613 281.092 594.452 281.845 595.651 283.351C596.85 284.844 597.45 287.142 597.45 290.247V302H593.972V289.647C593.972 287.928 593.586 286.609 592.813 285.69C592.053 284.757 590.974 284.291 589.575 284.291C588.016 284.291 586.836 284.737 586.037 285.63C585.251 286.509 584.857 287.822 584.857 289.567V302H581.379ZM603.905 291.766V288.408H613.26V291.766H603.905ZM625.909 302.48C624.469 302.48 623.084 302.173 621.751 301.56C620.432 300.934 619.353 300.094 618.513 299.042L620.992 296.923C621.711 297.696 622.511 298.296 623.39 298.722C624.27 299.148 625.136 299.362 625.989 299.362C627.188 299.362 628.121 299.135 628.787 298.682C629.453 298.216 629.786 297.576 629.786 296.763C629.786 296.23 629.633 295.75 629.327 295.324C629.033 294.898 628.54 294.491 627.847 294.105C627.168 293.718 626.255 293.312 625.109 292.885C622.857 292.046 621.238 291.133 620.252 290.147C619.279 289.161 618.793 287.942 618.793 286.489C618.793 284.89 619.426 283.591 620.692 282.592C621.971 281.592 623.63 281.092 625.669 281.092C627.068 281.092 628.354 281.359 629.526 281.892C630.699 282.412 631.705 283.171 632.545 284.171L630.146 286.169C628.92 284.864 627.414 284.211 625.629 284.211C624.576 284.211 623.743 284.417 623.13 284.83C622.531 285.23 622.231 285.783 622.231 286.489C622.231 287.169 622.571 287.768 623.25 288.288C623.943 288.795 625.189 289.381 626.988 290.047C628.454 290.58 629.64 291.16 630.546 291.786C631.465 292.412 632.132 293.125 632.545 293.925C632.971 294.724 633.184 295.644 633.184 296.683C633.184 298.482 632.538 299.901 631.245 300.941C629.953 301.967 628.174 302.48 625.909 302.48ZM646.056 302.48C643.258 302.48 641.052 301.527 639.44 299.621C637.828 297.703 637.021 295.097 637.021 291.806C637.021 289.607 637.388 287.708 638.121 286.109C638.854 284.51 639.893 283.278 641.239 282.412C642.598 281.532 644.204 281.092 646.056 281.092C647.922 281.092 649.527 281.525 650.873 282.392C652.232 283.244 653.272 284.47 653.991 286.069C654.724 287.669 655.091 289.567 655.091 291.766C655.091 293.965 654.724 295.87 653.991 297.483C653.258 299.082 652.212 300.314 650.853 301.18C649.507 302.047 647.908 302.48 646.056 302.48ZM646.056 299.242C647.775 299.242 649.121 298.582 650.094 297.263C651.08 295.93 651.573 294.098 651.573 291.766C651.573 289.421 651.08 287.589 650.094 286.269C649.121 284.95 647.775 284.291 646.056 284.291C644.324 284.291 642.971 284.95 641.998 286.269C641.026 287.575 640.539 289.421 640.539 291.806C640.539 294.138 641.026 295.964 641.998 297.283C642.971 298.589 644.324 299.242 646.056 299.242ZM667.748 302.48C665.229 302.48 663.357 301.733 662.131 300.241C660.919 298.749 660.312 296.457 660.312 293.365V281.572H663.79V293.885C663.79 295.617 664.17 296.943 664.93 297.862C665.689 298.782 666.775 299.242 668.188 299.242C669.747 299.242 670.919 298.795 671.706 297.902C672.505 297.01 672.905 295.697 672.905 293.965V281.572H676.383V302H672.905V300.041C672.252 300.881 671.512 301.5 670.686 301.9C669.873 302.286 668.894 302.48 667.748 302.48ZM683.311 302V281.572H686.789V284.251C687.255 283.211 687.895 282.425 688.708 281.892C689.534 281.359 690.507 281.092 691.626 281.092C692.865 281.092 693.918 281.439 694.784 282.132L694.265 285.41C693.825 285.103 693.365 284.883 692.885 284.75C692.419 284.604 691.906 284.53 691.346 284.53C690.427 284.53 689.627 284.777 688.948 285.27C688.268 285.763 687.735 286.456 687.349 287.349C686.976 288.242 686.789 289.288 686.789 290.487V302H683.311ZM705.109 302.48C703.35 302.48 701.838 302.053 700.572 301.2C699.306 300.334 698.333 299.108 697.654 297.523C696.974 295.924 696.634 294.018 696.634 291.806C696.634 289.581 696.981 287.669 697.674 286.069C698.367 284.47 699.353 283.244 700.632 282.392C701.925 281.525 703.47 281.092 705.269 281.092C707.028 281.092 708.521 281.499 709.747 282.312C710.973 283.125 711.865 284.304 712.425 285.85L709.147 287.049C708.814 286.169 708.314 285.496 707.648 285.03C706.995 284.564 706.215 284.33 705.309 284.33C703.657 284.33 702.391 284.97 701.512 286.249C700.632 287.529 700.192 289.381 700.192 291.806C700.192 294.178 700.625 296.004 701.492 297.283C702.358 298.562 703.59 299.202 705.189 299.202C706.215 299.202 707.088 298.935 707.808 298.402C708.541 297.869 709.054 297.123 709.347 296.163L712.585 297.243C712.092 298.922 711.192 300.214 709.887 301.121C708.581 302.027 706.988 302.48 705.109 302.48ZM726.01 302.48C724.144 302.48 722.532 302.02 721.172 301.101C719.813 300.181 718.767 298.915 718.034 297.303C717.301 295.69 716.935 293.845 716.935 291.766C716.935 289.514 717.315 287.595 718.074 286.009C718.834 284.41 719.893 283.191 721.252 282.352C722.612 281.512 724.197 281.092 726.01 281.092C727.542 281.092 728.948 281.439 730.227 282.132C731.506 282.811 732.526 283.871 733.285 285.31C734.058 286.736 734.445 288.568 734.445 290.807C734.445 291.126 734.431 291.5 734.405 291.926C734.391 292.339 734.365 292.765 734.325 293.205H720.493C720.626 294.444 720.933 295.531 721.412 296.463C721.892 297.396 722.525 298.129 723.311 298.662C724.097 299.182 725.023 299.442 726.089 299.442C726.956 299.442 727.755 299.288 728.488 298.982C729.234 298.675 729.927 298.202 730.567 297.563L732.606 299.841C731.846 300.601 730.9 301.234 729.767 301.74C728.648 302.233 727.395 302.48 726.01 302.48ZM720.453 290.167H730.927C730.927 289.008 730.733 287.975 730.347 287.069C729.974 286.149 729.421 285.43 728.688 284.91C727.955 284.39 727.062 284.131 726.01 284.131C724.53 284.131 723.258 284.61 722.192 285.57C721.139 286.529 720.559 288.062 720.453 290.167ZM749.093 302V281.572H752.571V302H749.093ZM750.812 277.854C750.213 277.854 749.7 277.648 749.273 277.235C748.86 276.808 748.654 276.295 748.654 275.696C748.654 275.069 748.86 274.543 749.273 274.117C749.7 273.677 750.213 273.457 750.812 273.457C751.439 273.457 751.958 273.677 752.371 274.117C752.798 274.543 753.011 275.069 753.011 275.696C753.011 276.295 752.798 276.808 752.371 277.235C751.958 277.648 751.439 277.854 750.812 277.854ZM759.204 302V281.572H762.681V283.651C763.308 282.785 764.061 282.145 764.94 281.732C765.82 281.306 766.826 281.092 767.958 281.092C770.437 281.092 772.276 281.845 773.475 283.351C774.674 284.844 775.274 287.142 775.274 290.247V302H771.796V289.647C771.796 287.928 771.41 286.609 770.637 285.69C769.877 284.757 768.798 284.291 767.399 284.291C765.84 284.291 764.66 284.737 763.861 285.63C763.075 286.509 762.681 287.822 762.681 289.567V302H759.204ZM782.889 302V284.61H779.73V281.572H782.889V278.174C782.889 276.708 783.275 275.569 784.048 274.756C784.834 273.943 785.927 273.537 787.326 273.537C788.005 273.537 788.658 273.617 789.285 273.777C789.911 273.937 790.524 274.177 791.124 274.496V277.415C790.551 277.148 790.038 276.955 789.585 276.835C789.131 276.715 788.672 276.655 788.205 276.655C787.552 276.655 787.079 276.822 786.786 277.155C786.506 277.475 786.366 278.014 786.366 278.774V281.572H791.124V284.61H786.366V302H782.889ZM795.042 302V281.572H798.52V284.251C798.986 283.211 799.626 282.425 800.438 281.892C801.265 281.359 802.237 281.092 803.357 281.092C804.596 281.092 805.649 281.439 806.515 282.132L805.995 285.41C805.555 285.103 805.096 284.883 804.616 284.75C804.15 284.604 803.637 284.53 803.077 284.53C802.157 284.53 801.358 284.777 800.678 285.27C799.999 285.763 799.466 286.456 799.079 287.349C798.706 288.242 798.52 289.288 798.52 290.487V302H795.042ZM815.715 302.48C813.503 302.48 811.764 301.867 810.498 300.641C809.232 299.415 808.599 297.736 808.599 295.604C808.599 294.231 808.912 293.039 809.539 292.026C810.165 291.013 811.051 290.234 812.197 289.687C813.343 289.128 814.689 288.848 816.235 288.848C817.234 288.848 818.167 288.961 819.033 289.188C819.912 289.401 820.739 289.727 821.512 290.167V288.728C821.512 287.142 821.152 285.983 820.432 285.25C819.713 284.504 818.593 284.131 817.074 284.131C816.101 284.131 815.089 284.311 814.036 284.67C812.997 285.03 812.024 285.53 811.118 286.169L810.118 283.251C811.144 282.572 812.31 282.045 813.616 281.672C814.935 281.286 816.235 281.092 817.514 281.092C819.939 281.092 821.758 281.712 822.971 282.951C824.183 284.177 824.79 286.009 824.79 288.448V302H821.512V300.121C820.712 300.881 819.813 301.467 818.813 301.88C817.814 302.28 816.781 302.48 815.715 302.48ZM816.235 299.442C817.181 299.442 818.114 299.208 819.033 298.742C819.966 298.276 820.792 297.616 821.512 296.763V293.245C820.832 292.819 820.059 292.486 819.193 292.246C818.327 292.006 817.501 291.886 816.714 291.886C815.222 291.886 814.043 292.226 813.176 292.905C812.31 293.572 811.877 294.484 811.877 295.644C811.877 296.816 812.264 297.743 813.037 298.422C813.809 299.102 814.875 299.442 816.235 299.442ZM836.877 302.48C835.438 302.48 834.052 302.173 832.72 301.56C831.4 300.934 830.321 300.094 829.481 299.042L831.96 296.923C832.68 297.696 833.479 298.296 834.359 298.722C835.238 299.148 836.104 299.362 836.957 299.362C838.156 299.362 839.089 299.135 839.755 298.682C840.422 298.216 840.755 297.576 840.755 296.763C840.755 296.23 840.602 295.75 840.295 295.324C840.002 294.898 839.509 294.491 838.816 294.105C838.136 293.718 837.224 293.312 836.078 292.885C833.826 292.046 832.207 291.133 831.22 290.147C830.248 289.161 829.761 287.942 829.761 286.489C829.761 284.89 830.394 283.591 831.66 282.592C832.939 281.592 834.598 281.092 836.637 281.092C838.036 281.092 839.322 281.359 840.495 281.892C841.668 282.412 842.674 283.171 843.513 284.171L841.115 286.169C839.889 284.864 838.383 284.211 836.597 284.211C835.545 284.211 834.712 284.417 834.099 284.83C833.499 285.23 833.199 285.783 833.199 286.489C833.199 287.169 833.539 287.768 834.219 288.288C834.912 288.795 836.158 289.381 837.956 290.047C839.422 290.58 840.608 291.16 841.514 291.786C842.434 292.412 843.1 293.125 843.513 293.925C843.94 294.724 844.153 295.644 844.153 296.683C844.153 298.482 843.506 299.901 842.214 300.941C840.921 301.967 839.142 302.48 836.877 302.48ZM854.866 302.48C853.467 302.48 852.394 302.06 851.648 301.22C850.915 300.381 850.548 299.175 850.548 297.603V284.61H847.23V281.572H850.548V274.816L854.026 273.137V281.572H859.063V284.61H854.026V296.443C854.026 297.416 854.193 298.129 854.526 298.582C854.872 299.022 855.412 299.242 856.145 299.242C857.078 299.242 858.091 298.882 859.183 298.162L858.783 301.56C858.184 301.88 857.558 302.113 856.905 302.26C856.265 302.406 855.585 302.48 854.866 302.48ZM862.697 302V281.572H866.175V284.251C866.641 283.211 867.281 282.425 868.094 281.892C868.92 281.359 869.892 281.092 871.012 281.092C872.251 281.092 873.304 281.439 874.17 282.132L873.65 285.41C873.211 285.103 872.751 284.883 872.271 284.75C871.805 284.604 871.292 284.53 870.732 284.53C869.813 284.53 869.013 284.777 868.333 285.27C867.654 285.763 867.121 286.456 866.734 287.349C866.361 288.242 866.175 289.288 866.175 290.487V302H862.697ZM885.08 302.48C882.561 302.48 880.689 301.733 879.463 300.241C878.25 298.749 877.644 296.457 877.644 293.365V281.572H881.122V293.885C881.122 295.617 881.502 296.943 882.261 297.862C883.021 298.782 884.107 299.242 885.519 299.242C887.079 299.242 888.251 298.795 889.037 297.902C889.837 297.01 890.237 295.697 890.237 293.965V281.572H893.715V302H890.237V300.041C889.584 300.881 888.844 301.5 888.018 301.9C887.205 302.286 886.226 302.48 885.08 302.48ZM907.45 302.48C905.691 302.48 904.179 302.053 902.913 301.2C901.647 300.334 900.674 299.108 899.995 297.523C899.315 295.924 898.975 294.018 898.975 291.806C898.975 289.581 899.322 287.669 900.015 286.069C900.707 284.47 901.694 283.244 902.973 282.392C904.265 281.525 905.811 281.092 907.61 281.092C909.369 281.092 910.861 281.499 912.087 282.312C913.313 283.125 914.206 284.304 914.766 285.85L911.488 287.049C911.155 286.169 910.655 285.496 909.989 285.03C909.336 284.564 908.556 284.33 907.65 284.33C905.998 284.33 904.732 284.97 903.852 286.249C902.973 287.529 902.533 289.381 902.533 291.806C902.533 294.178 902.966 296.004 903.832 297.283C904.698 298.562 905.931 299.202 907.53 299.202C908.556 299.202 909.429 298.935 910.149 298.402C910.881 297.869 911.394 297.123 911.688 296.163L914.926 297.243C914.433 298.922 913.533 300.214 912.227 301.121C910.921 302.027 909.329 302.48 907.45 302.48ZM925.449 302.48C924.05 302.48 922.977 302.06 922.231 301.22C921.498 300.381 921.131 299.175 921.131 297.603V284.61H917.813V281.572H921.131V274.816L924.609 273.137V281.572H929.646V284.61H924.609V296.443C924.609 297.416 924.776 298.129 925.109 298.582C925.455 299.022 925.995 299.242 926.728 299.242C927.661 299.242 928.674 298.882 929.766 298.162L929.366 301.56C928.767 301.88 928.141 302.113 927.488 302.26C926.848 302.406 926.168 302.48 925.449 302.48ZM941.101 302.48C938.583 302.48 936.71 301.733 935.484 300.241C934.272 298.749 933.666 296.457 933.666 293.365V281.572H937.143V293.885C937.143 295.617 937.523 296.943 938.283 297.862C939.042 298.782 940.128 299.242 941.541 299.242C943.1 299.242 944.273 298.795 945.059 297.902C945.858 297.01 946.258 295.697 946.258 293.965V281.572H949.736V302H946.258V300.041C945.605 300.881 944.866 301.5 944.039 301.9C943.226 302.286 942.247 302.48 941.101 302.48ZM956.664 302V281.572H960.142V284.251C960.609 283.211 961.248 282.425 962.061 281.892C962.887 281.359 963.86 281.092 964.979 281.092C966.219 281.092 967.271 281.439 968.138 282.132L967.618 285.41C967.178 285.103 966.718 284.883 966.239 284.75C965.772 284.604 965.259 284.53 964.7 284.53C963.78 284.53 962.981 284.777 962.301 285.27C961.621 285.763 961.088 286.456 960.702 287.349C960.329 288.242 960.142 289.288 960.142 290.487V302H956.664ZM979.062 302.48C977.197 302.48 975.584 302.02 974.225 301.101C972.866 300.181 971.82 298.915 971.087 297.303C970.354 295.69 969.988 293.845 969.988 291.766C969.988 289.514 970.367 287.595 971.127 286.009C971.887 284.41 972.946 283.191 974.305 282.352C975.664 281.512 977.25 281.092 979.062 281.092C980.595 281.092 982.001 281.439 983.28 282.132C984.559 282.811 985.578 283.871 986.338 285.31C987.111 286.736 987.497 288.568 987.497 290.807C987.497 291.126 987.484 291.5 987.457 291.926C987.444 292.339 987.417 292.765 987.377 293.205H973.546C973.679 294.444 973.985 295.531 974.465 296.463C974.945 297.396 975.578 298.129 976.364 298.662C977.15 299.182 978.076 299.442 979.142 299.442C980.008 299.442 980.808 299.288 981.541 298.982C982.287 298.675 982.98 298.202 983.62 297.563L985.658 299.841C984.899 300.601 983.953 301.234 982.82 301.74C981.701 302.233 980.448 302.48 979.062 302.48ZM973.506 290.167H983.979C983.979 289.008 983.786 287.975 983.4 287.069C983.027 286.149 982.474 285.43 981.741 284.91C981.008 284.39 980.115 284.131 979.062 284.131C977.583 284.131 976.311 284.61 975.245 285.57C974.192 286.529 973.612 288.062 973.506 290.167Z" fill="black"/>
<path d="M179.511 549.288C177.998 549.288 176.873 548.84 176.137 547.943C175.408 547.047 175.044 545.67 175.044 543.813V536.728H177.133V544.125C177.133 545.165 177.362 545.962 177.818 546.514C178.274 547.067 178.927 547.343 179.775 547.343C180.712 547.343 181.416 547.075 181.889 546.538C182.369 546.002 182.609 545.213 182.609 544.173V536.728H184.699V549H182.609V547.823C182.217 548.328 181.773 548.7 181.276 548.94C180.788 549.172 180.199 549.288 179.511 549.288ZM192.323 549.288C191.458 549.288 190.626 549.104 189.825 548.736C189.033 548.36 188.384 547.855 187.88 547.223L189.369 545.95C189.801 546.414 190.282 546.775 190.81 547.031C191.338 547.287 191.859 547.415 192.371 547.415C193.092 547.415 193.652 547.279 194.052 547.007C194.452 546.726 194.653 546.342 194.653 545.854C194.653 545.534 194.561 545.245 194.376 544.989C194.2 544.733 193.904 544.489 193.488 544.257C193.08 544.025 192.531 543.781 191.843 543.524C190.49 543.02 189.517 542.472 188.925 541.879C188.34 541.287 188.048 540.554 188.048 539.682C188.048 538.721 188.428 537.941 189.189 537.34C189.957 536.74 190.954 536.44 192.179 536.44C193.02 536.44 193.792 536.6 194.496 536.92C195.201 537.232 195.805 537.688 196.31 538.289L194.869 539.49C194.132 538.705 193.228 538.313 192.155 538.313C191.523 538.313 191.022 538.437 190.654 538.685C190.294 538.925 190.114 539.257 190.114 539.682C190.114 540.09 190.318 540.45 190.726 540.762C191.142 541.067 191.891 541.419 192.971 541.819C193.852 542.139 194.565 542.488 195.109 542.864C195.661 543.24 196.062 543.668 196.31 544.149C196.566 544.629 196.694 545.181 196.694 545.806C196.694 546.887 196.306 547.739 195.529 548.364C194.753 548.98 193.684 549.288 192.323 549.288ZM204.451 549.288C203.33 549.288 202.361 549.012 201.545 548.46C200.728 547.907 200.1 547.147 199.66 546.178C199.219 545.209 198.999 544.101 198.999 542.852C198.999 541.499 199.227 540.346 199.684 539.394C200.14 538.433 200.776 537.7 201.593 537.196C202.409 536.692 203.362 536.44 204.451 536.44C205.371 536.44 206.216 536.648 206.984 537.064C207.753 537.472 208.365 538.109 208.822 538.973C209.286 539.83 209.518 540.931 209.518 542.276C209.518 542.468 209.51 542.692 209.494 542.948C209.486 543.196 209.47 543.452 209.446 543.716H201.137C201.217 544.461 201.401 545.113 201.689 545.674C201.977 546.234 202.357 546.674 202.83 546.995C203.302 547.307 203.858 547.463 204.499 547.463C205.019 547.463 205.499 547.371 205.94 547.187C206.388 547.003 206.804 546.718 207.189 546.334L208.413 547.703C207.957 548.159 207.389 548.54 206.708 548.844C206.036 549.14 205.283 549.288 204.451 549.288ZM201.113 541.891H207.405C207.405 541.195 207.289 540.574 207.057 540.03C206.832 539.478 206.5 539.045 206.06 538.733C205.62 538.421 205.083 538.265 204.451 538.265C203.562 538.265 202.798 538.553 202.157 539.129C201.525 539.706 201.177 540.626 201.113 541.891ZM212.877 549V536.728H214.966V538.337C215.246 537.712 215.631 537.24 216.119 536.92C216.615 536.6 217.2 536.44 217.872 536.44C218.617 536.44 219.249 536.648 219.769 537.064L219.457 539.033C219.193 538.849 218.917 538.717 218.629 538.637C218.349 538.549 218.04 538.505 217.704 538.505C217.152 538.505 216.671 538.653 216.263 538.949C215.855 539.245 215.535 539.662 215.302 540.198C215.078 540.734 214.966 541.363 214.966 542.083V549H212.877ZM229.641 549V535.599H226.831V534.182C227.383 534.182 227.883 534.122 228.332 534.002C228.78 533.874 229.164 533.666 229.485 533.378C229.805 533.089 230.049 532.693 230.217 532.189H231.73V549H229.641ZM99.7237 579V562.189H106.16C107.521 562.189 108.598 562.437 109.39 562.933C110.183 563.422 110.747 564.054 111.083 564.831C111.419 565.599 111.588 566.4 111.588 567.232C111.588 567.809 111.488 568.393 111.287 568.985C111.095 569.57 110.783 570.11 110.351 570.606C109.918 571.103 109.358 571.503 108.67 571.807C107.981 572.103 107.145 572.251 106.16 572.251H101.813V579H99.7237ZM101.813 570.306H106.304C107.097 570.306 107.725 570.15 108.189 569.838C108.662 569.526 108.998 569.133 109.198 568.661C109.398 568.189 109.498 567.712 109.498 567.232C109.498 566.792 109.406 566.332 109.222 565.851C109.046 565.371 108.726 564.967 108.261 564.638C107.797 564.302 107.145 564.134 106.304 564.134H101.813V570.306ZM119.292 579.288C118.172 579.288 117.203 579.012 116.386 578.46C115.57 577.907 114.941 577.147 114.501 576.178C114.061 575.209 113.841 574.101 113.841 572.852C113.841 571.499 114.069 570.346 114.525 569.394C114.981 568.433 115.618 567.7 116.434 567.196C117.251 566.692 118.204 566.44 119.292 566.44C120.213 566.44 121.057 566.648 121.826 567.064C122.594 567.472 123.207 568.109 123.663 568.973C124.127 569.83 124.36 570.931 124.36 572.276C124.36 572.468 124.352 572.692 124.336 572.948C124.328 573.196 124.312 573.452 124.288 573.716H115.978C116.058 574.461 116.242 575.113 116.53 575.674C116.819 576.234 117.199 576.674 117.671 576.995C118.143 577.307 118.7 577.463 119.34 577.463C119.861 577.463 120.341 577.371 120.781 577.187C121.23 577.003 121.646 576.718 122.03 576.334L123.255 577.703C122.799 578.159 122.23 578.54 121.55 578.844C120.877 579.14 120.125 579.288 119.292 579.288ZM115.954 571.891H122.246C122.246 571.195 122.13 570.574 121.898 570.03C121.674 569.478 121.342 569.045 120.901 568.733C120.461 568.421 119.925 568.265 119.292 568.265C118.404 568.265 117.639 568.553 116.999 569.129C116.366 569.706 116.018 570.626 115.954 571.891ZM127.718 579V566.728H129.808V568.337C130.088 567.712 130.472 567.24 130.96 566.92C131.457 566.6 132.041 566.44 132.714 566.44C133.458 566.44 134.091 566.648 134.611 567.064L134.299 569.033C134.035 568.849 133.758 568.717 133.47 568.637C133.19 568.549 132.882 568.505 132.546 568.505C131.993 568.505 131.513 568.653 131.105 568.949C130.696 569.245 130.376 569.662 130.144 570.198C129.92 570.734 129.808 571.363 129.808 572.083V579H127.718ZM140.445 579.288C139.58 579.288 138.747 579.104 137.947 578.736C137.154 578.36 136.506 577.855 136.002 577.223L137.491 575.95C137.923 576.414 138.403 576.775 138.932 577.031C139.46 577.287 139.98 577.415 140.493 577.415C141.213 577.415 141.773 577.279 142.174 577.007C142.574 576.726 142.774 576.342 142.774 575.854C142.774 575.534 142.682 575.245 142.498 574.989C142.322 574.733 142.026 574.489 141.609 574.257C141.201 574.025 140.653 573.781 139.964 573.524C138.611 573.02 137.639 572.472 137.046 571.879C136.462 571.287 136.17 570.554 136.17 569.682C136.17 568.721 136.55 567.941 137.31 567.34C138.079 566.74 139.076 566.44 140.3 566.44C141.141 566.44 141.914 566.6 142.618 566.92C143.323 567.232 143.927 567.688 144.431 568.289L142.99 569.49C142.254 568.705 141.349 568.313 140.276 568.313C139.644 568.313 139.144 568.437 138.775 568.685C138.415 568.925 138.235 569.257 138.235 569.682C138.235 570.09 138.439 570.45 138.848 570.762C139.264 571.067 140.012 571.419 141.093 571.819C141.974 572.139 142.686 572.488 143.23 572.864C143.783 573.24 144.183 573.668 144.431 574.149C144.687 574.629 144.816 575.181 144.816 575.806C144.816 576.887 144.427 577.739 143.651 578.364C142.874 578.98 141.806 579.288 140.445 579.288ZM152.548 579.288C150.867 579.288 149.542 578.716 148.574 577.571C147.605 576.418 147.121 574.853 147.121 572.876C147.121 571.555 147.341 570.414 147.781 569.454C148.221 568.493 148.846 567.752 149.654 567.232C150.471 566.704 151.436 566.44 152.548 566.44C153.669 566.44 154.634 566.7 155.442 567.22C156.259 567.732 156.883 568.469 157.315 569.43C157.756 570.39 157.976 571.531 157.976 572.852C157.976 574.173 157.756 575.318 157.315 576.286C156.875 577.247 156.247 577.987 155.43 578.508C154.622 579.028 153.661 579.288 152.548 579.288ZM152.548 577.343C153.581 577.343 154.39 576.947 154.974 576.154C155.566 575.354 155.863 574.253 155.863 572.852C155.863 571.443 155.566 570.342 154.974 569.55C154.39 568.757 153.581 568.361 152.548 568.361C151.508 568.361 150.695 568.757 150.111 569.55C149.526 570.334 149.234 571.443 149.234 572.876C149.234 574.277 149.526 575.374 150.111 576.166C150.695 576.951 151.508 577.343 152.548 577.343ZM161.116 579V566.728H163.205V567.977C163.581 567.456 164.034 567.072 164.562 566.824C165.09 566.568 165.695 566.44 166.375 566.44C167.864 566.44 168.969 566.892 169.689 567.797C170.41 568.693 170.77 570.074 170.77 571.939V579H168.681V571.579C168.681 570.546 168.449 569.754 167.984 569.201C167.528 568.641 166.88 568.361 166.039 568.361C165.102 568.361 164.394 568.629 163.914 569.165C163.441 569.694 163.205 570.482 163.205 571.531V579H161.116ZM178.32 579.288C176.991 579.288 175.946 578.92 175.186 578.183C174.425 577.447 174.045 576.438 174.045 575.157C174.045 574.333 174.233 573.616 174.609 573.008C174.986 572.4 175.518 571.931 176.206 571.603C176.895 571.267 177.703 571.099 178.632 571.099C179.232 571.099 179.793 571.167 180.313 571.303C180.841 571.431 181.338 571.627 181.802 571.891V571.027C181.802 570.074 181.586 569.378 181.154 568.937C180.721 568.489 180.049 568.265 179.136 568.265C178.552 568.265 177.944 568.373 177.311 568.589C176.687 568.805 176.102 569.105 175.558 569.49L174.958 567.736C175.574 567.328 176.274 567.012 177.059 566.788C177.851 566.556 178.632 566.44 179.401 566.44C180.857 566.44 181.95 566.812 182.679 567.556C183.407 568.293 183.771 569.394 183.771 570.859V579H181.802V577.871C181.322 578.328 180.781 578.68 180.181 578.928C179.581 579.168 178.96 579.288 178.32 579.288ZM178.632 577.463C179.2 577.463 179.761 577.323 180.313 577.043C180.874 576.763 181.37 576.366 181.802 575.854V573.74C181.394 573.484 180.93 573.284 180.409 573.14C179.889 572.996 179.393 572.924 178.92 572.924C178.024 572.924 177.315 573.128 176.795 573.536C176.274 573.937 176.014 574.485 176.014 575.181C176.014 575.886 176.246 576.442 176.711 576.851C177.175 577.259 177.815 577.463 178.632 577.463ZM187.527 579V562.645L189.616 561.66V579H187.527ZM199.705 579V562.189H204.292C205.733 562.189 206.949 562.429 207.942 562.909C208.943 563.39 209.747 564.034 210.356 564.843C210.964 565.643 211.404 566.544 211.677 567.544C211.957 568.537 212.097 569.554 212.097 570.594C212.097 571.563 211.969 572.54 211.713 573.524C211.456 574.509 211.028 575.418 210.428 576.25C209.835 577.075 209.031 577.739 208.014 578.243C206.997 578.748 205.725 579 204.196 579H199.705ZM201.794 577.055H204.46C205.508 577.055 206.381 576.867 207.078 576.49C207.782 576.106 208.342 575.602 208.759 574.977C209.183 574.345 209.483 573.648 209.659 572.888C209.843 572.119 209.935 571.355 209.935 570.594C209.935 569.778 209.835 568.985 209.635 568.217C209.443 567.44 209.135 566.744 208.711 566.127C208.294 565.511 207.758 565.023 207.102 564.662C206.445 564.294 205.653 564.11 204.724 564.11H201.794V577.055ZM218.847 579.288C217.518 579.288 216.473 578.92 215.713 578.183C214.952 577.447 214.572 576.438 214.572 575.157C214.572 574.333 214.76 573.616 215.136 573.008C215.513 572.4 216.045 571.931 216.733 571.603C217.422 571.267 218.23 571.099 219.159 571.099C219.76 571.099 220.32 571.167 220.84 571.303C221.369 571.431 221.865 571.627 222.329 571.891V571.027C222.329 570.074 222.113 569.378 221.681 568.937C221.249 568.489 220.576 568.265 219.663 568.265C219.079 568.265 218.471 568.373 217.838 568.589C217.214 568.805 216.629 569.105 216.085 569.49L215.485 567.736C216.101 567.328 216.802 567.012 217.586 566.788C218.379 566.556 219.159 566.44 219.928 566.44C221.385 566.44 222.477 566.812 223.206 567.556C223.934 568.293 224.299 569.394 224.299 570.859V579H222.329V577.871C221.849 578.328 221.309 578.68 220.708 578.928C220.108 579.168 219.487 579.288 218.847 579.288ZM219.159 577.463C219.727 577.463 220.288 577.323 220.84 577.043C221.401 576.763 221.897 576.366 222.329 575.854V573.74C221.921 573.484 221.457 573.284 220.936 573.14C220.416 572.996 219.92 572.924 219.447 572.924C218.551 572.924 217.842 573.128 217.322 573.536C216.802 573.937 216.541 574.485 216.541 575.181C216.541 575.886 216.774 576.442 217.238 576.851C217.702 577.259 218.343 577.463 219.159 577.463ZM230.992 579.288C230.152 579.288 229.507 579.036 229.059 578.532C228.619 578.027 228.399 577.303 228.399 576.358V568.553H226.405V566.728H228.399V562.669L230.488 561.66V566.728H233.514V568.553H230.488V575.662C230.488 576.246 230.588 576.674 230.788 576.947C230.996 577.211 231.32 577.343 231.761 577.343C232.321 577.343 232.93 577.127 233.586 576.694L233.346 578.736C232.986 578.928 232.609 579.068 232.217 579.156C231.833 579.244 231.425 579.288 230.992 579.288ZM239.978 579.288C238.649 579.288 237.605 578.92 236.844 578.183C236.084 577.447 235.703 576.438 235.703 575.157C235.703 574.333 235.891 573.616 236.268 573.008C236.644 572.4 237.176 571.931 237.865 571.603C238.553 571.267 239.362 571.099 240.29 571.099C240.891 571.099 241.451 571.167 241.972 571.303C242.5 571.431 242.996 571.627 243.461 571.891V571.027C243.461 570.074 243.244 569.378 242.812 568.937C242.38 568.489 241.707 568.265 240.795 568.265C240.21 568.265 239.602 568.373 238.97 568.589C238.345 568.805 237.761 569.105 237.216 569.49L236.616 567.736C237.232 567.328 237.933 567.012 238.717 566.788C239.51 566.556 240.29 566.44 241.059 566.44C242.516 566.44 243.609 566.812 244.337 567.556C245.066 568.293 245.43 569.394 245.43 570.859V579H243.461V577.871C242.98 578.328 242.44 578.68 241.839 578.928C241.239 579.168 240.619 579.288 239.978 579.288ZM240.29 577.463C240.859 577.463 241.419 577.323 241.972 577.043C242.532 576.763 243.028 576.366 243.461 575.854V573.74C243.052 573.484 242.588 573.284 242.068 573.14C241.547 572.996 241.051 572.924 240.579 572.924C239.682 572.924 238.974 573.128 238.453 573.536C237.933 573.937 237.673 574.485 237.673 575.181C237.673 575.886 237.905 576.442 238.369 576.851C238.833 577.259 239.474 577.463 240.29 577.463ZM259.977 579.288C259 579.288 258.116 579.128 257.323 578.808C256.531 578.48 255.858 578.035 255.306 577.475C254.761 576.907 254.365 576.262 254.117 575.542L256.086 574.821C256.422 575.566 256.931 576.17 257.611 576.634C258.3 577.091 259.104 577.319 260.025 577.319C261.034 577.319 261.838 577.079 262.438 576.598C263.039 576.11 263.339 575.406 263.339 574.485C263.339 573.837 263.159 573.292 262.799 572.852C262.438 572.412 261.97 572.043 261.394 571.747C260.817 571.443 260.201 571.171 259.545 570.931C258.96 570.714 258.376 570.474 257.791 570.21C257.207 569.946 256.675 569.634 256.194 569.273C255.722 568.905 255.342 568.461 255.054 567.941C254.765 567.412 254.621 566.784 254.621 566.055C254.621 565.303 254.825 564.614 255.234 563.99C255.642 563.358 256.23 562.853 256.999 562.477C257.767 562.093 258.696 561.901 259.785 561.901C260.673 561.901 261.454 562.033 262.126 562.297C262.807 562.553 263.363 562.909 263.795 563.366C264.236 563.814 264.54 564.326 264.708 564.903L262.787 565.551C262.587 565.079 262.218 564.678 261.682 564.35C261.154 564.014 260.473 563.846 259.641 563.846C258.752 563.846 258.052 564.042 257.539 564.434C257.035 564.827 256.783 565.367 256.783 566.055C256.783 566.576 256.951 567.012 257.287 567.364C257.631 567.708 258.08 568.009 258.632 568.265C259.184 568.521 259.777 568.769 260.409 569.009C261.002 569.233 261.594 569.49 262.186 569.778C262.787 570.058 263.335 570.402 263.831 570.811C264.336 571.219 264.74 571.719 265.044 572.312C265.348 572.896 265.501 573.604 265.501 574.437C265.501 575.47 265.26 576.346 264.78 577.067C264.3 577.787 263.643 578.34 262.811 578.724C261.978 579.1 261.034 579.288 259.977 579.288ZM272.27 579.288C271.429 579.288 270.785 579.036 270.337 578.532C269.896 578.027 269.676 577.303 269.676 576.358V568.553H267.683V566.728H269.676V562.669L271.766 561.66V566.728H274.792V568.553H271.766V575.662C271.766 576.246 271.866 576.674 272.066 576.947C272.274 577.211 272.598 577.343 273.038 577.343C273.599 577.343 274.207 577.127 274.864 576.694L274.623 578.736C274.263 578.928 273.887 579.068 273.495 579.156C273.11 579.244 272.702 579.288 272.27 579.288ZM282.409 579.288C280.727 579.288 279.403 578.716 278.434 577.571C277.465 576.418 276.981 574.853 276.981 572.876C276.981 571.555 277.201 570.414 277.641 569.454C278.082 568.493 278.706 567.752 279.515 567.232C280.331 566.704 281.296 566.44 282.409 566.44C283.529 566.44 284.494 566.7 285.303 567.22C286.119 567.732 286.744 568.469 287.176 569.43C287.616 570.39 287.836 571.531 287.836 572.852C287.836 574.173 287.616 575.318 287.176 576.286C286.736 577.247 286.107 577.987 285.291 578.508C284.482 579.028 283.521 579.288 282.409 579.288ZM282.409 577.343C283.441 577.343 284.25 576.947 284.834 576.154C285.427 575.354 285.723 574.253 285.723 572.852C285.723 571.443 285.427 570.342 284.834 569.55C284.25 568.757 283.441 568.361 282.409 568.361C281.368 568.361 280.555 568.757 279.971 569.55C279.387 570.334 279.094 571.443 279.094 572.876C279.094 574.277 279.387 575.374 279.971 576.166C280.555 576.951 281.368 577.343 282.409 577.343ZM290.976 579V566.728H293.065V568.337C293.346 567.712 293.73 567.24 294.218 566.92C294.714 566.6 295.299 566.44 295.971 566.44C296.716 566.44 297.348 566.648 297.869 567.064L297.556 569.033C297.292 568.849 297.016 568.717 296.728 568.637C296.448 568.549 296.139 568.505 295.803 568.505C295.251 568.505 294.77 568.653 294.362 568.949C293.954 569.245 293.634 569.662 293.402 570.198C293.177 570.734 293.065 571.363 293.065 572.083V579H290.976ZM304.432 579.288C303.311 579.288 302.342 579.012 301.526 578.46C300.709 577.907 300.081 577.147 299.641 576.178C299.2 575.209 298.98 574.101 298.98 572.852C298.98 571.499 299.208 570.346 299.665 569.394C300.121 568.433 300.757 567.7 301.574 567.196C302.39 566.692 303.343 566.44 304.432 566.44C305.352 566.44 306.197 566.648 306.965 567.064C307.734 567.472 308.346 568.109 308.803 568.973C309.267 569.83 309.499 570.931 309.499 572.276C309.499 572.468 309.491 572.692 309.475 572.948C309.467 573.196 309.451 573.452 309.427 573.716H301.117C301.198 574.461 301.382 575.113 301.67 575.674C301.958 576.234 302.338 576.674 302.811 576.995C303.283 577.307 303.839 577.463 304.48 577.463C305 577.463 305.48 577.371 305.921 577.187C306.369 577.003 306.785 576.718 307.17 576.334L308.394 577.703C307.938 578.159 307.37 578.54 306.689 578.844C306.017 579.14 305.264 579.288 304.432 579.288ZM301.093 571.891H307.386C307.386 571.195 307.27 570.574 307.037 570.03C306.813 569.478 306.481 569.045 306.041 568.733C305.6 568.421 305.064 568.265 304.432 568.265C303.543 568.265 302.779 568.553 302.138 569.129C301.506 569.706 301.158 570.626 301.093 571.891ZM177.634 612.122C177.146 611.482 176.677 610.705 176.229 609.793C175.781 608.88 175.412 607.799 175.124 606.55C174.844 605.294 174.704 603.837 174.704 602.179C174.704 600.522 174.856 599.041 175.16 597.736C175.472 596.424 175.873 595.283 176.361 594.314C176.849 593.346 177.362 592.541 177.898 591.901H179.915C179.691 592.173 179.403 592.613 179.051 593.221C178.707 593.822 178.358 594.566 178.006 595.455C177.654 596.344 177.358 597.356 177.118 598.493C176.885 599.622 176.769 600.851 176.769 602.179C176.769 603.516 176.881 604.737 177.106 605.842C177.33 606.939 177.602 607.911 177.922 608.76C178.25 609.6 178.575 610.301 178.895 610.861C179.215 611.43 179.467 611.85 179.651 612.122H177.634ZM183.416 609V592.189H189.853C191.214 592.189 192.29 592.437 193.083 592.933C193.875 593.422 194.44 594.054 194.776 594.831C195.112 595.599 195.28 596.4 195.28 597.232C195.28 597.809 195.18 598.393 194.98 598.985C194.788 599.57 194.476 600.11 194.043 600.606C193.611 601.103 193.051 601.503 192.362 601.807C191.674 602.103 190.837 602.251 189.853 602.251H185.506V609H183.416ZM185.506 600.306H189.997C190.789 600.306 191.418 600.15 191.882 599.838C192.354 599.526 192.691 599.133 192.891 598.661C193.091 598.189 193.191 597.712 193.191 597.232C193.191 596.792 193.099 596.332 192.915 595.851C192.739 595.371 192.418 594.967 191.954 594.638C191.49 594.302 190.837 594.134 189.997 594.134H185.506V600.306ZM198.544 609V592.189H203.131C204.572 592.189 205.789 592.429 206.781 592.909C207.782 593.39 208.586 594.034 209.195 594.843C209.803 595.643 210.243 596.544 210.516 597.544C210.796 598.537 210.936 599.554 210.936 600.594C210.936 601.563 210.808 602.54 210.552 603.524C210.296 604.509 209.867 605.418 209.267 606.25C208.674 607.075 207.87 607.739 206.853 608.243C205.837 608.748 204.564 609 203.035 609H198.544ZM200.633 607.055H203.299C204.348 607.055 205.22 606.867 205.917 606.49C206.621 606.106 207.181 605.602 207.598 604.977C208.022 604.345 208.322 603.648 208.498 602.888C208.682 602.119 208.775 601.355 208.775 600.594C208.775 599.778 208.674 598.985 208.474 598.217C208.282 597.44 207.974 596.744 207.55 596.127C207.133 595.511 206.597 595.023 205.941 594.662C205.284 594.294 204.492 594.11 203.563 594.11H200.633V607.055ZM219.813 609.288C218.837 609.288 217.952 609.128 217.159 608.808C216.367 608.48 215.695 608.035 215.142 607.475C214.598 606.907 214.202 606.262 213.953 605.542L215.923 604.821C216.259 605.566 216.767 606.17 217.448 606.634C218.136 607.091 218.941 607.319 219.861 607.319C220.87 607.319 221.675 607.079 222.275 606.598C222.875 606.11 223.176 605.406 223.176 604.485C223.176 603.837 222.995 603.292 222.635 602.852C222.275 602.412 221.807 602.043 221.23 601.747C220.654 601.443 220.037 601.171 219.381 600.931C218.797 600.714 218.212 600.474 217.628 600.21C217.043 599.946 216.511 599.634 216.031 599.273C215.558 598.905 215.178 598.461 214.89 597.941C214.602 597.412 214.458 596.784 214.458 596.055C214.458 595.303 214.662 594.614 215.07 593.99C215.478 593.358 216.067 592.853 216.835 592.477C217.604 592.093 218.532 591.901 219.621 591.901C220.51 591.901 221.29 592.033 221.963 592.297C222.643 592.553 223.2 592.909 223.632 593.366C224.072 593.814 224.376 594.326 224.544 594.903L222.623 595.551C222.423 595.079 222.055 594.678 221.518 594.35C220.99 594.014 220.31 593.846 219.477 593.846C218.588 593.846 217.888 594.042 217.376 594.434C216.871 594.827 216.619 595.367 216.619 596.055C216.619 596.576 216.787 597.012 217.123 597.364C217.468 597.708 217.916 598.009 218.468 598.265C219.021 598.521 219.613 598.769 220.246 599.009C220.838 599.233 221.43 599.49 222.023 599.778C222.623 600.058 223.172 600.402 223.668 600.811C224.172 601.219 224.576 601.719 224.881 602.312C225.185 602.896 225.337 603.604 225.337 604.437C225.337 605.47 225.097 606.346 224.616 607.067C224.136 607.787 223.48 608.34 222.647 608.724C221.815 609.1 220.87 609.288 219.813 609.288ZM228.354 612.122C228.538 611.85 228.79 611.43 229.111 610.861C229.431 610.301 229.751 609.6 230.071 608.76C230.4 607.911 230.676 606.939 230.9 605.842C231.124 604.737 231.236 603.516 231.236 602.179C231.236 600.851 231.116 599.622 230.876 598.493C230.644 597.356 230.352 596.344 229.999 595.455C229.647 594.566 229.295 593.822 228.943 593.221C228.598 592.613 228.314 592.173 228.09 591.901H230.107C230.644 592.541 231.156 593.346 231.644 594.314C232.133 595.283 232.529 596.424 232.833 597.736C233.145 599.041 233.301 600.522 233.301 602.179C233.301 603.837 233.157 605.294 232.869 606.55C232.589 607.799 232.225 608.88 231.776 609.793C231.328 610.705 230.86 611.482 230.372 612.122H228.354Z" fill="black"/>
<path d="M495.638 566.288C494.125 566.288 493 565.84 492.264 564.943C491.535 564.047 491.171 562.67 491.171 560.813V553.728H493.26V561.125C493.26 562.165 493.489 562.962 493.945 563.514C494.401 564.067 495.054 564.343 495.902 564.343C496.839 564.343 497.543 564.075 498.016 563.538C498.496 563.002 498.736 562.213 498.736 561.173V553.728H500.825V566H498.736V564.823C498.344 565.328 497.9 565.7 497.403 565.94C496.915 566.172 496.326 566.288 495.638 566.288ZM508.45 566.288C507.585 566.288 506.753 566.104 505.952 565.736C505.16 565.36 504.511 564.855 504.007 564.223L505.496 562.95C505.928 563.414 506.409 563.775 506.937 564.031C507.465 564.287 507.986 564.415 508.498 564.415C509.219 564.415 509.779 564.279 510.179 564.007C510.579 563.726 510.78 563.342 510.78 562.854C510.78 562.534 510.688 562.245 510.503 561.989C510.327 561.733 510.031 561.489 509.615 561.257C509.207 561.025 508.658 560.781 507.97 560.524C506.617 560.02 505.644 559.472 505.052 558.879C504.467 558.287 504.175 557.554 504.175 556.682C504.175 555.721 504.555 554.941 505.316 554.34C506.084 553.74 507.081 553.44 508.306 553.44C509.146 553.44 509.919 553.6 510.623 553.92C511.328 554.232 511.932 554.688 512.437 555.289L510.996 556.49C510.259 555.705 509.355 555.313 508.282 555.313C507.649 555.313 507.149 555.437 506.781 555.685C506.421 555.925 506.241 556.257 506.241 556.682C506.241 557.09 506.445 557.45 506.853 557.762C507.269 558.067 508.018 558.419 509.098 558.819C509.979 559.139 510.692 559.488 511.236 559.864C511.788 560.24 512.189 560.668 512.437 561.149C512.693 561.629 512.821 562.181 512.821 562.806C512.821 563.887 512.433 564.739 511.656 565.364C510.88 565.98 509.811 566.288 508.45 566.288ZM520.578 566.288C519.457 566.288 518.488 566.012 517.672 565.46C516.855 564.907 516.227 564.147 515.787 563.178C515.346 562.209 515.126 561.101 515.126 559.852C515.126 558.499 515.354 557.346 515.811 556.394C516.267 555.433 516.903 554.7 517.72 554.196C518.536 553.692 519.489 553.44 520.578 553.44C521.498 553.44 522.343 553.648 523.111 554.064C523.88 554.472 524.492 555.109 524.949 555.973C525.413 556.83 525.645 557.931 525.645 559.276C525.645 559.468 525.637 559.692 525.621 559.948C525.613 560.196 525.597 560.452 525.573 560.716H517.264C517.344 561.461 517.528 562.113 517.816 562.674C518.104 563.234 518.484 563.674 518.957 563.995C519.429 564.307 519.985 564.463 520.626 564.463C521.146 564.463 521.626 564.371 522.067 564.187C522.515 564.003 522.931 563.718 523.316 563.334L524.54 564.703C524.084 565.159 523.516 565.54 522.835 565.844C522.163 566.14 521.41 566.288 520.578 566.288ZM517.24 558.891H523.532C523.532 558.195 523.416 557.574 523.183 557.03C522.959 556.478 522.627 556.045 522.187 555.733C521.747 555.421 521.21 555.265 520.578 555.265C519.689 555.265 518.925 555.553 518.284 556.129C517.652 556.706 517.304 557.626 517.24 558.891ZM529.004 566V553.728H531.093V555.337C531.373 554.712 531.758 554.24 532.246 553.92C532.742 553.6 533.327 553.44 533.999 553.44C534.744 553.44 535.376 553.648 535.896 554.064L535.584 556.033C535.32 555.849 535.044 555.717 534.756 555.637C534.475 555.549 534.167 555.505 533.831 555.505C533.279 555.505 532.798 555.653 532.39 555.949C531.982 556.245 531.662 556.662 531.429 557.198C531.205 557.734 531.093 558.363 531.093 559.083V566H529.004ZM543.678 566C543.678 564.895 543.834 563.923 544.147 563.082C544.467 562.233 544.891 561.489 545.419 560.849C545.956 560.2 546.556 559.628 547.221 559.131C547.885 558.635 548.561 558.187 549.25 557.787C549.85 557.434 550.411 557.066 550.931 556.682C551.451 556.29 551.872 555.853 552.192 555.373C552.52 554.893 552.684 554.336 552.684 553.704C552.684 552.895 552.388 552.219 551.796 551.674C551.203 551.122 550.403 550.846 549.394 550.846C548.361 550.846 547.565 551.074 547.004 551.53C546.452 551.979 546.056 552.575 545.816 553.32L543.942 552.479C544.271 551.446 544.923 550.594 545.9 549.921C546.884 549.241 548.073 548.901 549.466 548.901C550.587 548.901 551.547 549.105 552.348 549.513C553.157 549.921 553.773 550.49 554.197 551.218C554.63 551.947 554.846 552.791 554.846 553.752C554.846 554.736 554.63 555.573 554.197 556.261C553.765 556.942 553.193 557.542 552.48 558.063C551.776 558.583 551.011 559.083 550.187 559.564C549.498 559.964 548.87 560.38 548.301 560.813C547.733 561.237 547.257 561.705 546.872 562.217C546.488 562.73 546.232 563.31 546.104 563.959H554.99V566H543.678ZM502.416 596V579.189H508.853C510.214 579.189 511.29 579.437 512.083 579.933C512.875 580.422 513.44 581.054 513.776 581.831C514.112 582.599 514.28 583.4 514.28 584.232C514.28 584.809 514.18 585.393 513.98 585.985C513.788 586.57 513.476 587.11 513.043 587.606C512.611 588.103 512.051 588.503 511.362 588.807C510.674 589.103 509.837 589.251 508.853 589.251H504.506V596H502.416ZM504.506 587.306H508.997C509.789 587.306 510.418 587.15 510.882 586.838C511.354 586.526 511.691 586.133 511.891 585.661C512.091 585.189 512.191 584.712 512.191 584.232C512.191 583.792 512.099 583.332 511.915 582.851C511.739 582.371 511.418 581.967 510.954 581.638C510.49 581.302 509.837 581.134 508.997 581.134H504.506V587.306ZM517.544 596V579.189H522.131C523.572 579.189 524.789 579.429 525.781 579.909C526.782 580.39 527.586 581.034 528.195 581.843C528.803 582.643 529.243 583.544 529.516 584.544C529.796 585.537 529.936 586.554 529.936 587.594C529.936 588.563 529.808 589.54 529.552 590.524C529.296 591.509 528.867 592.418 528.267 593.25C527.674 594.075 526.87 594.739 525.853 595.243C524.837 595.748 523.564 596 522.035 596H517.544ZM519.633 594.055H522.299C523.348 594.055 524.22 593.867 524.917 593.49C525.621 593.106 526.181 592.602 526.598 591.977C527.022 591.345 527.322 590.648 527.498 589.888C527.682 589.119 527.775 588.355 527.775 587.594C527.775 586.778 527.674 585.985 527.474 585.217C527.282 584.44 526.974 583.744 526.55 583.127C526.133 582.511 525.597 582.023 524.941 581.662C524.284 581.294 523.492 581.11 522.563 581.11H519.633V594.055ZM538.813 596.288C537.837 596.288 536.952 596.128 536.159 595.808C535.367 595.48 534.695 595.035 534.142 594.475C533.598 593.907 533.202 593.262 532.953 592.542L534.923 591.821C535.259 592.566 535.767 593.17 536.448 593.634C537.136 594.091 537.941 594.319 538.861 594.319C539.87 594.319 540.675 594.079 541.275 593.598C541.875 593.11 542.176 592.406 542.176 591.485C542.176 590.837 541.995 590.292 541.635 589.852C541.275 589.412 540.807 589.043 540.23 588.747C539.654 588.443 539.037 588.171 538.381 587.931C537.797 587.714 537.212 587.474 536.628 587.21C536.043 586.946 535.511 586.634 535.031 586.273C534.558 585.905 534.178 585.461 533.89 584.941C533.602 584.412 533.458 583.784 533.458 583.055C533.458 582.303 533.662 581.614 534.07 580.99C534.478 580.358 535.067 579.853 535.835 579.477C536.604 579.093 537.532 578.901 538.621 578.901C539.51 578.901 540.29 579.033 540.963 579.297C541.643 579.553 542.2 579.909 542.632 580.366C543.072 580.814 543.376 581.326 543.544 581.903L541.623 582.551C541.423 582.079 541.055 581.678 540.518 581.35C539.99 581.014 539.31 580.846 538.477 580.846C537.588 580.846 536.888 581.042 536.376 581.434C535.871 581.827 535.619 582.367 535.619 583.055C535.619 583.576 535.787 584.012 536.123 584.364C536.468 584.708 536.916 585.009 537.468 585.265C538.021 585.521 538.613 585.769 539.246 586.009C539.838 586.233 540.43 586.49 541.023 586.778C541.623 587.058 542.172 587.402 542.668 587.811C543.172 588.219 543.576 588.719 543.881 589.312C544.185 589.896 544.337 590.604 544.337 591.437C544.337 592.47 544.097 593.346 543.616 594.067C543.136 594.787 542.48 595.34 541.647 595.724C540.815 596.1 539.87 596.288 538.813 596.288Z" fill="black"/>
<path d="M819.767 566.288C818.254 566.288 817.129 565.84 816.393 564.943C815.664 564.047 815.3 562.67 815.3 560.813V553.728H817.389V561.125C817.389 562.165 817.618 562.962 818.074 563.514C818.53 564.067 819.183 564.343 820.031 564.343C820.968 564.343 821.672 564.075 822.145 563.538C822.625 563.002 822.865 562.213 822.865 561.173V553.728H824.954V566H822.865V564.823C822.473 565.328 822.029 565.7 821.532 565.94C821.044 566.172 820.455 566.288 819.767 566.288ZM832.579 566.288C831.714 566.288 830.882 566.104 830.081 565.736C829.289 565.36 828.64 564.855 828.136 564.223L829.625 562.95C830.057 563.414 830.538 563.775 831.066 564.031C831.594 564.287 832.115 564.415 832.627 564.415C833.348 564.415 833.908 564.279 834.308 564.007C834.708 563.726 834.909 563.342 834.909 562.854C834.909 562.534 834.817 562.245 834.632 561.989C834.456 561.733 834.16 561.489 833.744 561.257C833.336 561.025 832.787 560.781 832.099 560.524C830.746 560.02 829.773 559.472 829.181 558.879C828.596 558.287 828.304 557.554 828.304 556.682C828.304 555.721 828.684 554.941 829.445 554.34C830.213 553.74 831.21 553.44 832.435 553.44C833.275 553.44 834.048 553.6 834.752 553.92C835.457 554.232 836.061 554.688 836.566 555.289L835.125 556.49C834.388 555.705 833.484 555.313 832.411 555.313C831.778 555.313 831.278 555.437 830.91 555.685C830.55 555.925 830.37 556.257 830.37 556.682C830.37 557.09 830.574 557.45 830.982 557.762C831.398 558.067 832.147 558.419 833.227 558.819C834.108 559.139 834.821 559.488 835.365 559.864C835.917 560.24 836.318 560.668 836.566 561.149C836.822 561.629 836.95 562.181 836.95 562.806C836.95 563.887 836.562 564.739 835.785 565.364C835.009 565.98 833.94 566.288 832.579 566.288ZM844.707 566.288C843.586 566.288 842.617 566.012 841.801 565.46C840.984 564.907 840.356 564.147 839.916 563.178C839.475 562.209 839.255 561.101 839.255 559.852C839.255 558.499 839.483 557.346 839.94 556.394C840.396 555.433 841.032 554.7 841.849 554.196C842.665 553.692 843.618 553.44 844.707 553.44C845.627 553.44 846.472 553.648 847.24 554.064C848.009 554.472 848.621 555.109 849.078 555.973C849.542 556.83 849.774 557.931 849.774 559.276C849.774 559.468 849.766 559.692 849.75 559.948C849.742 560.196 849.726 560.452 849.702 560.716H841.393C841.473 561.461 841.657 562.113 841.945 562.674C842.233 563.234 842.613 563.674 843.086 563.995C843.558 564.307 844.114 564.463 844.755 564.463C845.275 564.463 845.755 564.371 846.196 564.187C846.644 564.003 847.06 563.718 847.445 563.334L848.669 564.703C848.213 565.159 847.645 565.54 846.964 565.844C846.292 566.14 845.539 566.288 844.707 566.288ZM841.369 558.891H847.661C847.661 558.195 847.545 557.574 847.312 557.03C847.088 556.478 846.756 556.045 846.316 555.733C845.876 555.421 845.339 555.265 844.707 555.265C843.818 555.265 843.054 555.553 842.413 556.129C841.781 556.706 841.433 557.626 841.369 558.891ZM853.133 566V553.728H855.222V555.337C855.502 554.712 855.887 554.24 856.375 553.92C856.871 553.6 857.456 553.44 858.128 553.44C858.873 553.44 859.505 553.648 860.025 554.064L859.713 556.033C859.449 555.849 859.173 555.717 858.885 555.637C858.604 555.549 858.296 555.505 857.96 555.505C857.408 555.505 856.927 555.653 856.519 555.949C856.111 556.245 855.791 556.662 855.558 557.198C855.334 557.734 855.222 558.363 855.222 559.083V566H853.133ZM873.115 566.288C871.714 566.288 870.529 565.956 869.56 565.292C868.6 564.627 867.871 563.654 867.375 562.374L869.32 561.581C870.057 563.39 871.322 564.295 873.115 564.295C874.235 564.295 875.116 564.027 875.757 563.49C876.397 562.946 876.717 562.213 876.717 561.293C876.717 560.332 876.409 559.584 875.793 559.047C875.184 558.511 874.332 558.243 873.235 558.243H872.034V556.273H873.115C874.003 556.273 874.716 556.029 875.252 555.541C875.797 555.045 876.069 554.4 876.069 553.608C876.069 552.775 875.805 552.111 875.276 551.614C874.748 551.118 874.051 550.87 873.187 550.87C872.458 550.87 871.802 551.062 871.217 551.446C870.641 551.831 870.185 552.391 869.849 553.127L867.903 552.383C868.328 551.286 869.004 550.434 869.933 549.825C870.869 549.209 871.954 548.901 873.187 548.901C874.163 548.901 875.032 549.097 875.793 549.489C876.561 549.873 877.161 550.402 877.594 551.074C878.034 551.746 878.254 552.511 878.254 553.368C878.254 554.144 878.062 554.861 877.678 555.517C877.294 556.165 876.765 556.666 876.093 557.018C876.997 557.378 877.69 557.923 878.17 558.651C878.658 559.38 878.903 560.236 878.903 561.221C878.903 562.205 878.654 563.078 878.158 563.839C877.67 564.599 876.989 565.199 876.117 565.64C875.244 566.072 874.244 566.288 873.115 566.288ZM826.416 596V579.189H832.853C834.214 579.189 835.29 579.437 836.083 579.933C836.875 580.422 837.44 581.054 837.776 581.831C838.112 582.599 838.28 583.4 838.28 584.232C838.28 584.809 838.18 585.393 837.98 585.985C837.788 586.57 837.476 587.11 837.043 587.606C836.611 588.103 836.051 588.503 835.362 588.807C834.674 589.103 833.837 589.251 832.853 589.251H828.506V596H826.416ZM828.506 587.306H832.997C833.789 587.306 834.418 587.15 834.882 586.838C835.354 586.526 835.691 586.133 835.891 585.661C836.091 585.189 836.191 584.712 836.191 584.232C836.191 583.792 836.099 583.332 835.915 582.851C835.739 582.371 835.418 581.967 834.954 581.638C834.49 581.302 833.837 581.134 832.997 581.134H828.506V587.306ZM841.544 596V579.189H846.131C847.572 579.189 848.789 579.429 849.781 579.909C850.782 580.39 851.586 581.034 852.195 581.843C852.803 582.643 853.243 583.544 853.516 584.544C853.796 585.537 853.936 586.554 853.936 587.594C853.936 588.563 853.808 589.54 853.552 590.524C853.296 591.509 852.867 592.418 852.267 593.25C851.674 594.075 850.87 594.739 849.853 595.243C848.837 595.748 847.564 596 846.035 596H841.544ZM843.633 594.055H846.299C847.348 594.055 848.22 593.867 848.917 593.49C849.621 593.106 850.181 592.602 850.598 591.977C851.022 591.345 851.322 590.648 851.498 589.888C851.682 589.119 851.775 588.355 851.775 587.594C851.775 586.778 851.674 585.985 851.474 585.217C851.282 584.44 850.974 583.744 850.55 583.127C850.133 582.511 849.597 582.023 848.941 581.662C848.284 581.294 847.492 581.11 846.563 581.11H843.633V594.055ZM862.813 596.288C861.837 596.288 860.952 596.128 860.159 595.808C859.367 595.48 858.695 595.035 858.142 594.475C857.598 593.907 857.202 593.262 856.953 592.542L858.923 591.821C859.259 592.566 859.767 593.17 860.448 593.634C861.136 594.091 861.941 594.319 862.861 594.319C863.87 594.319 864.675 594.079 865.275 593.598C865.875 593.11 866.176 592.406 866.176 591.485C866.176 590.837 865.995 590.292 865.635 589.852C865.275 589.412 864.807 589.043 864.23 588.747C863.654 588.443 863.037 588.171 862.381 587.931C861.797 587.714 861.212 587.474 860.628 587.21C860.043 586.946 859.511 586.634 859.031 586.273C858.558 585.905 858.178 585.461 857.89 584.941C857.602 584.412 857.458 583.784 857.458 583.055C857.458 582.303 857.662 581.614 858.07 580.99C858.478 580.358 859.067 579.853 859.835 579.477C860.604 579.093 861.532 578.901 862.621 578.901C863.51 578.901 864.29 579.033 864.963 579.297C865.643 579.553 866.2 579.909 866.632 580.366C867.072 580.814 867.376 581.326 867.544 581.903L865.623 582.551C865.423 582.079 865.055 581.678 864.518 581.35C863.99 581.014 863.31 580.846 862.477 580.846C861.588 580.846 860.888 581.042 860.376 581.434C859.871 581.827 859.619 582.367 859.619 583.055C859.619 583.576 859.787 584.012 860.123 584.364C860.468 584.708 860.916 585.009 861.468 585.265C862.021 585.521 862.613 585.769 863.246 586.009C863.838 586.233 864.43 586.49 865.023 586.778C865.623 587.058 866.172 587.402 866.668 587.811C867.172 588.219 867.576 588.719 867.881 589.312C868.185 589.896 868.337 590.604 868.337 591.437C868.337 592.47 868.097 593.346 867.616 594.067C867.136 594.787 866.48 595.34 865.647 595.724C864.815 596.1 863.87 596.288 862.813 596.288Z" fill="black"/>
<defs>
<clipPath id="clip0_418_95">
<rect width="1369" height="734" fill="white"/>
</clipPath>
</defs>
</svg>
