<svg width="1068" height="297" viewBox="0 0 1068 297" fill="none" xmlns="http://www.w3.org/2000/svg">
<path d="M101.275 161L107.475 143.5H109.5L115.7 161H113.475L111.975 156.725H105.025L103.55 161H101.275ZM105.675 154.8H111.3L109.05 148.325C108.992 148.158 108.925 147.967 108.85 147.75C108.783 147.525 108.717 147.308 108.65 147.1C108.583 146.883 108.533 146.7 108.5 146.55C108.458 146.7 108.404 146.883 108.338 147.1C108.279 147.308 108.213 147.525 108.138 147.75C108.071 147.967 108.008 148.158 107.95 148.325L105.675 154.8ZM118.929 161V143.5H121.104V161H118.929Z" fill="black"/>
<path d="M791.622 48.204C790.551 48.204 789.755 47.8867 789.233 47.252C788.718 46.6173 788.46 45.6427 788.46 44.328V39.313H789.939V44.549C789.939 45.2857 790.1 45.8495 790.423 46.2405C790.746 46.6315 791.208 46.827 791.809 46.827C792.472 46.827 792.97 46.6372 793.305 46.2575C793.645 45.8778 793.815 45.3197 793.815 44.583V39.313H795.294V48H793.815V47.167C793.537 47.524 793.223 47.7875 792.871 47.9575C792.526 48.1218 792.109 48.204 791.622 48.204ZM800.691 48.204C800.079 48.204 799.49 48.0737 798.923 47.813C798.362 47.5467 797.903 47.1897 797.546 46.742L798.6 45.841C798.906 46.1697 799.246 46.4247 799.62 46.606C799.994 46.7873 800.362 46.878 800.725 46.878C801.235 46.878 801.632 46.7817 801.915 46.589C802.198 46.3907 802.34 46.1187 802.34 45.773C802.34 45.5463 802.275 45.3423 802.144 45.161C802.02 44.9797 801.81 44.8068 801.515 44.6425C801.226 44.4782 800.838 44.3053 800.351 44.124C799.393 43.767 798.705 43.3788 798.285 42.9595C797.872 42.5402 797.665 42.0217 797.665 41.404C797.665 40.724 797.934 40.1715 798.472 39.7465C799.016 39.3215 799.722 39.109 800.589 39.109C801.184 39.109 801.731 39.2223 802.229 39.449C802.728 39.67 803.156 39.993 803.513 40.418L802.493 41.268C801.972 40.7127 801.331 40.435 800.572 40.435C800.124 40.435 799.77 40.5228 799.509 40.6985C799.254 40.8685 799.127 41.1037 799.127 41.404C799.127 41.693 799.271 41.948 799.56 42.169C799.855 42.3843 800.385 42.6337 801.15 42.917C801.773 43.1437 802.278 43.3902 802.663 43.6565C803.054 43.9228 803.337 44.226 803.513 44.566C803.694 44.906 803.785 45.297 803.785 45.739C803.785 46.504 803.51 47.1075 802.96 47.5495C802.411 47.9858 801.654 48.204 800.691 48.204ZM809.276 48.204C808.482 48.204 807.797 48.0085 807.219 47.6175C806.641 47.2265 806.196 46.6882 805.884 46.0025C805.572 45.3168 805.417 44.532 805.417 43.648C805.417 42.6903 805.578 41.8743 805.901 41.2C806.224 40.52 806.675 40.0015 807.253 39.6445C807.831 39.2875 808.505 39.109 809.276 39.109C809.927 39.109 810.525 39.2563 811.069 39.551C811.613 39.84 812.047 40.2905 812.37 40.9025C812.698 41.5088 812.863 42.288 812.863 43.24C812.863 43.376 812.857 43.5347 812.846 43.716C812.84 43.8917 812.829 44.073 812.812 44.26H806.93C806.986 44.787 807.117 45.2488 807.321 45.6455C807.525 46.0422 807.794 46.3538 808.128 46.5805C808.462 46.8015 808.856 46.912 809.31 46.912C809.678 46.912 810.018 46.8468 810.33 46.7165C810.647 46.5862 810.942 46.385 811.214 46.113L812.081 47.082C811.758 47.405 811.355 47.6742 810.874 47.8895C810.398 48.0992 809.865 48.204 809.276 48.204ZM806.913 42.968H811.367C811.367 42.475 811.284 42.0358 811.12 41.6505C810.961 41.2595 810.726 40.9535 810.415 40.7325C810.103 40.5115 809.723 40.401 809.276 40.401C808.647 40.401 808.105 40.605 807.652 41.013C807.204 41.421 806.958 42.0727 806.913 42.968ZM815.24 48V39.313H816.719V40.452C816.917 40.01 817.189 39.6757 817.535 39.449C817.886 39.2223 818.3 39.109 818.776 39.109C819.303 39.109 819.751 39.2563 820.119 39.551L819.898 40.945C819.711 40.8147 819.516 40.7212 819.312 40.6645C819.113 40.6022 818.895 40.571 818.657 40.571C818.266 40.571 817.926 40.6758 817.637 40.8855C817.348 41.0952 817.121 41.3898 816.957 41.7695C816.798 42.1492 816.719 42.594 816.719 43.104V48H815.24ZM827.107 48V38.514H825.118V37.511C825.509 37.511 825.863 37.4685 826.18 37.3835C826.497 37.2928 826.769 37.1455 826.996 36.9415C827.223 36.7375 827.396 36.457 827.515 36.1H828.586V48H827.107ZM836.446 48V36.1H841.002C841.966 36.1 842.728 36.2757 843.289 36.627C843.85 36.9727 844.249 37.4203 844.487 37.97C844.725 38.514 844.844 39.0807 844.844 39.67C844.844 40.078 844.773 40.4917 844.632 40.911C844.496 41.3247 844.275 41.7072 843.969 42.0585C843.663 42.4098 843.266 42.6932 842.779 42.9085C842.291 43.1182 841.699 43.223 841.002 43.223H837.925V48H836.446ZM837.925 41.846H841.104C841.665 41.846 842.11 41.7355 842.439 41.5145C842.773 41.2935 843.011 41.0158 843.153 40.6815C843.294 40.3472 843.365 40.01 843.365 39.67C843.365 39.3583 843.3 39.0325 843.17 38.6925C843.045 38.3525 842.818 38.0663 842.49 37.834C842.161 37.596 841.699 37.477 841.104 37.477H837.925V41.846ZM850.298 48.204C849.505 48.204 848.819 48.0085 848.241 47.6175C847.663 47.2265 847.218 46.6882 846.907 46.0025C846.595 45.3168 846.439 44.532 846.439 43.648C846.439 42.6903 846.601 41.8743 846.924 41.2C847.247 40.52 847.697 40.0015 848.275 39.6445C848.853 39.2875 849.527 39.109 850.298 39.109C850.95 39.109 851.548 39.2563 852.092 39.551C852.636 39.84 853.069 40.2905 853.392 40.9025C853.721 41.5088 853.885 42.288 853.885 43.24C853.885 43.376 853.879 43.5347 853.868 43.716C853.862 43.8917 853.851 44.073 853.834 44.26H847.952C848.009 44.787 848.139 45.2488 848.343 45.6455C848.547 46.0422 848.816 46.3538 849.151 46.5805C849.485 46.8015 849.879 46.912 850.332 46.912C850.7 46.912 851.04 46.8468 851.352 46.7165C851.669 46.5862 851.964 46.385 852.236 46.113L853.103 47.082C852.78 47.405 852.378 47.6742 851.896 47.8895C851.42 48.0992 850.887 48.204 850.298 48.204ZM847.935 42.968H852.389C852.389 42.475 852.307 42.0358 852.143 41.6505C851.984 41.2595 851.749 40.9535 851.437 40.7325C851.125 40.5115 850.746 40.401 850.298 40.401C849.669 40.401 849.128 40.605 848.675 41.013C848.227 41.421 847.98 42.0727 847.935 42.968ZM856.263 48V39.313H857.742V40.452C857.94 40.01 858.212 39.6757 858.558 39.449C858.909 39.2223 859.323 39.109 859.799 39.109C860.326 39.109 860.773 39.2563 861.142 39.551L860.921 40.945C860.734 40.8147 860.538 40.7212 860.334 40.6645C860.136 40.6022 859.918 40.571 859.68 40.571C859.289 40.571 858.949 40.6758 858.66 40.8855C858.371 41.0952 858.144 41.3898 857.98 41.7695C857.821 42.1492 857.742 42.594 857.742 43.104V48H856.263ZM865.271 48.204C864.659 48.204 864.07 48.0737 863.503 47.813C862.942 47.5467 862.483 47.1897 862.126 46.742L863.18 45.841C863.486 46.1697 863.826 46.4247 864.2 46.606C864.574 46.7873 864.942 46.878 865.305 46.878C865.815 46.878 866.212 46.7817 866.495 46.589C866.778 46.3907 866.92 46.1187 866.92 45.773C866.92 45.5463 866.855 45.3423 866.724 45.161C866.6 44.9797 866.39 44.8068 866.095 44.6425C865.806 44.4782 865.418 44.3053 864.931 44.124C863.973 43.767 863.285 43.3788 862.865 42.9595C862.452 42.5402 862.245 42.0217 862.245 41.404C862.245 40.724 862.514 40.1715 863.052 39.7465C863.596 39.3215 864.302 39.109 865.169 39.109C865.764 39.109 866.311 39.2223 866.809 39.449C867.308 39.67 867.736 39.993 868.093 40.418L867.073 41.268C866.552 40.7127 865.911 40.435 865.152 40.435C864.704 40.435 864.35 40.5228 864.089 40.6985C863.834 40.8685 863.707 41.1037 863.707 41.404C863.707 41.693 863.851 41.948 864.14 42.169C864.435 42.3843 864.965 42.6337 865.73 42.917C866.353 43.1437 866.858 43.3902 867.243 43.6565C867.634 43.9228 867.917 44.226 868.093 44.566C868.274 44.906 868.365 45.297 868.365 45.739C868.365 46.504 868.09 47.1075 867.54 47.5495C866.991 47.9858 866.234 48.204 865.271 48.204ZM873.839 48.204C872.649 48.204 871.711 47.7988 871.025 46.9885C870.34 46.1725 869.997 45.0647 869.997 43.665C869.997 42.73 870.153 41.9225 870.464 41.2425C870.776 40.5625 871.218 40.0383 871.79 39.67C872.368 39.296 873.051 39.109 873.839 39.109C874.632 39.109 875.315 39.2932 875.887 39.6615C876.465 40.0242 876.907 40.5455 877.213 41.2255C877.525 41.9055 877.681 42.713 877.681 43.648C877.681 44.583 877.525 45.3933 877.213 46.079C876.902 46.759 876.457 47.2832 875.879 47.6515C875.306 48.0198 874.626 48.204 873.839 48.204ZM873.839 46.827C874.57 46.827 875.142 46.5465 875.556 45.9855C875.975 45.4188 876.185 44.6397 876.185 43.648C876.185 42.6507 875.975 41.8715 875.556 41.3105C875.142 40.7495 874.57 40.469 873.839 40.469C873.102 40.469 872.527 40.7495 872.113 41.3105C871.7 41.8658 871.493 42.6507 871.493 43.665C871.493 44.6567 871.7 45.433 872.113 45.994C872.527 46.5493 873.102 46.827 873.839 46.827ZM879.903 48V39.313H881.382V40.197C881.649 39.8287 881.969 39.5567 882.343 39.381C882.717 39.1997 883.145 39.109 883.626 39.109C884.68 39.109 885.462 39.4292 885.972 40.0695C886.482 40.7042 886.737 41.6817 886.737 43.002V48H885.258V42.747C885.258 42.016 885.094 41.455 884.765 41.064C884.442 40.6673 883.983 40.469 883.388 40.469C882.725 40.469 882.224 40.6588 881.884 41.0385C881.549 41.4125 881.382 41.9707 881.382 42.713V48H879.903ZM892.081 48.204C891.141 48.204 890.401 47.9433 889.863 47.422C889.324 46.9007 889.055 46.1867 889.055 45.28C889.055 44.6963 889.188 44.1892 889.455 43.7585C889.721 43.3278 890.098 42.9963 890.585 42.764C891.073 42.526 891.645 42.407 892.302 42.407C892.727 42.407 893.124 42.4552 893.492 42.5515C893.866 42.6422 894.218 42.781 894.546 42.968V42.356C894.546 41.6817 894.393 41.1887 894.087 40.877C893.781 40.5597 893.305 40.401 892.659 40.401C892.246 40.401 891.815 40.4775 891.367 40.6305C890.925 40.7835 890.512 40.996 890.126 41.268L889.701 40.027C890.138 39.738 890.633 39.5142 891.189 39.3555C891.75 39.1912 892.302 39.109 892.846 39.109C893.878 39.109 894.651 39.3725 895.167 39.8995C895.682 40.4208 895.94 41.2 895.94 42.237V48H894.546V47.201C894.206 47.524 893.824 47.7733 893.399 47.949C892.974 48.119 892.535 48.204 892.081 48.204ZM892.302 46.912C892.705 46.912 893.101 46.8128 893.492 46.6145C893.889 46.4162 894.24 46.1357 894.546 45.773V44.277C894.257 44.0957 893.929 43.954 893.56 43.852C893.192 43.75 892.841 43.699 892.506 43.699C891.872 43.699 891.37 43.8435 891.002 44.1325C890.633 44.4158 890.449 44.804 890.449 45.297C890.449 45.7957 890.614 46.1895 890.942 46.4785C891.271 46.7675 891.724 46.912 892.302 46.912ZM898.599 48V36.423L900.078 35.726V48H898.599ZM907.219 48V36.1H910.466C911.486 36.1 912.347 36.27 913.05 36.61C913.758 36.95 914.328 37.4062 914.758 37.9785C915.189 38.5452 915.501 39.1827 915.693 39.891C915.892 40.5937 915.991 41.3133 915.991 42.05C915.991 42.7357 915.9 43.427 915.719 44.124C915.537 44.821 915.234 45.4642 914.809 46.0535C914.39 46.6372 913.82 47.1075 913.101 47.4645C912.381 47.8215 911.48 48 910.398 48H907.219ZM908.698 46.623H910.585C911.327 46.623 911.945 46.4898 912.438 46.2235C912.936 45.9515 913.333 45.5945 913.628 45.1525C913.928 44.7048 914.141 44.2118 914.265 43.6735C914.396 43.1295 914.461 42.5883 914.461 42.05C914.461 41.472 914.39 40.911 914.248 40.367C914.112 39.8173 913.894 39.3243 913.594 38.888C913.299 38.4517 912.919 38.106 912.455 37.851C911.99 37.5903 911.429 37.46 910.772 37.46H908.698V46.623ZM920.769 48.204C919.828 48.204 919.089 47.9433 918.55 47.422C918.012 46.9007 917.743 46.1867 917.743 45.28C917.743 44.6963 917.876 44.1892 918.142 43.7585C918.409 43.3278 918.785 42.9963 919.273 42.764C919.76 42.526 920.332 42.407 920.99 42.407C921.415 42.407 921.811 42.4552 922.18 42.5515C922.554 42.6422 922.905 42.781 923.234 42.968V42.356C923.234 41.6817 923.081 41.1887 922.775 40.877C922.469 40.5597 921.993 40.401 921.347 40.401C920.933 40.401 920.502 40.4775 920.055 40.6305C919.613 40.7835 919.199 40.996 918.814 41.268L918.389 40.027C918.825 39.738 919.321 39.5142 919.876 39.3555C920.437 39.1912 920.99 39.109 921.534 39.109C922.565 39.109 923.339 39.3725 923.854 39.8995C924.37 40.4208 924.628 41.2 924.628 42.237V48H923.234V47.201C922.894 47.524 922.511 47.7733 922.086 47.949C921.661 48.119 921.222 48.204 920.769 48.204ZM920.99 46.912C921.392 46.912 921.789 46.8128 922.18 46.6145C922.576 46.4162 922.928 46.1357 923.234 45.773V44.277C922.945 44.0957 922.616 43.954 922.248 43.852C921.879 43.75 921.528 43.699 921.194 43.699C920.559 43.699 920.058 43.8435 919.689 44.1325C919.321 44.4158 919.137 44.804 919.137 45.297C919.137 45.7957 919.301 46.1895 919.63 46.4785C919.958 46.7675 920.412 46.912 920.99 46.912ZM929.366 48.204C928.771 48.204 928.315 48.0255 927.998 47.6685C927.686 47.3115 927.53 46.7987 927.53 46.13V40.605H926.119V39.313H927.53V36.44L929.009 35.726V39.313H931.151V40.605H929.009V45.637C929.009 46.0507 929.08 46.3538 929.222 46.5465C929.369 46.7335 929.598 46.827 929.91 46.827C930.307 46.827 930.737 46.674 931.202 46.368L931.032 47.813C930.777 47.949 930.511 48.0482 930.233 48.1105C929.961 48.1728 929.672 48.204 929.366 48.204ZM935.727 48.204C934.786 48.204 934.047 47.9433 933.508 47.422C932.97 46.9007 932.701 46.1867 932.701 45.28C932.701 44.6963 932.834 44.1892 933.1 43.7585C933.367 43.3278 933.743 42.9963 934.231 42.764C934.718 42.526 935.29 42.407 935.948 42.407C936.373 42.407 936.769 42.4552 937.138 42.5515C937.512 42.6422 937.863 42.781 938.192 42.968V42.356C938.192 41.6817 938.039 41.1887 937.733 40.877C937.427 40.5597 936.951 40.401 936.305 40.401C935.891 40.401 935.46 40.4775 935.013 40.6305C934.571 40.7835 934.157 40.996 933.772 41.268L933.347 40.027C933.783 39.738 934.279 39.5142 934.834 39.3555C935.395 39.1912 935.948 39.109 936.492 39.109C937.523 39.109 938.297 39.3725 938.812 39.8995C939.328 40.4208 939.586 41.2 939.586 42.237V48H938.192V47.201C937.852 47.524 937.469 47.7733 937.044 47.949C936.619 48.119 936.18 48.204 935.727 48.204ZM935.948 46.912C936.35 46.912 936.747 46.8128 937.138 46.6145C937.534 46.4162 937.886 46.1357 938.192 45.773V44.277C937.903 44.0957 937.574 43.954 937.206 43.852C936.837 43.75 936.486 43.699 936.152 43.699C935.517 43.699 935.016 43.8435 934.647 44.1325C934.279 44.4158 934.095 44.804 934.095 45.297C934.095 45.7957 934.259 46.1895 934.588 46.4785C934.916 46.7675 935.37 46.912 935.948 46.912ZM949.883 48.204C949.192 48.204 948.566 48.0907 948.005 47.864C947.444 47.6317 946.968 47.3172 946.577 46.9205C946.191 46.5182 945.911 46.062 945.735 45.552L947.129 45.042C947.367 45.569 947.727 45.9968 948.209 46.3255C948.696 46.6485 949.265 46.81 949.917 46.81C950.631 46.81 951.201 46.64 951.626 46.3C952.051 45.9543 952.263 45.4557 952.263 44.804C952.263 44.345 952.136 43.9597 951.881 43.648C951.626 43.3363 951.294 43.0757 950.886 42.866C950.478 42.6507 950.042 42.458 949.577 42.288C949.163 42.135 948.75 41.965 948.336 41.778C947.922 41.591 947.546 41.37 947.206 41.115C946.871 40.8543 946.602 40.5398 946.398 40.1715C946.194 39.7975 946.092 39.3527 946.092 38.837C946.092 38.3043 946.237 37.817 946.526 37.375C946.815 36.9273 947.231 36.5703 947.775 36.304C948.319 36.032 948.976 35.896 949.747 35.896C950.376 35.896 950.929 35.9895 951.405 36.1765C951.886 36.3578 952.28 36.61 952.586 36.933C952.898 37.2503 953.113 37.613 953.232 38.021L951.872 38.48C951.73 38.1457 951.47 37.8623 951.09 37.63C950.716 37.392 950.234 37.273 949.645 37.273C949.016 37.273 948.52 37.4118 948.158 37.6895C947.801 37.9672 947.622 38.3497 947.622 38.837C947.622 39.2053 947.741 39.5142 947.979 39.7635C948.223 40.0072 948.54 40.2197 948.931 40.401C949.322 40.5823 949.741 40.758 950.189 40.928C950.608 41.0867 951.028 41.268 951.447 41.472C951.872 41.6703 952.26 41.914 952.612 42.203C952.969 42.492 953.255 42.8462 953.47 43.2655C953.685 43.6792 953.793 44.1807 953.793 44.77C953.793 45.501 953.623 46.1215 953.283 46.6315C952.943 47.1415 952.478 47.5325 951.889 47.8045C951.3 48.0708 950.631 48.204 949.883 48.204ZM958.585 48.204C957.99 48.204 957.534 48.0255 957.216 47.6685C956.905 47.3115 956.749 46.7987 956.749 46.13V40.605H955.338V39.313H956.749V36.44L958.228 35.726V39.313H960.37V40.605H958.228V45.637C958.228 46.0507 958.299 46.3538 958.44 46.5465C958.588 46.7335 958.817 46.827 959.129 46.827C959.525 46.827 959.956 46.674 960.421 46.368L960.251 47.813C959.996 47.949 959.729 48.0482 959.452 48.1105C959.18 48.1728 958.891 48.204 958.585 48.204ZM965.762 48.204C964.572 48.204 963.634 47.7988 962.948 46.9885C962.262 46.1725 961.92 45.0647 961.92 43.665C961.92 42.73 962.075 41.9225 962.387 41.2425C962.699 40.5625 963.141 40.0383 963.713 39.67C964.291 39.296 964.974 39.109 965.762 39.109C966.555 39.109 967.238 39.2932 967.81 39.6615C968.388 40.0242 968.83 40.5455 969.136 41.2255C969.448 41.9055 969.604 42.713 969.604 43.648C969.604 44.583 969.448 45.3933 969.136 46.079C968.824 46.759 968.38 47.2832 967.802 47.6515C967.229 48.0198 966.549 48.204 965.762 48.204ZM965.762 46.827C966.493 46.827 967.065 46.5465 967.479 45.9855C967.898 45.4188 968.108 44.6397 968.108 43.648C968.108 42.6507 967.898 41.8715 967.479 41.3105C967.065 40.7495 966.493 40.469 965.762 40.469C965.025 40.469 964.45 40.7495 964.036 41.3105C963.622 41.8658 963.416 42.6507 963.416 43.665C963.416 44.6567 963.622 45.433 964.036 45.994C964.45 46.5493 965.025 46.827 965.762 46.827ZM971.826 48V39.313H973.305V40.452C973.503 40.01 973.775 39.6757 974.121 39.449C974.472 39.2223 974.886 39.109 975.362 39.109C975.889 39.109 976.337 39.2563 976.705 39.551L976.484 40.945C976.297 40.8147 976.102 40.7212 975.898 40.6645C975.699 40.6022 975.481 40.571 975.243 40.571C974.852 40.571 974.512 40.6758 974.223 40.8855C973.934 41.0952 973.707 41.3898 973.543 41.7695C973.384 42.1492 973.305 42.594 973.305 43.104V48H971.826ZM981.351 48.204C980.557 48.204 979.872 48.0085 979.294 47.6175C978.716 47.2265 978.271 46.6882 977.959 46.0025C977.648 45.3168 977.492 44.532 977.492 43.648C977.492 42.6903 977.653 41.8743 977.976 41.2C978.299 40.52 978.75 40.0015 979.328 39.6445C979.906 39.2875 980.58 39.109 981.351 39.109C982.002 39.109 982.6 39.2563 983.144 39.551C983.688 39.84 984.122 40.2905 984.445 40.9025C984.773 41.5088 984.938 42.288 984.938 43.24C984.938 43.376 984.932 43.5347 984.921 43.716C984.915 43.8917 984.904 44.073 984.887 44.26H979.005C979.061 44.787 979.192 45.2488 979.396 45.6455C979.6 46.0422 979.869 46.3538 980.203 46.5805C980.538 46.8015 980.931 46.912 981.385 46.912C981.753 46.912 982.093 46.8468 982.405 46.7165C982.722 46.5862 983.017 46.385 983.289 46.113L984.156 47.082C983.833 47.405 983.43 47.6742 982.949 47.8895C982.473 48.0992 981.94 48.204 981.351 48.204ZM978.988 42.968H983.442C983.442 42.475 983.36 42.0358 983.195 41.6505C983.037 41.2595 982.801 40.9535 982.49 40.7325C982.178 40.5115 981.798 40.401 981.351 40.401C980.722 40.401 980.181 40.605 979.727 41.013C979.28 41.421 979.033 42.0727 978.988 42.968ZM993.139 50.21C992.794 49.7567 992.462 49.207 992.145 48.561C991.827 47.915 991.567 47.15 991.363 46.266C991.164 45.3763 991.065 44.345 991.065 43.172C991.065 41.999 991.173 40.9507 991.388 40.027C991.609 39.0977 991.893 38.2902 992.238 37.6045C992.584 36.9188 992.947 36.3493 993.326 35.896H994.754C994.596 36.0887 994.392 36.4003 994.142 36.831C993.899 37.256 993.652 37.783 993.403 38.412C993.153 39.041 992.944 39.7578 992.774 40.5625C992.609 41.3615 992.527 42.2313 992.527 43.172C992.527 44.1183 992.607 44.9825 992.765 45.7645C992.924 46.5408 993.117 47.2293 993.343 47.83C993.576 48.425 993.805 48.9208 994.032 49.3175C994.258 49.7198 994.437 50.0173 994.567 50.21H993.139ZM997.232 48V36.1H1001.79C1002.75 36.1 1003.51 36.2757 1004.07 36.627C1004.64 36.9727 1005.04 37.4203 1005.27 37.97C1005.51 38.514 1005.63 39.0807 1005.63 39.67C1005.63 40.078 1005.56 40.4917 1005.42 40.911C1005.28 41.3247 1005.06 41.7072 1004.75 42.0585C1004.45 42.4098 1004.05 42.6932 1003.56 42.9085C1003.08 43.1182 1002.49 43.223 1001.79 43.223H998.711V48H997.232ZM998.711 41.846H1001.89C1002.45 41.846 1002.9 41.7355 1003.22 41.5145C1003.56 41.2935 1003.8 41.0158 1003.94 40.6815C1004.08 40.3472 1004.15 40.01 1004.15 39.67C1004.15 39.3583 1004.09 39.0325 1003.96 38.6925C1003.83 38.3525 1003.6 38.0663 1003.28 37.834C1002.95 37.596 1002.49 37.477 1001.89 37.477H998.711V41.846ZM1007.94 48V36.1H1011.19C1012.21 36.1 1013.07 36.27 1013.77 36.61C1014.48 36.95 1015.05 37.4062 1015.48 37.9785C1015.91 38.5452 1016.22 39.1827 1016.41 39.891C1016.61 40.5937 1016.71 41.3133 1016.71 42.05C1016.71 42.7357 1016.62 43.427 1016.44 44.124C1016.26 44.821 1015.96 45.4642 1015.53 46.0535C1015.11 46.6372 1014.54 47.1075 1013.82 47.4645C1013.1 47.8215 1012.2 48 1011.12 48H1007.94ZM1009.42 46.623H1011.31C1012.05 46.623 1012.67 46.4898 1013.16 46.2235C1013.66 45.9515 1014.05 45.5945 1014.35 45.1525C1014.65 44.7048 1014.86 44.2118 1014.99 43.6735C1015.12 43.1295 1015.18 42.5883 1015.18 42.05C1015.18 41.472 1015.11 40.911 1014.97 40.367C1014.83 39.8173 1014.62 39.3243 1014.32 38.888C1014.02 38.4517 1013.64 38.106 1013.18 37.851C1012.71 37.5903 1012.15 37.46 1011.49 37.46H1009.42V46.623ZM1023 48.204C1022.3 48.204 1021.68 48.0907 1021.12 47.864C1020.56 47.6317 1020.08 47.3172 1019.69 46.9205C1019.3 46.5182 1019.02 46.062 1018.85 45.552L1020.24 45.042C1020.48 45.569 1020.84 45.9968 1021.32 46.3255C1021.81 46.6485 1022.38 46.81 1023.03 46.81C1023.74 46.81 1024.31 46.64 1024.74 46.3C1025.16 45.9543 1025.38 45.4557 1025.38 44.804C1025.38 44.345 1025.25 43.9597 1024.99 43.648C1024.74 43.3363 1024.41 43.0757 1024 42.866C1023.59 42.6507 1023.15 42.458 1022.69 42.288C1022.28 42.135 1021.86 41.965 1021.45 41.778C1021.04 41.591 1020.66 41.37 1020.32 41.115C1019.98 40.8543 1019.72 40.5398 1019.51 40.1715C1019.31 39.7975 1019.21 39.3527 1019.21 38.837C1019.21 38.3043 1019.35 37.817 1019.64 37.375C1019.93 36.9273 1020.34 36.5703 1020.89 36.304C1021.43 36.032 1022.09 35.896 1022.86 35.896C1023.49 35.896 1024.04 35.9895 1024.52 36.1765C1025 36.3578 1025.39 36.61 1025.7 36.933C1026.01 37.2503 1026.23 37.613 1026.35 38.021L1024.99 38.48C1024.84 38.1457 1024.58 37.8623 1024.2 37.63C1023.83 37.392 1023.35 37.273 1022.76 37.273C1022.13 37.273 1021.63 37.4118 1021.27 37.6895C1020.91 37.9672 1020.74 38.3497 1020.74 38.837C1020.74 39.2053 1020.85 39.5142 1021.09 39.7635C1021.34 40.0072 1021.65 40.2197 1022.04 40.401C1022.44 40.5823 1022.85 40.758 1023.3 40.928C1023.72 41.0867 1024.14 41.268 1024.56 41.472C1024.99 41.6703 1025.37 41.914 1025.72 42.203C1026.08 42.492 1026.37 42.8462 1026.58 43.2655C1026.8 43.6792 1026.91 44.1807 1026.91 44.77C1026.91 45.501 1026.74 46.1215 1026.4 46.6315C1026.06 47.1415 1025.59 47.5325 1025 47.8045C1024.41 48.0708 1023.74 48.204 1023 48.204ZM1029.04 50.21C1029.17 50.0173 1029.35 49.7198 1029.58 49.3175C1029.8 48.9208 1030.03 48.425 1030.26 47.83C1030.49 47.2293 1030.69 46.5408 1030.84 45.7645C1031 44.9825 1031.08 44.1183 1031.08 43.172C1031.08 42.2313 1031 41.3615 1030.83 40.5625C1030.66 39.7578 1030.46 39.041 1030.21 38.412C1029.96 37.783 1029.71 37.256 1029.46 36.831C1029.21 36.4003 1029.01 36.0887 1028.86 35.896H1030.28C1030.66 36.3493 1031.03 36.9188 1031.37 37.6045C1031.72 38.2902 1032 39.0977 1032.21 40.027C1032.43 40.9507 1032.54 41.999 1032.54 43.172C1032.54 44.345 1032.44 45.3763 1032.24 46.266C1032.04 47.15 1031.78 47.915 1031.46 48.561C1031.15 49.207 1030.82 49.7567 1030.47 50.21H1029.04Z" fill="black"/>
<path d="M872.895 154.204C871.824 154.204 871.028 153.887 870.506 153.252C869.991 152.617 869.733 151.643 869.733 150.328V145.313H871.212V150.549C871.212 151.286 871.373 151.849 871.696 152.24C872.019 152.631 872.481 152.827 873.082 152.827C873.745 152.827 874.243 152.637 874.578 152.257C874.918 151.878 875.088 151.32 875.088 150.583V145.313H876.567V154H875.088V153.167C874.81 153.524 874.496 153.787 874.144 153.957C873.799 154.122 873.382 154.204 872.895 154.204ZM881.964 154.204C881.352 154.204 880.763 154.074 880.196 153.813C879.635 153.547 879.176 153.19 878.819 152.742L879.873 151.841C880.179 152.17 880.519 152.425 880.893 152.606C881.267 152.787 881.635 152.878 881.998 152.878C882.508 152.878 882.905 152.782 883.188 152.589C883.471 152.391 883.613 152.119 883.613 151.773C883.613 151.546 883.548 151.342 883.417 151.161C883.293 150.98 883.083 150.807 882.788 150.642C882.499 150.478 882.111 150.305 881.624 150.124C880.666 149.767 879.978 149.379 879.558 148.959C879.145 148.54 878.938 148.022 878.938 147.404C878.938 146.724 879.207 146.171 879.745 145.746C880.289 145.321 880.995 145.109 881.862 145.109C882.457 145.109 883.004 145.222 883.502 145.449C884.001 145.67 884.429 145.993 884.786 146.418L883.766 147.268C883.245 146.713 882.604 146.435 881.845 146.435C881.397 146.435 881.043 146.523 880.782 146.698C880.527 146.868 880.4 147.104 880.4 147.404C880.4 147.693 880.544 147.948 880.833 148.169C881.128 148.384 881.658 148.634 882.423 148.917C883.046 149.144 883.551 149.39 883.936 149.656C884.327 149.923 884.61 150.226 884.786 150.566C884.967 150.906 885.058 151.297 885.058 151.739C885.058 152.504 884.783 153.107 884.233 153.549C883.684 153.986 882.927 154.204 881.964 154.204ZM890.549 154.204C889.755 154.204 889.07 154.008 888.492 153.617C887.914 153.226 887.469 152.688 887.157 152.002C886.845 151.317 886.69 150.532 886.69 149.648C886.69 148.69 886.851 147.874 887.174 147.2C887.497 146.52 887.948 146.001 888.526 145.644C889.104 145.287 889.778 145.109 890.549 145.109C891.2 145.109 891.798 145.256 892.342 145.551C892.886 145.84 893.32 146.29 893.643 146.902C893.971 147.509 894.136 148.288 894.136 149.24C894.136 149.376 894.13 149.535 894.119 149.716C894.113 149.892 894.102 150.073 894.085 150.26H888.203C888.259 150.787 888.39 151.249 888.594 151.645C888.798 152.042 889.067 152.354 889.401 152.58C889.735 152.801 890.129 152.912 890.583 152.912C890.951 152.912 891.291 152.847 891.603 152.716C891.92 152.586 892.215 152.385 892.487 152.113L893.354 153.082C893.031 153.405 892.628 153.674 892.147 153.889C891.671 154.099 891.138 154.204 890.549 154.204ZM888.186 148.968H892.64C892.64 148.475 892.557 148.036 892.393 147.65C892.234 147.259 891.999 146.953 891.688 146.732C891.376 146.511 890.996 146.401 890.549 146.401C889.92 146.401 889.378 146.605 888.925 147.013C888.477 147.421 888.231 148.073 888.186 148.968ZM896.513 154V145.313H897.992V146.452C898.19 146.01 898.462 145.676 898.808 145.449C899.159 145.222 899.573 145.109 900.049 145.109C900.576 145.109 901.024 145.256 901.392 145.551L901.171 146.945C900.984 146.815 900.789 146.721 900.585 146.664C900.386 146.602 900.168 146.571 899.93 146.571C899.539 146.571 899.199 146.676 898.91 146.885C898.621 147.095 898.394 147.39 898.23 147.769C898.071 148.149 897.992 148.594 897.992 149.104V154H896.513ZM906.9 154C906.9 153.218 907.011 152.529 907.232 151.934C907.459 151.334 907.759 150.807 908.133 150.353C908.513 149.894 908.938 149.489 909.408 149.138C909.878 148.787 910.357 148.469 910.844 148.186C911.269 147.937 911.666 147.676 912.034 147.404C912.403 147.126 912.7 146.817 912.927 146.477C913.159 146.137 913.275 145.744 913.275 145.296C913.275 144.724 913.066 144.245 912.646 143.859C912.227 143.468 911.66 143.273 910.946 143.273C910.215 143.273 909.652 143.434 909.255 143.757C908.864 144.075 908.583 144.497 908.413 145.024L907.087 144.429C907.32 143.698 907.782 143.094 908.473 142.618C909.17 142.137 910.011 141.896 910.997 141.896C911.791 141.896 912.471 142.04 913.037 142.329C913.61 142.618 914.046 143.021 914.346 143.536C914.652 144.052 914.805 144.65 914.805 145.33C914.805 146.027 914.652 146.619 914.346 147.106C914.04 147.588 913.635 148.013 913.131 148.381C912.632 148.75 912.091 149.104 911.507 149.444C911.02 149.727 910.575 150.022 910.173 150.328C909.771 150.628 909.433 150.96 909.161 151.322C908.889 151.685 908.708 152.096 908.617 152.555H914.907V154H906.9ZM921.787 154V142.1H926.343C927.306 142.1 928.068 142.276 928.629 142.627C929.19 142.973 929.59 143.42 929.828 143.97C930.066 144.514 930.185 145.081 930.185 145.67C930.185 146.078 930.114 146.492 929.972 146.911C929.836 147.325 929.615 147.707 929.309 148.058C929.003 148.41 928.606 148.693 928.119 148.908C927.632 149.118 927.04 149.223 926.343 149.223H923.266V154H921.787ZM923.266 147.846H926.445C927.006 147.846 927.45 147.735 927.779 147.514C928.113 147.293 928.351 147.016 928.493 146.681C928.635 146.347 928.706 146.01 928.706 145.67C928.706 145.358 928.64 145.032 928.51 144.692C928.385 144.352 928.159 144.066 927.83 143.834C927.501 143.596 927.04 143.477 926.445 143.477H923.266V147.846ZM932.495 154V142.1H935.742C936.762 142.1 937.623 142.27 938.326 142.61C939.034 142.95 939.603 143.406 940.034 143.978C940.465 144.545 940.776 145.183 940.969 145.891C941.167 146.594 941.267 147.313 941.267 148.05C941.267 148.736 941.176 149.427 940.995 150.124C940.813 150.821 940.51 151.464 940.085 152.053C939.666 152.637 939.096 153.107 938.377 153.464C937.657 153.821 936.756 154 935.674 154H932.495ZM933.974 152.623H935.861C936.603 152.623 937.221 152.49 937.714 152.223C938.212 151.951 938.609 151.594 938.904 151.152C939.204 150.705 939.416 150.212 939.541 149.673C939.671 149.129 939.737 148.588 939.737 148.05C939.737 147.472 939.666 146.911 939.524 146.367C939.388 145.817 939.17 145.324 938.87 144.888C938.575 144.452 938.195 144.106 937.731 143.851C937.266 143.59 936.705 143.46 936.048 143.46H933.974V152.623ZM947.551 154.204C946.859 154.204 946.233 154.091 945.672 153.864C945.111 153.632 944.635 153.317 944.244 152.92C943.859 152.518 943.578 152.062 943.403 151.552L944.797 151.042C945.035 151.569 945.394 151.997 945.876 152.325C946.363 152.648 946.933 152.81 947.585 152.81C948.299 152.81 948.868 152.64 949.293 152.3C949.718 151.954 949.931 151.456 949.931 150.804C949.931 150.345 949.803 149.96 949.548 149.648C949.293 149.336 948.962 149.076 948.554 148.866C948.146 148.651 947.709 148.458 947.245 148.288C946.831 148.135 946.417 147.965 946.004 147.778C945.59 147.591 945.213 147.37 944.873 147.115C944.539 146.854 944.27 146.54 944.066 146.171C943.862 145.797 943.76 145.353 943.76 144.837C943.76 144.304 943.904 143.817 944.193 143.375C944.482 142.927 944.899 142.57 945.443 142.304C945.987 142.032 946.644 141.896 947.415 141.896C948.044 141.896 948.596 141.989 949.072 142.176C949.554 142.358 949.948 142.61 950.254 142.933C950.565 143.25 950.781 143.613 950.9 144.021L949.54 144.48C949.398 144.146 949.137 143.862 948.758 143.63C948.384 143.392 947.902 143.273 947.313 143.273C946.684 143.273 946.188 143.412 945.825 143.689C945.468 143.967 945.29 144.35 945.29 144.837C945.29 145.205 945.409 145.514 945.647 145.763C945.89 146.007 946.208 146.22 946.599 146.401C946.99 146.582 947.409 146.758 947.857 146.928C948.276 147.087 948.695 147.268 949.115 147.472C949.54 147.67 949.928 147.914 950.279 148.203C950.636 148.492 950.922 148.846 951.138 149.265C951.353 149.679 951.461 150.181 951.461 150.77C951.461 151.501 951.291 152.121 950.951 152.631C950.611 153.141 950.146 153.532 949.557 153.804C948.967 154.071 948.299 154.204 947.551 154.204Z" fill="black"/>
<path d="M909.747 255.164V251.883H906.517V250.455H909.747V247.174H911.243V250.455H914.507V251.883H911.243V255.164H909.747Z" fill="black"/>
<path d="M222 155H345" stroke="#9FA8B2"/>
<path d="M642 148.5H710" stroke="#9FA8B2"/>
<path d="M711 148.5V34H758M711 148.5H758M711 148.5V262.5H758" stroke="#9FA8B2"/>
<path d="M779.689 16.9571C790.008 7.12461 804.01 2.12369 818.223 3.19379C832.436 4.2641 845.531 11.305 854.262 22.5718C860.791 11.9432 872.096 5.17 884.548 4.42614C897 3.68249 909.031 9.06172 916.779 18.8374C925.319 8.40406 938.241 2.55601 951.715 3.02635C965.19 3.49669 977.672 10.2312 985.464 21.2346C993.249 10.8357 1005.35 4.54886 1018.33 4.15413C1031.31 3.75941 1043.77 9.29981 1052.17 19.2066C1061.04 24.4519 1065.91 34.4993 1064.53 44.7113C1063.15 54.9236 1055.78 63.315 1045.84 66.0126C1037.38 77.1928 1024.31 83.9318 1010.3 84.3339C996.291 84.736 982.855 78.7572 973.775 68.0802C965.663 78.1097 953.468 83.9562 940.568 83.9999C927.669 84.0437 915.434 78.2802 907.254 68.306C899.386 78.3929 887.098 84.0167 874.321 83.3783C861.544 82.7399 849.878 75.9194 843.055 65.0983C835.011 76.6304 822.026 83.7244 807.976 84.2628C793.927 84.801 780.437 78.7211 771.535 67.838C760.651 62.8062 754.441 51.149 756.339 39.309C758.236 27.4688 767.777 18.3357 779.689 16.9571Z" stroke="#AE3EC9" stroke-width="4.32101" stroke-linecap="round" stroke-linejoin="round"/>
<path d="M783.035 123.773C791.506 114.651 803.42 109.508 815.869 109.6C828.317 109.692 840.154 115.01 848.489 124.256C867.83 105.085 898.598 103.828 919.438 121.358C928.319 113.049 940.302 108.888 952.422 109.905C964.541 110.922 975.663 117.021 983.036 126.693C991.063 114.885 1004.74 108.208 1018.99 109.144C1033.24 110.08 1045.92 118.489 1052.34 131.245C1060.68 136.479 1065.03 146.241 1063.34 155.943C1061.65 165.646 1054.25 173.361 1044.63 175.463C1035.7 185.284 1022.89 190.657 1009.63 190.142C996.374 189.627 984.019 183.278 975.882 172.795C967.381 184.024 954.018 190.504 939.937 190.225C925.857 189.946 912.761 182.942 904.712 171.385C897.195 182.2 885.328 189.192 872.225 190.526C859.122 191.859 846.09 187.402 836.548 178.324C816.833 193.46 789.085 192.211 770.81 175.364C760.239 169.24 754.931 156.912 757.748 145.025C760.565 133.137 770.84 124.501 783.035 123.773Z" stroke="#AE3EC9" stroke-width="4.32101" stroke-linecap="round" stroke-linejoin="round"/>
<path d="M778.635 227.087C798.777 209.562 828.348 208.254 849.958 223.932" stroke="#9FA8B2" stroke-width="4.32101" stroke-linecap="round" stroke-linejoin="round" stroke-dasharray="0.05 10.96"/>
<path d="M849.957 223.931C871.682 209.289 900.137 209.362 921.786 224.117" stroke="#9FA8B2" stroke-width="4.32101" stroke-linecap="round" stroke-linejoin="round" stroke-dasharray="0.05 10.85"/>
<path d="M921.785 224.117C941.064 209.923 967.502 210.56 986.076 225.666" stroke="#9FA8B2" stroke-width="4.32101" stroke-linecap="round" stroke-linejoin="round" stroke-dasharray="0.04 9.84"/>
<path d="M986.078 225.665C995.177 217.525 1007.19 213.428 1019.37 214.313C1031.55 215.198 1042.84 220.99 1050.67 230.361" stroke="#9FA8B2" stroke-width="4.32101" stroke-linecap="round" stroke-linejoin="round" stroke-dasharray="0.05 10.28"/>
<path d="M1050.67 230.362C1060.76 235.716 1066.58 246.676 1065.36 258.036C1064.13 269.397 1056.12 278.868 1045.12 281.952" stroke="#9FA8B2" stroke-width="4.32101" stroke-linecap="round" stroke-linejoin="round" stroke-dasharray="0.05 11.04"/>
<path d="M1045.11 281.953C1035.75 290.388 1023.38 294.69 1010.81 293.885C998.232 293.079 986.513 287.233 978.305 277.672" stroke="#9FA8B2" stroke-width="4.32101" stroke-linecap="round" stroke-linejoin="round" stroke-dasharray="0.05 10.61"/>
<path d="M978.307 277.672C969.413 287.834 956.677 293.816 943.178 294.172C929.679 294.529 916.646 289.226 907.229 279.548" stroke="#9FA8B2" stroke-width="4.32101" stroke-linecap="round" stroke-linejoin="round" stroke-dasharray="0.04 9.94"/>
<path d="M907.226 279.548C898.811 288.944 886.607 294.042 874.009 293.424C861.412 292.806 849.765 286.538 842.311 276.364" stroke="#9FA8B2" stroke-width="4.32101" stroke-linecap="round" stroke-linejoin="round" stroke-dasharray="0.05 10.59"/>
<path d="M842.314 276.363C833.494 288.315 819.225 294.994 804.397 294.11C789.568 293.225 776.194 284.898 768.857 271.981" stroke="#9FA8B2" stroke-width="4.32101" stroke-linecap="round" stroke-linejoin="round" stroke-dasharray="0.04 9.65"/>
<path d="M768.855 271.983C758.732 267.431 753.178 256.414 755.54 245.57C757.902 234.726 767.534 227.016 778.633 227.086" stroke="#9FA8B2" stroke-width="4.32101" stroke-linecap="round" stroke-linejoin="round" stroke-dasharray="0.05 10.62"/>
<path d="M12.3541 53.1681L211.64 53.3053C217.401 53.3053 220.282 56.186 220.282 61.9473L221.712 247.632C221.712 253.393 218.831 256.274 213.07 256.274L11.6608 255.829C5.89947 255.829 3.0188 252.949 3.0188 247.187L3.7121 61.8101C3.7121 56.0488 6.59277 53.1681 12.3541 53.1681ZM11.642 53.0864L211.493 53C217.254 53 220.135 55.8807 220.135 61.642L220.953 246.694C220.953 252.455 218.072 255.336 212.311 255.336L13.8269 254.645C8.06559 254.645 5.18492 251.765 5.18492 246.003L3 61.7284C3 55.9671 5.88067 53.0864 11.642 53.0864Z" stroke="#E085F4" stroke-width="4.32101" stroke-linecap="round" stroke-linejoin="round"/>
<path d="M345 5H643.368V290.22H345V5Z" fill="#ECDCF2"/>
<path d="M345 5H643.368" stroke="#AE3EC9" stroke-width="4.32101" stroke-linecap="round" stroke-linejoin="round" stroke-dasharray="9.03 9.59"/>
<path d="M643.369 5V290.22" stroke="#AE3EC9" stroke-width="4.32101" stroke-linecap="round" stroke-linejoin="round" stroke-dasharray="8.64 9.18"/>
<path d="M643.368 290.221H345" stroke="#AE3EC9" stroke-width="4.32101" stroke-linecap="round" stroke-linejoin="round" stroke-dasharray="9.03 9.59"/>
<path d="M345 290.22V5" stroke="#AE3EC9" stroke-width="4.32101" stroke-linecap="round" stroke-linejoin="round" stroke-dasharray="8.64 9.18"/>
<path d="M384.719 138V120.5H390.919C392.302 120.5 393.39 120.725 394.182 121.175C394.973 121.617 395.536 122.192 395.869 122.9C396.202 123.608 396.369 124.35 396.369 125.125C396.369 125.925 396.144 126.646 395.694 127.287C395.244 127.929 394.611 128.425 393.794 128.775C394.469 128.983 395.044 129.292 395.519 129.7C396.002 130.1 396.369 130.579 396.619 131.137C396.869 131.696 396.994 132.308 396.994 132.975C396.994 133.567 396.898 134.158 396.707 134.75C396.515 135.342 396.198 135.883 395.757 136.375C395.323 136.867 394.74 137.262 394.007 137.562C393.282 137.854 392.386 138 391.319 138H384.719ZM386.894 136H391.569C392.427 136 393.094 135.858 393.569 135.575C394.044 135.292 394.373 134.929 394.557 134.487C394.748 134.046 394.844 133.592 394.844 133.125C394.844 132.567 394.732 132.042 394.507 131.55C394.282 131.058 393.873 130.662 393.282 130.362C392.698 130.054 391.861 129.9 390.769 129.9H386.894V136ZM386.894 127.925H390.494C391.736 127.925 392.665 127.671 393.282 127.162C393.907 126.654 394.219 125.983 394.219 125.15C394.219 124.725 394.136 124.308 393.969 123.9C393.811 123.483 393.502 123.142 393.044 122.875C392.586 122.608 391.919 122.475 391.044 122.475H386.894V127.925ZM404.67 138.3C403.287 138.3 402.199 137.917 401.408 137.15C400.616 136.383 400.22 135.333 400.22 134C400.22 133.142 400.416 132.396 400.808 131.762C401.199 131.129 401.753 130.642 402.47 130.3C403.187 129.95 404.028 129.775 404.995 129.775C405.62 129.775 406.203 129.846 406.745 129.987C407.295 130.121 407.812 130.325 408.295 130.6V129.7C408.295 128.708 408.07 127.983 407.62 127.525C407.17 127.058 406.47 126.825 405.52 126.825C404.912 126.825 404.278 126.937 403.62 127.162C402.97 127.387 402.362 127.7 401.795 128.1L401.17 126.275C401.812 125.85 402.541 125.521 403.358 125.287C404.183 125.046 404.995 124.925 405.795 124.925C407.312 124.925 408.449 125.312 409.208 126.087C409.966 126.854 410.345 128 410.345 129.525V138H408.295V136.825C407.795 137.3 407.233 137.667 406.608 137.925C405.983 138.175 405.337 138.3 404.67 138.3ZM404.995 136.4C405.587 136.4 406.17 136.254 406.745 135.962C407.328 135.671 407.845 135.258 408.295 134.725V132.525C407.87 132.258 407.387 132.05 406.845 131.9C406.303 131.75 405.787 131.675 405.295 131.675C404.362 131.675 403.624 131.887 403.083 132.312C402.541 132.729 402.27 133.3 402.27 134.025C402.27 134.758 402.512 135.337 402.995 135.762C403.478 136.187 404.145 136.4 404.995 136.4ZM417.904 138.3C417.004 138.3 416.138 138.108 415.304 137.725C414.479 137.333 413.804 136.808 413.279 136.15L414.829 134.825C415.279 135.308 415.779 135.683 416.329 135.95C416.879 136.217 417.421 136.35 417.954 136.35C418.704 136.35 419.288 136.208 419.704 135.925C420.121 135.633 420.329 135.233 420.329 134.725C420.329 134.392 420.233 134.092 420.042 133.825C419.858 133.558 419.55 133.304 419.117 133.062C418.692 132.821 418.121 132.567 417.404 132.3C415.996 131.775 414.983 131.204 414.367 130.587C413.758 129.971 413.454 129.208 413.454 128.3C413.454 127.3 413.85 126.487 414.642 125.862C415.442 125.237 416.479 124.925 417.754 124.925C418.629 124.925 419.433 125.092 420.167 125.425C420.9 125.75 421.529 126.225 422.054 126.85L420.554 128.1C419.788 127.283 418.846 126.875 417.729 126.875C417.071 126.875 416.55 127.004 416.167 127.262C415.792 127.512 415.604 127.858 415.604 128.3C415.604 128.725 415.817 129.1 416.242 129.425C416.675 129.742 417.454 130.108 418.579 130.525C419.496 130.858 420.238 131.221 420.804 131.612C421.379 132.004 421.796 132.45 422.054 132.95C422.321 133.45 422.454 134.025 422.454 134.675C422.454 135.8 422.05 136.687 421.242 137.337C420.433 137.979 419.321 138.3 417.904 138.3ZM425.873 138V125.225H428.048V138H425.873ZM426.948 122.9C426.573 122.9 426.252 122.771 425.985 122.512C425.727 122.246 425.598 121.925 425.598 121.55C425.598 121.158 425.727 120.829 425.985 120.562C426.252 120.287 426.573 120.15 426.948 120.15C427.34 120.15 427.665 120.287 427.923 120.562C428.19 120.829 428.323 121.158 428.323 121.55C428.323 121.925 428.19 122.246 427.923 122.512C427.665 122.771 427.34 122.9 426.948 122.9ZM436.746 138.3C435.646 138.3 434.7 138.033 433.908 137.5C433.116 136.958 432.508 136.192 432.083 135.2C431.658 134.2 431.446 133.008 431.446 131.625C431.446 130.233 431.662 129.037 432.096 128.037C432.529 127.037 433.146 126.271 433.946 125.737C434.754 125.196 435.721 124.925 436.846 124.925C437.946 124.925 438.879 125.179 439.646 125.687C440.412 126.196 440.971 126.933 441.321 127.9L439.271 128.65C439.062 128.1 438.75 127.679 438.333 127.387C437.925 127.096 437.437 126.95 436.871 126.95C435.837 126.95 435.046 127.35 434.496 128.15C433.946 128.95 433.671 130.108 433.671 131.625C433.671 133.108 433.941 134.25 434.483 135.05C435.025 135.85 435.796 136.25 436.796 136.25C437.437 136.25 437.983 136.083 438.433 135.75C438.891 135.417 439.212 134.95 439.396 134.35L441.421 135.025C441.112 136.075 440.55 136.883 439.733 137.45C438.916 138.017 437.921 138.3 436.746 138.3ZM444.771 126.75L444.046 126.375C444.196 126.242 444.375 126.042 444.583 125.775C444.8 125.5 444.991 125.179 445.158 124.812C445.325 124.446 445.421 124.05 445.446 123.625C444.962 123.6 444.55 123.437 444.208 123.137C443.866 122.837 443.696 122.45 443.696 121.975C443.696 121.425 443.862 120.992 444.196 120.675C444.529 120.358 444.921 120.2 445.371 120.2C445.862 120.2 446.3 120.375 446.683 120.725C447.075 121.075 447.271 121.625 447.271 122.375C447.271 123.017 447.158 123.617 446.933 124.175C446.716 124.733 446.416 125.233 446.033 125.675C445.658 126.108 445.237 126.467 444.771 126.75ZM452.963 138.3C452.063 138.3 451.196 138.108 450.363 137.725C449.538 137.333 448.863 136.808 448.338 136.15L449.888 134.825C450.338 135.308 450.838 135.683 451.388 135.95C451.938 136.217 452.479 136.35 453.013 136.35C453.763 136.35 454.346 136.208 454.763 135.925C455.179 135.633 455.388 135.233 455.388 134.725C455.388 134.392 455.292 134.092 455.1 133.825C454.917 133.558 454.609 133.304 454.175 133.062C453.75 132.821 453.179 132.567 452.463 132.3C451.054 131.775 450.042 131.204 449.425 130.587C448.817 129.971 448.513 129.208 448.513 128.3C448.513 127.3 448.909 126.487 449.7 125.862C450.5 125.237 451.538 124.925 452.813 124.925C453.688 124.925 454.492 125.092 455.225 125.425C455.959 125.75 456.588 126.225 457.113 126.85L455.613 128.1C454.846 127.283 453.904 126.875 452.788 126.875C452.129 126.875 451.609 127.004 451.225 127.262C450.85 127.512 450.663 127.858 450.663 128.3C450.663 128.725 450.875 129.1 451.3 129.425C451.734 129.742 452.513 130.108 453.638 130.525C454.554 130.858 455.296 131.221 455.863 131.612C456.438 132.004 456.854 132.45 457.113 132.95C457.379 133.45 457.513 134.025 457.513 134.675C457.513 135.8 457.109 136.687 456.3 137.337C455.492 137.979 454.379 138.3 452.963 138.3ZM471.69 138.3C469.94 138.3 468.561 137.704 467.553 136.512C466.544 135.312 466.04 133.683 466.04 131.625C466.04 130.25 466.269 129.062 466.728 128.062C467.186 127.062 467.836 126.292 468.678 125.75C469.528 125.2 470.532 124.925 471.69 124.925C472.857 124.925 473.861 125.196 474.703 125.737C475.553 126.271 476.203 127.037 476.653 128.037C477.111 129.037 477.34 130.225 477.34 131.6C477.34 132.975 477.111 134.167 476.653 135.175C476.194 136.175 475.54 136.946 474.69 137.487C473.849 138.029 472.849 138.3 471.69 138.3ZM471.69 136.275C472.765 136.275 473.607 135.862 474.215 135.037C474.832 134.204 475.14 133.058 475.14 131.6C475.14 130.133 474.832 128.987 474.215 128.162C473.607 127.337 472.765 126.925 471.69 126.925C470.607 126.925 469.761 127.337 469.153 128.162C468.544 128.979 468.24 130.133 468.24 131.625C468.24 133.083 468.544 134.225 469.153 135.05C469.761 135.867 470.607 136.275 471.69 136.275ZM480.609 143.075V125.225H482.784V126.3C483.7 125.383 484.792 124.925 486.059 124.925C487.142 124.925 488.075 125.196 488.859 125.737C489.65 126.279 490.259 127.05 490.684 128.05C491.117 129.05 491.334 130.233 491.334 131.6C491.334 132.967 491.117 134.154 490.684 135.162C490.25 136.162 489.638 136.937 488.846 137.487C488.063 138.029 487.134 138.3 486.059 138.3C485.384 138.3 484.775 138.179 484.234 137.937C483.692 137.687 483.209 137.308 482.784 136.8V142.05L480.609 143.075ZM485.784 136.275C486.859 136.275 487.68 135.871 488.246 135.062C488.821 134.254 489.109 133.1 489.109 131.6C489.109 130.158 488.809 129.021 488.209 128.187C487.609 127.346 486.8 126.925 485.784 126.925C485.134 126.925 484.55 127.075 484.034 127.375C483.517 127.675 483.1 128.1 482.784 128.65V134.55C483.225 135.125 483.696 135.558 484.196 135.85C484.696 136.133 485.225 136.275 485.784 136.275ZM500.06 138.3C498.893 138.3 497.885 138.012 497.035 137.437C496.185 136.862 495.531 136.071 495.073 135.062C494.614 134.054 494.385 132.9 494.385 131.6C494.385 130.192 494.623 128.992 495.098 128C495.573 127 496.235 126.237 497.085 125.712C497.935 125.187 498.927 124.925 500.06 124.925C501.018 124.925 501.898 125.142 502.698 125.575C503.498 126 504.135 126.662 504.61 127.562C505.093 128.454 505.335 129.6 505.335 131C505.335 131.2 505.327 131.433 505.31 131.7C505.302 131.958 505.285 132.225 505.26 132.5H496.61C496.693 133.275 496.885 133.954 497.185 134.537C497.485 135.121 497.881 135.579 498.373 135.912C498.864 136.237 499.443 136.4 500.11 136.4C500.652 136.4 501.152 136.304 501.61 136.112C502.077 135.921 502.51 135.625 502.91 135.225L504.185 136.65C503.71 137.125 503.118 137.521 502.41 137.837C501.71 138.146 500.927 138.3 500.06 138.3ZM496.585 130.6H503.135C503.135 129.875 503.014 129.229 502.773 128.662C502.539 128.087 502.193 127.637 501.735 127.312C501.277 126.987 500.718 126.825 500.06 126.825C499.135 126.825 498.339 127.125 497.673 127.725C497.014 128.325 496.652 129.283 496.585 130.6ZM508.831 138V125.225H511.006V126.525C511.398 125.983 511.869 125.583 512.419 125.325C512.969 125.058 513.598 124.925 514.306 124.925C515.856 124.925 517.006 125.396 517.756 126.337C518.506 127.271 518.881 128.708 518.881 130.65V138H516.706V130.275C516.706 129.2 516.465 128.375 515.981 127.8C515.506 127.217 514.831 126.925 513.956 126.925C512.981 126.925 512.244 127.204 511.744 127.762C511.252 128.312 511.006 129.133 511.006 130.225V138H508.831ZM522.918 131.6V129.5H528.768V131.6H522.918ZM536.679 138.3C535.779 138.3 534.912 138.108 534.079 137.725C533.254 137.333 532.579 136.808 532.054 136.15L533.604 134.825C534.054 135.308 534.554 135.683 535.104 135.95C535.654 136.217 536.195 136.35 536.729 136.35C537.479 136.35 538.062 136.208 538.479 135.925C538.895 135.633 539.104 135.233 539.104 134.725C539.104 134.392 539.008 134.092 538.816 133.825C538.633 133.558 538.324 133.304 537.891 133.062C537.466 132.821 536.895 132.567 536.179 132.3C534.77 131.775 533.758 131.204 533.141 130.587C532.533 129.971 532.229 129.208 532.229 128.3C532.229 127.3 532.624 126.487 533.416 125.862C534.216 125.237 535.254 124.925 536.529 124.925C537.404 124.925 538.208 125.092 538.941 125.425C539.674 125.75 540.304 126.225 540.829 126.85L539.329 128.1C538.562 127.283 537.62 126.875 536.504 126.875C535.845 126.875 535.324 127.004 534.941 127.262C534.566 127.512 534.379 127.858 534.379 128.3C534.379 128.725 534.591 129.1 535.016 129.425C535.449 129.742 536.229 130.108 537.354 130.525C538.27 130.858 539.012 131.221 539.579 131.612C540.154 132.004 540.57 132.45 540.829 132.95C541.095 133.45 541.229 134.025 541.229 134.675C541.229 135.8 540.824 136.687 540.016 137.337C539.208 137.979 538.095 138.3 536.679 138.3ZM549.278 138.3C547.528 138.3 546.149 137.704 545.141 136.512C544.132 135.312 543.628 133.683 543.628 131.625C543.628 130.25 543.857 129.062 544.316 128.062C544.774 127.062 545.424 126.292 546.266 125.75C547.116 125.2 548.12 124.925 549.278 124.925C550.445 124.925 551.449 125.196 552.291 125.737C553.141 126.271 553.791 127.037 554.241 128.037C554.699 129.037 554.928 130.225 554.928 131.6C554.928 132.975 554.699 134.167 554.241 135.175C553.782 136.175 553.128 136.946 552.278 137.487C551.437 138.029 550.437 138.3 549.278 138.3ZM549.278 136.275C550.353 136.275 551.195 135.862 551.803 135.037C552.42 134.204 552.728 133.058 552.728 131.6C552.728 130.133 552.42 128.987 551.803 128.162C551.195 127.337 550.353 126.925 549.278 126.925C548.195 126.925 547.349 127.337 546.741 128.162C546.132 128.979 545.828 130.133 545.828 131.625C545.828 133.083 546.132 134.225 546.741 135.05C547.349 135.867 548.195 136.275 549.278 136.275ZM562.844 138.3C561.269 138.3 560.098 137.833 559.331 136.9C558.573 135.967 558.194 134.533 558.194 132.6V125.225H560.369V132.925C560.369 134.008 560.606 134.837 561.081 135.412C561.556 135.987 562.235 136.275 563.119 136.275C564.094 136.275 564.827 135.996 565.319 135.437C565.819 134.879 566.069 134.058 566.069 132.975V125.225H568.244V138H566.069V136.775C565.66 137.3 565.198 137.687 564.681 137.937C564.173 138.179 563.56 138.3 562.844 138.3ZM572.576 138V125.225H574.751V126.9C575.043 126.25 575.443 125.758 575.951 125.425C576.468 125.092 577.076 124.925 577.776 124.925C578.551 124.925 579.21 125.142 579.751 125.575L579.426 127.625C579.151 127.433 578.864 127.296 578.564 127.212C578.272 127.121 577.951 127.075 577.601 127.075C577.026 127.075 576.526 127.229 576.101 127.537C575.676 127.846 575.343 128.279 575.101 128.837C574.868 129.396 574.751 130.05 574.751 130.8V138H572.576ZM586.208 138.3C585.108 138.3 584.163 138.033 583.371 137.5C582.579 136.958 581.971 136.192 581.546 135.2C581.121 134.2 580.908 133.008 580.908 131.625C580.908 130.233 581.125 129.037 581.558 128.037C581.992 127.037 582.608 126.271 583.408 125.737C584.217 125.196 585.183 124.925 586.308 124.925C587.408 124.925 588.342 125.179 589.108 125.687C589.875 126.196 590.433 126.933 590.783 127.9L588.733 128.65C588.525 128.1 588.213 127.679 587.796 127.387C587.388 127.096 586.9 126.95 586.333 126.95C585.3 126.95 584.508 127.35 583.958 128.15C583.408 128.95 583.133 130.108 583.133 131.625C583.133 133.108 583.404 134.25 583.946 135.05C584.488 135.85 585.258 136.25 586.258 136.25C586.9 136.25 587.446 136.083 587.896 135.75C588.354 135.417 588.675 134.95 588.858 134.35L590.883 135.025C590.575 136.075 590.013 136.883 589.196 137.45C588.379 138.017 587.383 138.3 586.208 138.3ZM599.279 138.3C598.112 138.3 597.104 138.012 596.254 137.437C595.404 136.862 594.75 136.071 594.291 135.062C593.833 134.054 593.604 132.9 593.604 131.6C593.604 130.192 593.841 128.992 594.316 128C594.791 127 595.454 126.237 596.304 125.712C597.154 125.187 598.145 124.925 599.279 124.925C600.237 124.925 601.116 125.142 601.916 125.575C602.716 126 603.354 126.662 603.829 127.562C604.312 128.454 604.554 129.6 604.554 131C604.554 131.2 604.545 131.433 604.529 131.7C604.52 131.958 604.504 132.225 604.479 132.5H595.829C595.912 133.275 596.104 133.954 596.404 134.537C596.704 135.121 597.1 135.579 597.591 135.912C598.083 136.237 598.662 136.4 599.329 136.4C599.87 136.4 600.37 136.304 600.829 136.112C601.295 135.921 601.729 135.625 602.129 135.225L603.404 136.65C602.929 137.125 602.337 137.521 601.629 137.837C600.929 138.146 600.145 138.3 599.279 138.3ZM595.804 130.6H602.354C602.354 129.875 602.233 129.229 601.991 128.662C601.758 128.087 601.412 127.637 600.954 127.312C600.495 126.987 599.937 126.825 599.279 126.825C598.354 126.825 597.558 127.125 596.891 127.725C596.233 128.325 595.87 129.283 595.804 130.6ZM419.916 170V157.225H422.091V170H419.916ZM420.991 154.9C420.616 154.9 420.295 154.771 420.028 154.512C419.77 154.246 419.641 153.925 419.641 153.55C419.641 153.158 419.77 152.829 420.028 152.562C420.295 152.287 420.616 152.15 420.991 152.15C421.383 152.15 421.708 152.287 421.966 152.562C422.233 152.829 422.366 153.158 422.366 153.55C422.366 153.925 422.233 154.246 421.966 154.512C421.708 154.771 421.383 154.9 420.991 154.9ZM426.239 170V157.225H428.414V158.525C428.805 157.983 429.276 157.583 429.826 157.325C430.376 157.058 431.005 156.925 431.714 156.925C433.264 156.925 434.414 157.396 435.164 158.337C435.914 159.271 436.289 160.708 436.289 162.65V170H434.114V162.275C434.114 161.2 433.872 160.375 433.389 159.8C432.914 159.217 432.239 158.925 431.364 158.925C430.389 158.925 429.651 159.204 429.151 159.762C428.659 160.312 428.414 161.133 428.414 162.225V170H426.239ZM441.05 170V159.125H439.075V157.225H441.05V155.1C441.05 154.183 441.292 153.471 441.775 152.962C442.267 152.454 442.95 152.2 443.825 152.2C444.25 152.2 444.659 152.25 445.05 152.35C445.442 152.45 445.825 152.6 446.2 152.8V154.625C445.842 154.458 445.521 154.337 445.238 154.262C444.955 154.187 444.667 154.15 444.375 154.15C443.967 154.15 443.671 154.254 443.488 154.462C443.313 154.662 443.225 155 443.225 155.475V157.225H446.2V159.125H443.225V170H441.05ZM448.651 170V157.225H450.826V158.9C451.117 158.25 451.517 157.758 452.026 157.425C452.542 157.092 453.151 156.925 453.851 156.925C454.626 156.925 455.284 157.142 455.826 157.575L455.501 159.625C455.226 159.433 454.938 159.296 454.638 159.212C454.347 159.121 454.026 159.075 453.676 159.075C453.101 159.075 452.601 159.229 452.176 159.537C451.751 159.846 451.417 160.279 451.176 160.837C450.942 161.396 450.826 162.05 450.826 162.8V170H448.651ZM461.579 170.3C460.196 170.3 459.108 169.917 458.317 169.15C457.525 168.383 457.129 167.333 457.129 166C457.129 165.142 457.325 164.396 457.717 163.762C458.108 163.129 458.663 162.642 459.379 162.3C460.096 161.95 460.938 161.775 461.904 161.775C462.529 161.775 463.113 161.846 463.654 161.987C464.204 162.121 464.721 162.325 465.204 162.6V161.7C465.204 160.708 464.979 159.983 464.529 159.525C464.079 159.058 463.379 158.825 462.429 158.825C461.821 158.825 461.188 158.937 460.529 159.162C459.879 159.387 459.271 159.7 458.704 160.1L458.079 158.275C458.721 157.85 459.45 157.521 460.267 157.287C461.092 157.046 461.904 156.925 462.704 156.925C464.221 156.925 465.358 157.312 466.117 158.087C466.875 158.854 467.254 160 467.254 161.525V170H465.204V168.825C464.704 169.3 464.142 169.667 463.517 169.925C462.892 170.175 462.246 170.3 461.579 170.3ZM461.904 168.4C462.496 168.4 463.079 168.254 463.654 167.962C464.238 167.671 464.754 167.258 465.204 166.725V164.525C464.779 164.258 464.296 164.05 463.754 163.9C463.213 163.75 462.696 163.675 462.204 163.675C461.271 163.675 460.533 163.887 459.992 164.312C459.45 164.729 459.179 165.3 459.179 166.025C459.179 166.758 459.421 167.337 459.904 167.762C460.388 168.187 461.054 168.4 461.904 168.4ZM474.813 170.3C473.913 170.3 473.047 170.108 472.213 169.725C471.388 169.333 470.713 168.808 470.188 168.15L471.738 166.825C472.188 167.308 472.688 167.683 473.238 167.95C473.788 168.217 474.33 168.35 474.863 168.35C475.613 168.35 476.197 168.208 476.613 167.925C477.03 167.633 477.238 167.233 477.238 166.725C477.238 166.392 477.143 166.092 476.951 165.825C476.768 165.558 476.459 165.304 476.026 165.062C475.601 164.821 475.03 164.567 474.313 164.3C472.905 163.775 471.893 163.204 471.276 162.587C470.668 161.971 470.363 161.208 470.363 160.3C470.363 159.3 470.759 158.487 471.551 157.862C472.351 157.237 473.388 156.925 474.663 156.925C475.538 156.925 476.343 157.092 477.076 157.425C477.809 157.75 478.438 158.225 478.963 158.85L477.463 160.1C476.697 159.283 475.755 158.875 474.638 158.875C473.98 158.875 473.459 159.004 473.076 159.262C472.701 159.512 472.513 159.858 472.513 160.3C472.513 160.725 472.726 161.1 473.151 161.425C473.584 161.742 474.363 162.108 475.488 162.525C476.405 162.858 477.147 163.221 477.713 163.612C478.288 164.004 478.705 164.45 478.963 164.95C479.23 165.45 479.363 166.025 479.363 166.675C479.363 167.8 478.959 168.687 478.151 169.337C477.343 169.979 476.23 170.3 474.813 170.3ZM486.063 170.3C485.188 170.3 484.517 170.037 484.05 169.512C483.592 168.987 483.363 168.233 483.363 167.25V159.125H481.288V157.225H483.363V153L485.538 151.95V157.225H488.688V159.125H485.538V166.525C485.538 167.133 485.642 167.579 485.85 167.862C486.067 168.137 486.405 168.275 486.863 168.275C487.446 168.275 488.08 168.05 488.763 167.6L488.513 169.725C488.138 169.925 487.746 170.071 487.338 170.163C486.938 170.254 486.513 170.3 486.063 170.3ZM490.96 170V157.225H493.135V158.9C493.427 158.25 493.827 157.758 494.335 157.425C494.852 157.092 495.46 156.925 496.16 156.925C496.935 156.925 497.594 157.142 498.135 157.575L497.81 159.625C497.535 159.433 497.248 159.296 496.948 159.212C496.656 159.121 496.335 159.075 495.985 159.075C495.41 159.075 494.91 159.229 494.485 159.537C494.06 159.846 493.727 160.279 493.485 160.837C493.252 161.396 493.135 162.05 493.135 162.8V170H490.96ZM504.958 170.3C503.383 170.3 502.212 169.833 501.445 168.9C500.687 167.967 500.308 166.533 500.308 164.6V157.225H502.483V164.925C502.483 166.008 502.72 166.837 503.195 167.412C503.67 167.987 504.35 168.275 505.233 168.275C506.208 168.275 506.941 167.996 507.433 167.437C507.933 166.879 508.183 166.058 508.183 164.975V157.225H510.358V170H508.183V168.775C507.775 169.3 507.312 169.687 506.795 169.937C506.287 170.179 505.675 170.3 504.958 170.3ZM518.948 170.3C517.848 170.3 516.902 170.033 516.11 169.5C515.319 168.958 514.71 168.192 514.285 167.2C513.86 166.2 513.648 165.008 513.648 163.625C513.648 162.233 513.864 161.037 514.298 160.037C514.731 159.037 515.348 158.271 516.148 157.737C516.956 157.196 517.923 156.925 519.048 156.925C520.148 156.925 521.081 157.179 521.848 157.687C522.614 158.196 523.173 158.933 523.523 159.9L521.473 160.65C521.264 160.1 520.952 159.679 520.535 159.387C520.127 159.096 519.639 158.95 519.073 158.95C518.039 158.95 517.248 159.35 516.698 160.15C516.148 160.95 515.873 162.108 515.873 163.625C515.873 165.108 516.144 166.25 516.685 167.05C517.227 167.85 517.998 168.25 518.998 168.25C519.639 168.25 520.185 168.083 520.635 167.75C521.094 167.417 521.414 166.95 521.598 166.35L523.623 167.025C523.314 168.075 522.752 168.883 521.935 169.45C521.119 170.017 520.123 170.3 518.948 170.3ZM530.204 170.3C529.329 170.3 528.658 170.037 528.191 169.512C527.733 168.987 527.504 168.233 527.504 167.25V159.125H525.429V157.225H527.504V153L529.679 151.95V157.225H532.829V159.125H529.679V166.525C529.679 167.133 529.783 167.579 529.991 167.862C530.208 168.137 530.545 168.275 531.004 168.275C531.587 168.275 532.22 168.05 532.904 167.6L532.654 169.725C532.279 169.925 531.887 170.071 531.479 170.163C531.079 170.254 530.654 170.3 530.204 170.3ZM539.992 170.3C538.417 170.3 537.246 169.833 536.48 168.9C535.721 167.967 535.342 166.533 535.342 164.6V157.225H537.517V164.925C537.517 166.008 537.755 166.837 538.23 167.412C538.705 167.987 539.384 168.275 540.267 168.275C541.242 168.275 541.975 167.996 542.467 167.437C542.967 166.879 543.217 166.058 543.217 164.975V157.225H545.392V170H543.217V168.775C542.809 169.3 542.346 169.687 541.83 169.937C541.321 170.179 540.709 170.3 539.992 170.3ZM549.725 170V157.225H551.9V158.9C552.192 158.25 552.592 157.758 553.1 157.425C553.617 157.092 554.225 156.925 554.925 156.925C555.7 156.925 556.358 157.142 556.9 157.575L556.575 159.625C556.3 159.433 556.012 159.296 555.712 159.212C555.421 159.121 555.1 159.075 554.75 159.075C554.175 159.075 553.675 159.229 553.25 159.537C552.825 159.846 552.492 160.279 552.25 160.837C552.017 161.396 551.9 162.05 551.9 162.8V170H549.725ZM563.732 170.3C562.565 170.3 561.557 170.012 560.707 169.437C559.857 168.862 559.203 168.071 558.744 167.062C558.286 166.054 558.057 164.9 558.057 163.6C558.057 162.192 558.294 160.992 558.769 160C559.244 159 559.907 158.237 560.757 157.712C561.607 157.187 562.599 156.925 563.732 156.925C564.69 156.925 565.569 157.142 566.369 157.575C567.169 158 567.807 158.662 568.282 159.562C568.765 160.454 569.007 161.6 569.007 163C569.007 163.2 568.999 163.433 568.982 163.7C568.974 163.958 568.957 164.225 568.932 164.5H560.282C560.365 165.275 560.557 165.954 560.857 166.537C561.157 167.121 561.553 167.579 562.044 167.912C562.536 168.237 563.115 168.4 563.782 168.4C564.324 168.4 564.824 168.304 565.282 168.112C565.749 167.921 566.182 167.625 566.582 167.225L567.857 168.65C567.382 169.125 566.79 169.521 566.082 169.837C565.382 170.146 564.599 170.3 563.732 170.3ZM560.257 162.6H566.807C566.807 161.875 566.686 161.229 566.444 160.662C566.211 160.087 565.865 159.637 565.407 159.312C564.949 158.987 564.39 158.825 563.732 158.825C562.807 158.825 562.011 159.125 561.344 159.725C560.686 160.325 560.324 161.283 560.257 162.6Z" fill="black"/>
</svg>
