<svg width="1400" height="321" viewBox="0 0 1400 321" fill="none" xmlns="http://www.w3.org/2000/svg">
<path d="M1078.47 21.6586C1098.47 -0.92213 1132.81 -3.45655 1155.91 15.9444C1176.77 -0.967059 1206.7 -0.701004 1227.26 16.5788C1249.79 -3.42824 1284.25 -1.43178 1304.32 21.042C1313.77 10.3411 1327.15 3.92887 1341.41 3.2704C1355.67 2.61216 1369.59 7.76432 1379.98 17.5491C1393.19 24.8251 1399.69 40.212 1395.7 54.7561C1391.7 69.3002 1378.25 79.2067 1363.18 78.7107C1342.67 94.0969 1314.2 93.039 1294.89 76.1737C1284.45 86.0694 1270.46 91.3512 1256.09 90.831C1241.71 90.3108 1228.14 84.0325 1218.44 73.4078C1200.57 93.1668 1170.24 95.1614 1149.93 77.9134C1125.12 96.0108 1091.22 95.0603 1067.46 75.6013C1055.95 69.8178 1049.74 57.0357 1052.32 44.4144C1054.9 31.7928 1065.62 22.4664 1078.47 21.6586Z" stroke="#AE3EC9" stroke-width="4.67995" stroke-linecap="round" stroke-linejoin="round"/>
<path d="M1080.47 129.764C1101.66 113.952 1131.06 115.264 1150.75 132.901C1171.02 114.206 1201.95 113.249 1223.34 130.655C1244.82 112.624 1276.51 113.981 1296.37 133.781C1306.68 122.565 1321.6 116.738 1336.79 117.988C1351.98 119.239 1365.74 127.428 1374.08 140.181C1382.66 147.67 1385.82 159.635 1382.04 170.381C1378.26 181.128 1368.31 188.485 1356.92 188.95C1347.69 199.827 1334.14 206.088 1319.88 206.07C1305.61 206.051 1292.08 199.753 1282.88 188.852C1274.1 199.823 1260.57 205.89 1246.54 205.149C1232.51 204.409 1219.7 196.952 1212.12 185.118C1203.78 197.618 1189.95 205.368 1174.94 205.968C1159.92 206.568 1145.52 199.944 1136.21 188.15C1127.72 197.422 1115.88 202.918 1103.32 203.416C1090.76 203.915 1078.53 199.374 1069.33 190.804C1056.83 184.137 1050.08 170.155 1052.62 156.217C1055.16 142.28 1066.42 131.586 1080.47 129.764Z" stroke="#AE3EC9" stroke-width="4.67995" stroke-linecap="round" stroke-linejoin="round"/>
<path d="M1076.98 245.82C1086.39 235.765 1099.58 230.112 1113.34 230.233C1127.11 230.355 1140.2 236.241 1149.43 246.46" stroke="#9FA8B2" stroke-width="4.67995" stroke-linecap="round" stroke-linejoin="round" stroke-dasharray="0.05 11.58"/>
<path d="M1149.43 246.461C1160.23 235.038 1175.57 229.029 1191.26 230.069C1206.95 231.109 1221.35 239.09 1230.56 251.839" stroke="#9FA8B2" stroke-width="4.67995" stroke-linecap="round" stroke-linejoin="round" stroke-dasharray="0.05 11.55"/>
<path d="M1230.56 251.838C1237.87 239.221 1250.93 231.017 1265.47 229.904C1280.01 228.791 1294.17 234.912 1303.32 246.268" stroke="#9FA8B2" stroke-width="4.67995" stroke-linecap="round" stroke-linejoin="round" stroke-dasharray="0.05 10.68"/>
<path d="M1303.32 246.268C1313.06 236.054 1326.62 230.373 1340.73 230.594C1354.84 230.816 1368.22 236.921 1377.63 247.435" stroke="#9FA8B2" stroke-width="4.67995" stroke-linecap="round" stroke-linejoin="round" stroke-dasharray="0.05 11.87"/>
<path d="M1377.62 247.436C1387.54 254.96 1391.59 267.953 1387.7 279.781C1383.81 291.609 1372.84 299.662 1360.39 299.83" stroke="#9FA8B2" stroke-width="4.67995" stroke-linecap="round" stroke-linejoin="round" stroke-dasharray="0.05 12"/>
<path d="M1360.4 299.83C1340.51 322.006 1306.66 324.527 1283.71 305.541" stroke="#9FA8B2" stroke-width="4.67995" stroke-linecap="round" stroke-linejoin="round" stroke-dasharray="0.05 10.57"/>
<path d="M1283.7 305.541C1263.51 322.152 1233.69 319.32 1216.99 299.206" stroke="#9FA8B2" stroke-width="4.67995" stroke-linecap="round" stroke-linejoin="round" stroke-dasharray="0.05 12.35"/>
<path d="M1216.99 299.206C1195.81 322.243 1160.21 324.4 1136.41 304.088" stroke="#9FA8B2" stroke-width="4.67995" stroke-linecap="round" stroke-linejoin="round" stroke-dasharray="0.05 11.1"/>
<path d="M1136.41 304.087C1115.77 321.38 1085.36 320.073 1066.28 301.074" stroke="#9FA8B2" stroke-width="4.67995" stroke-linecap="round" stroke-linejoin="round" stroke-dasharray="0.05 10.96"/>
<path d="M1066.28 301.075C1054.93 294.958 1048.87 282.174 1051.32 269.515C1053.77 256.857 1064.17 247.259 1076.98 245.82" stroke="#9FA8B2" stroke-width="4.67995" stroke-linecap="round" stroke-linejoin="round" stroke-dasharray="0.05 12.41"/>
<path d="M373 5.44141H929.84V314.354H373V5.44141Z" fill="#ECDCF2"/>
<path d="M373.039 5.44141H929.879" stroke="#AE3EC9" stroke-width="4.67995" stroke-linecap="round" stroke-linejoin="round" stroke-dasharray="9.44 9.76"/>
<path d="M929.881 5.44141V314.354" stroke="#AE3EC9" stroke-width="4.67995" stroke-linecap="round" stroke-linejoin="round" stroke-dasharray="9.36 9.95"/>
<path d="M929.879 314.354H373.039" stroke="#AE3EC9" stroke-width="4.67995" stroke-linecap="round" stroke-linejoin="round" stroke-dasharray="9.44 9.76"/>
<path d="M373.039 314.354V5.44141" stroke="#AE3EC9" stroke-width="4.67995" stroke-linecap="round" stroke-linejoin="round" stroke-dasharray="9.36 9.95"/>
<path d="M13.8524 49L227.645 51.5068C233.885 51.5068 237.005 54.6268 237.005 60.8667L239.067 259.81C239.067 266.05 235.947 269.17 229.707 269.17L14.1075 269.058C7.86752 269.058 4.74756 265.938 4.74756 259.698L4.4925 58.3599C4.4925 52.12 7.61247 49 13.8524 49ZM14.7643 49.6856L227.875 51.8653C234.114 51.8653 237.234 54.9853 237.234 61.2252L238.341 261.913C238.341 268.153 235.221 271.273 228.981 271.273L11.7251 270.5C5.4852 270.5 2.36523 267.38 2.36523 261.14L5.40439 59.0455C5.40439 52.8056 8.52436 49.6856 14.7643 49.6856Z" stroke="#E085F4" stroke-width="4.67995" stroke-linecap="round" stroke-linejoin="round"/>
<path d="M109.399 167.944L116.203 148.74H118.425L125.229 167.944H122.787L121.141 163.253H113.514L111.896 167.944H109.399ZM114.228 161.141H120.4L117.931 154.035C117.867 153.852 117.794 153.642 117.712 153.404C117.639 153.157 117.566 152.919 117.492 152.691C117.419 152.453 117.364 152.252 117.328 152.087C117.282 152.252 117.223 152.453 117.149 152.691C117.085 152.919 117.012 153.157 116.93 153.404C116.857 153.642 116.788 153.852 116.724 154.035L114.228 161.141ZM128.773 167.944V148.74H131.16V167.944H128.773Z" fill="black"/>
<path d="M527.806 149V129.352H534.767C536.32 129.352 537.541 129.605 538.43 130.11C539.319 130.606 539.95 131.251 540.325 132.047C540.699 132.842 540.886 133.675 540.886 134.545C540.886 135.443 540.633 136.252 540.128 136.973C539.623 137.693 538.912 138.25 537.995 138.643C538.753 138.877 539.398 139.223 539.932 139.681C540.474 140.13 540.886 140.668 541.167 141.295C541.447 141.922 541.588 142.61 541.588 143.358C541.588 144.023 541.48 144.687 541.265 145.351C541.05 146.015 540.694 146.624 540.198 147.176C539.712 147.728 539.057 148.172 538.234 148.509C537.42 148.836 536.414 149 535.216 149H527.806ZM530.248 146.755H535.497C536.461 146.755 537.209 146.595 537.742 146.277C538.276 145.959 538.645 145.552 538.851 145.056C539.066 144.561 539.174 144.051 539.174 143.527C539.174 142.9 539.048 142.31 538.795 141.758C538.542 141.206 538.084 140.762 537.42 140.425C536.765 140.079 535.824 139.906 534.599 139.906H530.248V146.755ZM530.248 137.688H534.29C535.684 137.688 536.727 137.403 537.42 136.832C538.121 136.262 538.472 135.508 538.472 134.573C538.472 134.096 538.379 133.628 538.192 133.169C538.014 132.702 537.668 132.318 537.153 132.019C536.638 131.719 535.89 131.57 534.908 131.57H530.248V137.688ZM550.206 149.337C548.653 149.337 547.432 148.906 546.543 148.046C545.654 147.185 545.21 146.006 545.21 144.509C545.21 143.545 545.43 142.708 545.869 141.997C546.309 141.286 546.931 140.739 547.736 140.355C548.541 139.962 549.485 139.765 550.571 139.765C551.273 139.765 551.927 139.845 552.536 140.004C553.153 140.154 553.733 140.383 554.276 140.692V139.681C554.276 138.568 554.023 137.754 553.518 137.239C553.013 136.715 552.227 136.453 551.16 136.453C550.477 136.453 549.766 136.58 549.027 136.832C548.297 137.085 547.614 137.436 546.978 137.885L546.276 135.836C546.997 135.359 547.815 134.989 548.732 134.727C549.659 134.456 550.571 134.32 551.469 134.32C553.172 134.32 554.449 134.755 555.3 135.625C556.152 136.486 556.577 137.773 556.577 139.485V149H554.276V147.681C553.714 148.214 553.083 148.626 552.381 148.916C551.679 149.196 550.954 149.337 550.206 149.337ZM550.571 147.204C551.235 147.204 551.89 147.04 552.536 146.712C553.191 146.385 553.771 145.922 554.276 145.323V142.853C553.799 142.554 553.256 142.32 552.648 142.151C552.04 141.983 551.46 141.899 550.908 141.899C549.86 141.899 549.032 142.137 548.424 142.614C547.815 143.082 547.511 143.723 547.511 144.537C547.511 145.36 547.783 146.011 548.325 146.488C548.868 146.965 549.616 147.204 550.571 147.204ZM565.064 149.337C564.054 149.337 563.081 149.122 562.145 148.691C561.219 148.252 560.461 147.662 559.872 146.923L561.612 145.435C562.117 145.978 562.679 146.399 563.296 146.698C563.914 146.998 564.522 147.147 565.121 147.147C565.963 147.147 566.618 146.988 567.085 146.67C567.553 146.343 567.787 145.894 567.787 145.323C567.787 144.949 567.679 144.612 567.464 144.313C567.258 144.013 566.912 143.728 566.426 143.456C565.949 143.185 565.308 142.9 564.503 142.6C562.922 142.011 561.785 141.37 561.093 140.678C560.41 139.985 560.068 139.129 560.068 138.109C560.068 136.987 560.513 136.074 561.401 135.373C562.3 134.671 563.465 134.32 564.896 134.32C565.878 134.32 566.781 134.507 567.605 134.882C568.428 135.246 569.134 135.78 569.724 136.481L568.04 137.885C567.179 136.968 566.122 136.51 564.868 136.51C564.129 136.51 563.544 136.655 563.114 136.945C562.693 137.225 562.482 137.614 562.482 138.109C562.482 138.587 562.721 139.008 563.198 139.373C563.684 139.728 564.559 140.14 565.822 140.608C566.851 140.982 567.684 141.389 568.32 141.829C568.966 142.268 569.434 142.769 569.724 143.33C570.023 143.892 570.173 144.537 570.173 145.267C570.173 146.53 569.719 147.526 568.812 148.256C567.904 148.977 566.655 149.337 565.064 149.337ZM574.011 149V134.657H576.453V149H574.011ZM575.218 132.047C574.797 132.047 574.437 131.902 574.138 131.612C573.847 131.312 573.702 130.952 573.702 130.531C573.702 130.091 573.847 129.722 574.138 129.422C574.437 129.114 574.797 128.959 575.218 128.959C575.658 128.959 576.023 129.114 576.313 129.422C576.612 129.722 576.762 130.091 576.762 130.531C576.762 130.952 576.612 131.312 576.313 131.612C576.023 131.902 575.658 132.047 575.218 132.047ZM586.218 149.337C584.983 149.337 583.921 149.037 583.033 148.439C582.144 147.83 581.461 146.97 580.984 145.856C580.506 144.734 580.268 143.396 580.268 141.843C580.268 140.28 580.511 138.937 580.998 137.815C581.484 136.692 582.177 135.831 583.075 135.232C583.982 134.624 585.068 134.32 586.331 134.32C587.566 134.32 588.614 134.606 589.474 135.176C590.335 135.747 590.962 136.575 591.355 137.66L589.053 138.502C588.819 137.885 588.469 137.412 588.001 137.085C587.542 136.757 586.995 136.594 586.359 136.594C585.199 136.594 584.31 137.043 583.692 137.941C583.075 138.839 582.766 140.14 582.766 141.843C582.766 143.508 583.07 144.79 583.678 145.688C584.286 146.586 585.152 147.035 586.274 147.035C586.995 147.035 587.608 146.848 588.113 146.474C588.628 146.1 588.988 145.576 589.194 144.902L591.467 145.66C591.121 146.839 590.489 147.746 589.573 148.382C588.656 149.019 587.538 149.337 586.218 149.337ZM595.228 136.369L594.414 135.948C594.583 135.798 594.784 135.574 595.018 135.275C595.261 134.966 595.476 134.606 595.663 134.194C595.851 133.782 595.958 133.338 595.986 132.861C595.444 132.833 594.98 132.65 594.597 132.313C594.213 131.976 594.021 131.541 594.021 131.008C594.021 130.391 594.209 129.904 594.583 129.549C594.957 129.193 595.397 129.015 595.902 129.015C596.454 129.015 596.945 129.212 597.376 129.605C597.815 129.998 598.035 130.615 598.035 131.457C598.035 132.178 597.909 132.851 597.656 133.478C597.413 134.105 597.076 134.666 596.646 135.162C596.225 135.649 595.752 136.051 595.228 136.369ZM604.426 149.337C603.416 149.337 602.442 149.122 601.507 148.691C600.581 148.252 599.823 147.662 599.233 146.923L600.974 145.435C601.479 145.978 602.04 146.399 602.658 146.698C603.275 146.998 603.883 147.147 604.482 147.147C605.324 147.147 605.979 146.988 606.447 146.67C606.915 146.343 607.149 145.894 607.149 145.323C607.149 144.949 607.041 144.612 606.826 144.313C606.62 144.013 606.274 143.728 605.787 143.456C605.31 143.185 604.669 142.9 603.865 142.6C602.283 142.011 601.147 141.37 600.454 140.678C599.771 139.985 599.43 139.129 599.43 138.109C599.43 136.987 599.874 136.074 600.763 135.373C601.661 134.671 602.826 134.32 604.258 134.32C605.24 134.32 606.143 134.507 606.966 134.882C607.79 135.246 608.496 135.78 609.085 136.481L607.401 137.885C606.54 136.968 605.483 136.51 604.23 136.51C603.49 136.51 602.906 136.655 602.475 136.945C602.054 137.225 601.844 137.614 601.844 138.109C601.844 138.587 602.082 139.008 602.559 139.373C603.046 139.728 603.921 140.14 605.184 140.608C606.213 140.982 607.046 141.389 607.682 141.829C608.328 142.268 608.795 142.769 609.085 143.33C609.385 143.892 609.534 144.537 609.534 145.267C609.534 146.53 609.081 147.526 608.173 148.256C607.266 148.977 606.017 149.337 604.426 149.337ZM625.452 149.337C623.487 149.337 621.939 148.668 620.807 147.33C619.675 145.983 619.109 144.154 619.109 141.843C619.109 140.299 619.366 138.966 619.881 137.843C620.395 136.72 621.125 135.855 622.07 135.246C623.024 134.629 624.152 134.32 625.452 134.32C626.762 134.32 627.889 134.624 628.834 135.232C629.789 135.831 630.518 136.692 631.024 137.815C631.538 138.937 631.796 140.271 631.796 141.814C631.796 143.358 631.538 144.696 631.024 145.828C630.509 146.951 629.775 147.816 628.82 148.425C627.875 149.033 626.753 149.337 625.452 149.337ZM625.452 147.063C626.659 147.063 627.604 146.6 628.287 145.674C628.979 144.738 629.326 143.452 629.326 141.814C629.326 140.168 628.979 138.881 628.287 137.955C627.604 137.029 626.659 136.566 625.452 136.566C624.236 136.566 623.286 137.029 622.603 137.955C621.92 138.872 621.579 140.168 621.579 141.843C621.579 143.48 621.92 144.762 622.603 145.688C623.286 146.605 624.236 147.063 625.452 147.063ZM635.465 154.698V134.657H637.907V135.864C638.936 134.835 640.162 134.32 641.584 134.32C642.8 134.32 643.848 134.624 644.728 135.232C645.616 135.841 646.299 136.706 646.777 137.829C647.263 138.952 647.506 140.28 647.506 141.814C647.506 143.349 647.263 144.682 646.777 145.814C646.29 146.937 645.602 147.807 644.714 148.425C643.834 149.033 642.791 149.337 641.584 149.337C640.826 149.337 640.143 149.201 639.535 148.93C638.927 148.649 638.384 148.223 637.907 147.653V153.547L635.465 154.698ZM641.275 147.063C642.482 147.063 643.404 146.61 644.04 145.702C644.686 144.794 645.008 143.499 645.008 141.814C645.008 140.196 644.672 138.919 643.998 137.983C643.324 137.038 642.417 136.566 641.275 136.566C640.545 136.566 639.891 136.734 639.31 137.071C638.73 137.408 638.263 137.885 637.907 138.502V145.127C638.403 145.772 638.932 146.259 639.493 146.586C640.054 146.904 640.648 147.063 641.275 147.063ZM657.304 149.337C655.994 149.337 654.862 149.014 653.908 148.368C652.953 147.723 652.219 146.834 651.704 145.702C651.19 144.57 650.932 143.274 650.932 141.814C650.932 140.233 651.199 138.886 651.732 137.773C652.266 136.65 653.009 135.794 653.964 135.204C654.918 134.615 656.031 134.32 657.304 134.32C658.38 134.32 659.367 134.563 660.265 135.05C661.163 135.527 661.879 136.271 662.412 137.281C662.955 138.283 663.226 139.569 663.226 141.141C663.226 141.365 663.217 141.627 663.198 141.927C663.189 142.217 663.17 142.516 663.142 142.825H653.43C653.524 143.695 653.739 144.458 654.076 145.113C654.413 145.767 654.857 146.282 655.409 146.656C655.961 147.021 656.612 147.204 657.36 147.204C657.968 147.204 658.53 147.096 659.044 146.881C659.568 146.666 660.055 146.333 660.504 145.884L661.935 147.484C661.402 148.018 660.738 148.462 659.942 148.818C659.156 149.164 658.277 149.337 657.304 149.337ZM653.402 140.692H660.756C660.756 139.878 660.621 139.153 660.349 138.516C660.087 137.871 659.699 137.366 659.184 137.001C658.67 136.636 658.043 136.453 657.304 136.453C656.265 136.453 655.372 136.79 654.623 137.464C653.884 138.138 653.477 139.213 653.402 140.692ZM667.152 149V134.657H669.594V136.117C670.033 135.508 670.562 135.059 671.18 134.769C671.797 134.47 672.503 134.32 673.299 134.32C675.039 134.32 676.33 134.849 677.172 135.906C678.014 136.954 678.435 138.568 678.435 140.748V149H675.993V140.327C675.993 139.12 675.722 138.194 675.179 137.548C674.646 136.893 673.888 136.566 672.906 136.566C671.811 136.566 670.983 136.879 670.422 137.506C669.87 138.123 669.594 139.045 669.594 140.271V149H667.152ZM682.968 141.814V139.457H689.536V141.814H682.968ZM698.417 149.337C697.406 149.337 696.433 149.122 695.498 148.691C694.571 148.252 693.814 147.662 693.224 146.923L694.964 145.435C695.47 145.978 696.031 146.399 696.649 146.698C697.266 146.998 697.874 147.147 698.473 147.147C699.315 147.147 699.97 146.988 700.438 146.67C700.906 146.343 701.139 145.894 701.139 145.323C701.139 144.949 701.032 144.612 700.817 144.313C700.611 144.013 700.265 143.728 699.778 143.456C699.301 143.185 698.66 142.9 697.855 142.6C696.274 142.011 695.138 141.37 694.445 140.678C693.762 139.985 693.421 139.129 693.421 138.109C693.421 136.987 693.865 136.074 694.754 135.373C695.652 134.671 696.817 134.32 698.248 134.32C699.231 134.32 700.134 134.507 700.957 134.882C701.78 135.246 702.487 135.78 703.076 136.481L701.392 137.885C700.531 136.968 699.474 136.51 698.22 136.51C697.481 136.51 696.896 136.655 696.466 136.945C696.045 137.225 695.835 137.614 695.835 138.109C695.835 138.587 696.073 139.008 696.55 139.373C697.037 139.728 697.912 140.14 699.175 140.608C700.204 140.982 701.037 141.389 701.673 141.829C702.318 142.268 702.786 142.769 703.076 143.33C703.376 143.892 703.525 144.537 703.525 145.267C703.525 146.53 703.072 147.526 702.164 148.256C701.256 148.977 700.007 149.337 698.417 149.337ZM712.563 149.337C710.598 149.337 709.05 148.668 707.918 147.33C706.786 145.983 706.219 144.154 706.219 141.843C706.219 140.299 706.477 138.966 706.991 137.843C707.506 136.72 708.236 135.855 709.181 135.246C710.135 134.629 711.262 134.32 712.563 134.32C713.873 134.32 715 134.624 715.945 135.232C716.9 135.831 717.629 136.692 718.135 137.815C718.649 138.937 718.906 140.271 718.906 141.814C718.906 143.358 718.649 144.696 718.135 145.828C717.62 146.951 716.885 147.816 715.931 148.425C714.986 149.033 713.863 149.337 712.563 149.337ZM712.563 147.063C713.77 147.063 714.715 146.6 715.398 145.674C716.09 144.738 716.436 143.452 716.436 141.814C716.436 140.168 716.09 138.881 715.398 137.955C714.715 137.029 713.77 136.566 712.563 136.566C711.347 136.566 710.397 137.029 709.714 137.955C709.031 138.872 708.689 140.168 708.689 141.843C708.689 143.48 709.031 144.762 709.714 145.688C710.397 146.605 711.347 147.063 712.563 147.063ZM727.793 149.337C726.025 149.337 724.71 148.813 723.85 147.765C722.998 146.717 722.573 145.108 722.573 142.937V134.657H725.015V143.302C725.015 144.518 725.281 145.449 725.815 146.095C726.348 146.74 727.11 147.063 728.102 147.063C729.197 147.063 730.02 146.75 730.572 146.123C731.133 145.496 731.414 144.575 731.414 143.358V134.657H733.856V149H731.414V147.625C730.956 148.214 730.436 148.649 729.856 148.93C729.286 149.201 728.598 149.337 727.793 149.337ZM738.721 149V134.657H741.163V136.538C741.49 135.808 741.939 135.256 742.51 134.882C743.09 134.507 743.773 134.32 744.559 134.32C745.429 134.32 746.168 134.563 746.776 135.05L746.411 137.352C746.103 137.136 745.78 136.982 745.443 136.888C745.116 136.786 744.755 136.734 744.362 136.734C743.717 136.734 743.156 136.907 742.678 137.253C742.201 137.6 741.827 138.086 741.556 138.713C741.294 139.34 741.163 140.074 741.163 140.916V149H738.721ZM754.026 149.337C752.791 149.337 751.729 149.037 750.84 148.439C749.951 147.83 749.268 146.97 748.791 145.856C748.314 144.734 748.075 143.396 748.075 141.843C748.075 140.28 748.319 138.937 748.805 137.815C749.292 136.692 749.984 135.831 750.882 135.232C751.79 134.624 752.875 134.32 754.138 134.32C755.373 134.32 756.421 134.606 757.282 135.176C758.143 135.747 758.769 136.575 759.162 137.66L756.861 138.502C756.627 137.885 756.276 137.412 755.808 137.085C755.35 136.757 754.802 136.594 754.166 136.594C753.006 136.594 752.117 137.043 751.5 137.941C750.882 138.839 750.573 140.14 750.573 141.843C750.573 143.508 750.878 144.79 751.486 145.688C752.094 146.586 752.959 147.035 754.082 147.035C754.802 147.035 755.415 146.848 755.921 146.474C756.435 146.1 756.795 145.576 757.001 144.902L759.275 145.66C758.929 146.839 758.297 147.746 757.38 148.382C756.463 149.019 755.345 149.337 754.026 149.337ZM768.7 149.337C767.391 149.337 766.258 149.014 765.304 148.368C764.35 147.723 763.615 146.834 763.101 145.702C762.586 144.57 762.329 143.274 762.329 141.814C762.329 140.233 762.596 138.886 763.129 137.773C763.662 136.65 764.406 135.794 765.36 135.204C766.315 134.615 767.428 134.32 768.7 134.32C769.776 134.32 770.763 134.563 771.662 135.05C772.56 135.527 773.276 136.271 773.809 137.281C774.352 138.283 774.623 139.569 774.623 141.141C774.623 141.365 774.614 141.627 774.595 141.927C774.585 142.217 774.567 142.516 774.539 142.825H764.827C764.921 143.695 765.136 144.458 765.473 145.113C765.809 145.767 766.254 146.282 766.806 146.656C767.358 147.021 768.008 147.204 768.757 147.204C769.365 147.204 769.926 147.096 770.441 146.881C770.965 146.666 771.451 146.333 771.9 145.884L773.332 147.484C772.798 148.018 772.134 148.462 771.339 148.818C770.553 149.164 769.673 149.337 768.7 149.337ZM764.799 140.692H772.153C772.153 139.878 772.017 139.153 771.746 138.516C771.484 137.871 771.096 137.366 770.581 137.001C770.066 136.636 769.44 136.453 768.7 136.453C767.662 136.453 766.768 136.79 766.02 137.464C765.281 138.138 764.874 139.213 764.799 140.692ZM567.323 185V170.657H569.765V185H567.323ZM568.53 168.047C568.109 168.047 567.749 167.902 567.449 167.612C567.159 167.312 567.014 166.952 567.014 166.531C567.014 166.091 567.159 165.722 567.449 165.422C567.749 165.114 568.109 164.959 568.53 164.959C568.97 164.959 569.335 165.114 569.625 165.422C569.924 165.722 570.074 166.091 570.074 166.531C570.074 166.952 569.924 167.312 569.625 167.612C569.335 167.902 568.97 168.047 568.53 168.047ZM574.422 185V170.657H576.864V172.117C577.303 171.508 577.832 171.059 578.45 170.769C579.067 170.47 579.773 170.32 580.569 170.32C582.309 170.32 583.6 170.849 584.442 171.906C585.284 172.954 585.705 174.568 585.705 176.748V185H583.263V176.327C583.263 175.12 582.992 174.194 582.449 173.548C581.916 172.893 581.158 172.566 580.176 172.566C579.081 172.566 578.253 172.879 577.692 173.506C577.14 174.123 576.864 175.045 576.864 176.271V185H574.422ZM591.052 185V172.79H588.834V170.657H591.052V168.271C591.052 167.242 591.323 166.442 591.866 165.871C592.418 165.301 593.185 165.015 594.167 165.015C594.644 165.015 595.103 165.071 595.543 165.184C595.982 165.296 596.413 165.464 596.834 165.689V167.738C596.431 167.551 596.071 167.415 595.753 167.331C595.435 167.247 595.112 167.205 594.785 167.205C594.326 167.205 593.994 167.322 593.788 167.555C593.592 167.78 593.494 168.159 593.494 168.692V170.657H596.834V172.79H593.494V185H591.052ZM599.585 185V170.657H602.027V172.538C602.354 171.808 602.803 171.256 603.374 170.882C603.954 170.507 604.637 170.32 605.423 170.32C606.293 170.32 607.032 170.563 607.64 171.05L607.275 173.352C606.967 173.136 606.644 172.982 606.307 172.888C605.98 172.786 605.619 172.734 605.226 172.734C604.581 172.734 604.019 172.907 603.542 173.253C603.065 173.6 602.691 174.086 602.42 174.713C602.158 175.34 602.027 176.074 602.027 176.916V185H599.585ZM614.1 185.337C612.547 185.337 611.326 184.906 610.437 184.046C609.548 183.185 609.104 182.006 609.104 180.509C609.104 179.545 609.324 178.708 609.763 177.997C610.203 177.286 610.825 176.739 611.63 176.355C612.435 175.962 613.38 175.765 614.465 175.765C615.167 175.765 615.821 175.845 616.43 176.004C617.047 176.154 617.627 176.383 618.17 176.692V175.681C618.17 174.568 617.917 173.754 617.412 173.239C616.907 172.715 616.121 172.453 615.054 172.453C614.371 172.453 613.66 172.58 612.921 172.832C612.191 173.085 611.508 173.436 610.872 173.885L610.17 171.836C610.891 171.359 611.709 170.989 612.626 170.727C613.553 170.456 614.465 170.32 615.363 170.32C617.066 170.32 618.343 170.755 619.194 171.625C620.046 172.486 620.471 173.773 620.471 175.485V185H618.17V183.681C617.609 184.214 616.977 184.626 616.275 184.916C615.574 185.196 614.848 185.337 614.1 185.337ZM614.465 183.204C615.129 183.204 615.784 183.04 616.43 182.712C617.085 182.385 617.665 181.922 618.17 181.323V178.853C617.693 178.554 617.15 178.32 616.542 178.151C615.934 177.983 615.354 177.899 614.802 177.899C613.754 177.899 612.926 178.137 612.318 178.614C611.709 179.082 611.405 179.723 611.405 180.537C611.405 181.36 611.677 182.011 612.219 182.488C612.762 182.965 613.511 183.204 614.465 183.204ZM628.958 185.337C627.948 185.337 626.975 185.122 626.039 184.691C625.113 184.252 624.355 183.662 623.766 182.923L625.506 181.435C626.011 181.978 626.573 182.399 627.19 182.698C627.808 182.998 628.416 183.147 629.015 183.147C629.857 183.147 630.512 182.988 630.979 182.67C631.447 182.343 631.681 181.894 631.681 181.323C631.681 180.949 631.574 180.612 631.358 180.313C631.152 180.013 630.806 179.728 630.32 179.456C629.843 179.185 629.202 178.9 628.397 178.6C626.816 178.011 625.679 177.37 624.987 176.678C624.304 175.985 623.962 175.129 623.962 174.109C623.962 172.987 624.407 172.074 625.296 171.373C626.194 170.671 627.359 170.32 628.79 170.32C629.772 170.32 630.675 170.507 631.499 170.882C632.322 171.246 633.028 171.78 633.618 172.481L631.934 173.885C631.073 172.968 630.016 172.51 628.762 172.51C628.023 172.51 627.438 172.655 627.008 172.945C626.587 173.225 626.376 173.614 626.376 174.109C626.376 174.587 626.615 175.008 627.092 175.373C627.578 175.728 628.453 176.14 629.716 176.608C630.745 176.982 631.578 177.389 632.214 177.829C632.86 178.268 633.328 178.769 633.618 179.33C633.917 179.892 634.067 180.537 634.067 181.267C634.067 182.53 633.613 183.526 632.706 184.256C631.798 184.977 630.549 185.337 628.958 185.337ZM641.589 185.337C640.606 185.337 639.853 185.042 639.329 184.453C638.815 183.863 638.557 183.016 638.557 181.912V172.79H636.228V170.657H638.557V165.913L640.999 164.735V170.657H644.536V172.79H640.999V181.098C640.999 181.781 641.116 182.282 641.35 182.6C641.594 182.909 641.972 183.063 642.487 183.063C643.142 183.063 643.853 182.811 644.62 182.305L644.34 184.691C643.919 184.916 643.479 185.08 643.02 185.182C642.571 185.285 642.094 185.337 641.589 185.337ZM647.087 185V170.657H649.529V172.538C649.857 171.808 650.306 171.256 650.876 170.882C651.456 170.507 652.139 170.32 652.925 170.32C653.796 170.32 654.535 170.563 655.143 171.05L654.778 173.352C654.469 173.136 654.146 172.982 653.81 172.888C653.482 172.786 653.122 172.734 652.729 172.734C652.083 172.734 651.522 172.907 651.045 173.253C650.568 173.6 650.193 174.086 649.922 174.713C649.66 175.34 649.529 176.074 649.529 176.916V185H647.087ZM662.803 185.337C661.035 185.337 659.72 184.813 658.859 183.765C658.008 182.717 657.582 181.108 657.582 178.937V170.657H660.024V179.302C660.024 180.518 660.291 181.449 660.824 182.095C661.357 182.74 662.12 183.063 663.112 183.063C664.206 183.063 665.03 182.75 665.582 182.123C666.143 181.496 666.424 180.575 666.424 179.358V170.657H668.866V185H666.424V183.625C665.965 184.214 665.446 184.649 664.866 184.93C664.295 185.201 663.607 185.337 662.803 185.337ZM678.51 185.337C677.275 185.337 676.213 185.037 675.324 184.439C674.435 183.83 673.752 182.97 673.275 181.856C672.798 180.734 672.559 179.396 672.559 177.843C672.559 176.28 672.803 174.937 673.289 173.815C673.776 172.692 674.468 171.831 675.366 171.232C676.274 170.624 677.359 170.32 678.622 170.32C679.857 170.32 680.905 170.606 681.766 171.176C682.626 171.747 683.253 172.575 683.646 173.66L681.345 174.502C681.111 173.885 680.76 173.412 680.292 173.085C679.834 172.757 679.286 172.594 678.65 172.594C677.49 172.594 676.601 173.043 675.984 173.941C675.366 174.839 675.057 176.14 675.057 177.843C675.057 179.508 675.361 180.79 675.97 181.688C676.578 182.586 677.443 183.035 678.566 183.035C679.286 183.035 679.899 182.848 680.404 182.474C680.919 182.1 681.279 181.576 681.485 180.902L683.759 181.66C683.412 182.839 682.781 183.746 681.864 184.382C680.947 185.019 679.829 185.337 678.51 185.337ZM691.147 185.337C690.165 185.337 689.412 185.042 688.888 184.453C688.373 183.863 688.116 183.016 688.116 181.912V172.79H685.786V170.657H688.116V165.913L690.558 164.735V170.657H694.094V172.79H690.558V181.098C690.558 181.781 690.675 182.282 690.909 182.6C691.152 182.909 691.531 183.063 692.045 183.063C692.7 183.063 693.411 182.811 694.179 182.305L693.898 184.691C693.477 184.916 693.037 185.08 692.579 185.182C692.13 185.285 691.652 185.337 691.147 185.337ZM702.137 185.337C700.369 185.337 699.054 184.813 698.193 183.765C697.342 182.717 696.916 181.108 696.916 178.937V170.657H699.358V179.302C699.358 180.518 699.625 181.449 700.158 182.095C700.692 182.74 701.454 183.063 702.446 183.063C703.54 183.063 704.364 182.75 704.916 182.123C705.477 181.496 705.758 180.575 705.758 179.358V170.657H708.2V185H705.758V183.625C705.299 184.214 704.78 184.649 704.2 184.93C703.629 185.201 702.942 185.337 702.137 185.337ZM713.064 185V170.657H715.506V172.538C715.834 171.808 716.283 171.256 716.854 170.882C717.434 170.507 718.117 170.32 718.903 170.32C719.773 170.32 720.512 170.563 721.12 171.05L720.755 173.352C720.446 173.136 720.124 172.982 719.787 172.888C719.459 172.786 719.099 172.734 718.706 172.734C718.061 172.734 717.499 172.907 717.022 173.253C716.545 173.6 716.171 174.086 715.899 174.713C715.637 175.34 715.506 176.074 715.506 176.916V185H713.064ZM728.791 185.337C727.481 185.337 726.349 185.014 725.394 184.368C724.44 183.723 723.706 182.834 723.191 181.702C722.676 180.57 722.419 179.274 722.419 177.814C722.419 176.233 722.686 174.886 723.219 173.773C723.752 172.65 724.496 171.794 725.451 171.204C726.405 170.615 727.518 170.32 728.791 170.32C729.867 170.32 730.854 170.563 731.752 171.05C732.65 171.527 733.366 172.271 733.899 173.281C734.442 174.283 734.713 175.569 734.713 177.141C734.713 177.365 734.704 177.627 734.685 177.927C734.676 178.217 734.657 178.516 734.629 178.825H724.917C725.011 179.695 725.226 180.458 725.563 181.113C725.9 181.767 726.344 182.282 726.896 182.656C727.448 183.021 728.098 183.204 728.847 183.204C729.455 183.204 730.016 183.096 730.531 182.881C731.055 182.666 731.541 182.333 731.99 181.884L733.422 183.484C732.889 184.018 732.224 184.462 731.429 184.818C730.643 185.164 729.764 185.337 728.791 185.337ZM724.889 176.692H732.243C732.243 175.878 732.107 175.153 731.836 174.516C731.574 173.871 731.186 173.366 730.671 173.001C730.157 172.636 729.53 172.453 728.791 172.453C727.752 172.453 726.859 172.79 726.11 173.464C725.371 174.138 724.964 175.213 724.889 176.692Z" fill="black"/>
<path d="M1090.64 53.24C1089.38 53.24 1088.45 52.8667 1087.83 52.12C1087.23 51.3733 1086.92 50.2267 1086.92 48.68V42.78H1088.66V48.94C1088.66 49.8067 1088.85 50.47 1089.23 50.93C1089.61 51.39 1090.16 51.62 1090.86 51.62C1091.64 51.62 1092.23 51.3967 1092.62 50.95C1093.02 50.5033 1093.22 49.8467 1093.22 48.98V42.78H1094.96V53H1093.22V52.02C1092.9 52.44 1092.53 52.75 1092.11 52.95C1091.71 53.1433 1091.22 53.24 1090.64 53.24ZM1101.31 53.24C1100.59 53.24 1099.9 53.0867 1099.23 52.78C1098.57 52.4667 1098.03 52.0467 1097.61 51.52L1098.85 50.46C1099.21 50.8467 1099.61 51.1467 1100.05 51.36C1100.49 51.5733 1100.93 51.68 1101.35 51.68C1101.95 51.68 1102.42 51.5667 1102.75 51.34C1103.09 51.1067 1103.25 50.7867 1103.25 50.38C1103.25 50.1133 1103.18 49.8733 1103.02 49.66C1102.88 49.4467 1102.63 49.2433 1102.28 49.05C1101.94 48.8567 1101.49 48.6533 1100.91 48.44C1099.79 48.02 1098.98 47.5633 1098.48 47.07C1098 46.5767 1097.75 45.9667 1097.75 45.24C1097.75 44.44 1098.07 43.79 1098.7 43.29C1099.34 42.79 1100.17 42.54 1101.19 42.54C1101.89 42.54 1102.54 42.6733 1103.12 42.94C1103.71 43.2 1104.21 43.58 1104.63 44.08L1103.43 45.08C1102.82 44.4267 1102.07 44.1 1101.17 44.1C1100.65 44.1 1100.23 44.2033 1099.92 44.41C1099.62 44.61 1099.47 44.8867 1099.47 45.24C1099.47 45.58 1099.64 45.88 1099.98 46.14C1100.33 46.3933 1100.95 46.6867 1101.85 47.02C1102.59 47.2867 1103.18 47.5767 1103.63 47.89C1104.09 48.2033 1104.43 48.56 1104.63 48.96C1104.85 49.36 1104.95 49.82 1104.95 50.34C1104.95 51.24 1104.63 51.95 1103.98 52.47C1103.34 52.9833 1102.45 53.24 1101.31 53.24ZM1111.41 53.24C1110.48 53.24 1109.67 53.01 1108.99 52.55C1108.31 52.09 1107.79 51.4567 1107.42 50.65C1107.06 49.8433 1106.87 48.92 1106.87 47.88C1106.87 46.7533 1107.06 45.7933 1107.44 45C1107.82 44.2 1108.35 43.59 1109.03 43.17C1109.71 42.75 1110.51 42.54 1111.41 42.54C1112.18 42.54 1112.88 42.7133 1113.52 43.06C1114.16 43.4 1114.67 43.93 1115.05 44.65C1115.44 45.3633 1115.63 46.28 1115.63 47.4C1115.63 47.56 1115.63 47.7467 1115.61 47.96C1115.61 48.1667 1115.59 48.38 1115.57 48.6H1108.65C1108.72 49.22 1108.87 49.7633 1109.11 50.23C1109.35 50.6967 1109.67 51.0633 1110.06 51.33C1110.46 51.59 1110.92 51.72 1111.45 51.72C1111.89 51.72 1112.29 51.6433 1112.65 51.49C1113.03 51.3367 1113.37 51.1 1113.69 50.78L1114.71 51.92C1114.33 52.3 1113.86 52.6167 1113.29 52.87C1112.73 53.1167 1112.11 53.24 1111.41 53.24ZM1108.63 47.08H1113.87C1113.87 46.5 1113.78 45.9833 1113.58 45.53C1113.4 45.07 1113.12 44.71 1112.75 44.45C1112.39 44.19 1111.94 44.06 1111.41 44.06C1110.67 44.06 1110.04 44.3 1109.5 44.78C1108.98 45.26 1108.69 46.0267 1108.63 47.08ZM1118.43 53V42.78H1120.17V44.12C1120.4 43.6 1120.72 43.2067 1121.13 42.94C1121.54 42.6733 1122.03 42.54 1122.59 42.54C1123.21 42.54 1123.74 42.7133 1124.17 43.06L1123.91 44.7C1123.69 44.5467 1123.46 44.4367 1123.22 44.37C1122.99 44.2967 1122.73 44.26 1122.45 44.26C1121.99 44.26 1121.59 44.3833 1121.25 44.63C1120.91 44.8767 1120.64 45.2233 1120.45 45.67C1120.26 46.1167 1120.17 46.64 1120.17 47.24V53H1118.43ZM1132.39 53V41.84H1130.05V40.66C1130.51 40.66 1130.93 40.61 1131.3 40.51C1131.67 40.4033 1131.99 40.23 1132.26 39.99C1132.53 39.75 1132.73 39.42 1132.87 39H1134.13V53H1132.39ZM1143.38 53V39H1148.74C1149.87 39 1150.77 39.2067 1151.43 39.62C1152.09 40.0267 1152.56 40.5533 1152.84 41.2C1153.12 41.84 1153.26 42.5067 1153.26 43.2C1153.26 43.68 1153.17 44.1667 1153.01 44.66C1152.85 45.1467 1152.59 45.5967 1152.23 46.01C1151.87 46.4233 1151.4 46.7567 1150.83 47.01C1150.25 47.2567 1149.56 47.38 1148.74 47.38H1145.12V53H1143.38ZM1145.12 45.76H1148.86C1149.52 45.76 1150.04 45.63 1150.43 45.37C1150.82 45.11 1151.1 44.7833 1151.27 44.39C1151.43 43.9967 1151.52 43.6 1151.52 43.2C1151.52 42.8333 1151.44 42.45 1151.29 42.05C1151.14 41.65 1150.87 41.3133 1150.49 41.04C1150.1 40.76 1149.56 40.62 1148.86 40.62H1145.12V45.76ZM1159.67 53.24C1158.74 53.24 1157.93 53.01 1157.25 52.55C1156.57 52.09 1156.05 51.4567 1155.68 50.65C1155.32 49.8433 1155.13 48.92 1155.13 47.88C1155.13 46.7533 1155.32 45.7933 1155.7 45C1156.08 44.2 1156.61 43.59 1157.29 43.17C1157.97 42.75 1158.77 42.54 1159.67 42.54C1160.44 42.54 1161.14 42.7133 1161.78 43.06C1162.42 43.4 1162.93 43.93 1163.31 44.65C1163.7 45.3633 1163.89 46.28 1163.89 47.4C1163.89 47.56 1163.89 47.7467 1163.87 47.96C1163.87 48.1667 1163.85 48.38 1163.83 48.6H1156.91C1156.98 49.22 1157.13 49.7633 1157.37 50.23C1157.61 50.6967 1157.93 51.0633 1158.32 51.33C1158.72 51.59 1159.18 51.72 1159.71 51.72C1160.15 51.72 1160.55 51.6433 1160.91 51.49C1161.29 51.3367 1161.63 51.1 1161.95 50.78L1162.97 51.92C1162.59 52.3 1162.12 52.6167 1161.55 52.87C1160.99 53.1167 1160.37 53.24 1159.67 53.24ZM1156.89 47.08H1162.13C1162.13 46.5 1162.04 45.9833 1161.84 45.53C1161.66 45.07 1161.38 44.71 1161.01 44.45C1160.65 44.19 1160.2 44.06 1159.67 44.06C1158.93 44.06 1158.3 44.3 1157.76 44.78C1157.24 45.26 1156.95 46.0267 1156.89 47.08ZM1166.69 53V42.78H1168.43V44.12C1168.66 43.6 1168.98 43.2067 1169.39 42.94C1169.8 42.6733 1170.29 42.54 1170.85 42.54C1171.47 42.54 1172 42.7133 1172.43 43.06L1172.17 44.7C1171.95 44.5467 1171.72 44.4367 1171.48 44.37C1171.25 44.2967 1170.99 44.26 1170.71 44.26C1170.25 44.26 1169.85 44.3833 1169.51 44.63C1169.17 44.8767 1168.9 45.2233 1168.71 45.67C1168.52 46.1167 1168.43 46.64 1168.43 47.24V53H1166.69ZM1177.29 53.24C1176.57 53.24 1175.88 53.0867 1175.21 52.78C1174.55 52.4667 1174.01 52.0467 1173.59 51.52L1174.83 50.46C1175.19 50.8467 1175.59 51.1467 1176.03 51.36C1176.47 51.5733 1176.9 51.68 1177.33 51.68C1177.93 51.68 1178.4 51.5667 1178.73 51.34C1179.06 51.1067 1179.23 50.7867 1179.23 50.38C1179.23 50.1133 1179.15 49.8733 1179 49.66C1178.85 49.4467 1178.61 49.2433 1178.26 49.05C1177.92 48.8567 1177.46 48.6533 1176.89 48.44C1175.76 48.02 1174.95 47.5633 1174.46 47.07C1173.97 46.5767 1173.73 45.9667 1173.73 45.24C1173.73 44.44 1174.05 43.79 1174.68 43.29C1175.32 42.79 1176.15 42.54 1177.17 42.54C1177.87 42.54 1178.51 42.6733 1179.1 42.94C1179.69 43.2 1180.19 43.58 1180.61 44.08L1179.41 45.08C1178.8 44.4267 1178.04 44.1 1177.15 44.1C1176.62 44.1 1176.21 44.2033 1175.9 44.41C1175.6 44.61 1175.45 44.8867 1175.45 45.24C1175.45 45.58 1175.62 45.88 1175.96 46.14C1176.31 46.3933 1176.93 46.6867 1177.83 47.02C1178.56 47.2867 1179.16 47.5767 1179.61 47.89C1180.07 48.2033 1180.4 48.56 1180.61 48.96C1180.82 49.36 1180.93 49.82 1180.93 50.34C1180.93 51.24 1180.61 51.95 1179.96 52.47C1179.31 52.9833 1178.42 53.24 1177.29 53.24ZM1187.37 53.24C1185.97 53.24 1184.87 52.7633 1184.06 51.81C1183.25 50.85 1182.85 49.5467 1182.85 47.9C1182.85 46.8 1183.03 45.85 1183.4 45.05C1183.77 44.25 1184.29 43.6333 1184.96 43.2C1185.64 42.76 1186.44 42.54 1187.37 42.54C1188.3 42.54 1189.11 42.7567 1189.78 43.19C1190.46 43.6167 1190.98 44.23 1191.34 45.03C1191.71 45.83 1191.89 46.78 1191.89 47.88C1191.89 48.98 1191.71 49.9333 1191.34 50.74C1190.97 51.54 1190.45 52.1567 1189.77 52.59C1189.1 53.0233 1188.3 53.24 1187.37 53.24ZM1187.37 51.62C1188.23 51.62 1188.9 51.29 1189.39 50.63C1189.88 49.9633 1190.13 49.0467 1190.13 47.88C1190.13 46.7067 1189.88 45.79 1189.39 45.13C1188.9 44.47 1188.23 44.14 1187.37 44.14C1186.5 44.14 1185.83 44.47 1185.34 45.13C1184.85 45.7833 1184.61 46.7067 1184.61 47.9C1184.61 49.0667 1184.85 49.98 1185.34 50.64C1185.83 51.2933 1186.5 51.62 1187.37 51.62ZM1194.5 53V42.78H1196.24V43.82C1196.56 43.3867 1196.93 43.0667 1197.37 42.86C1197.81 42.6467 1198.32 42.54 1198.88 42.54C1200.12 42.54 1201.04 42.9167 1201.64 43.67C1202.24 44.4167 1202.54 45.5667 1202.54 47.12V53H1200.8V46.82C1200.8 45.96 1200.61 45.3 1200.22 44.84C1199.84 44.3733 1199.3 44.14 1198.6 44.14C1197.82 44.14 1197.23 44.3633 1196.83 44.81C1196.44 45.25 1196.24 45.9067 1196.24 46.78V53H1194.5ZM1208.83 53.24C1207.72 53.24 1206.85 52.9333 1206.22 52.32C1205.59 51.7067 1205.27 50.8667 1205.27 49.8C1205.27 49.1133 1205.43 48.5167 1205.74 48.01C1206.05 47.5033 1206.5 47.1133 1207.07 46.84C1207.64 46.56 1208.32 46.42 1209.09 46.42C1209.59 46.42 1210.06 46.4767 1210.49 46.59C1210.93 46.6967 1211.34 46.86 1211.73 47.08V46.36C1211.73 45.5667 1211.55 44.9867 1211.19 44.62C1210.83 44.2467 1210.27 44.06 1209.51 44.06C1209.02 44.06 1208.52 44.15 1207.99 44.33C1207.47 44.51 1206.98 44.76 1206.53 45.08L1206.03 43.62C1206.54 43.28 1207.13 43.0167 1207.78 42.83C1208.44 42.6367 1209.09 42.54 1209.73 42.54C1210.94 42.54 1211.85 42.85 1212.46 43.47C1213.07 44.0833 1213.37 45 1213.37 46.22V53H1211.73V52.06C1211.33 52.44 1210.88 52.7333 1210.38 52.94C1209.88 53.14 1209.36 53.24 1208.83 53.24ZM1209.09 51.72C1209.56 51.72 1210.03 51.6033 1210.49 51.37C1210.96 51.1367 1211.37 50.8067 1211.73 50.38V48.62C1211.39 48.4067 1211 48.24 1210.57 48.12C1210.14 48 1209.72 47.94 1209.33 47.94C1208.58 47.94 1207.99 48.11 1207.56 48.45C1207.13 48.7833 1206.91 49.24 1206.91 49.82C1206.91 50.4067 1207.1 50.87 1207.49 51.21C1207.88 51.55 1208.41 51.72 1209.09 51.72ZM1216.5 53V39.38L1218.24 38.56V53H1216.5ZM1226.64 53V39H1230.46C1231.66 39 1232.67 39.2 1233.5 39.6C1234.33 40 1235 40.5367 1235.51 41.21C1236.02 41.8767 1236.38 42.6267 1236.61 43.46C1236.84 44.2867 1236.96 45.1333 1236.96 46C1236.96 46.8067 1236.85 47.62 1236.64 48.44C1236.43 49.26 1236.07 50.0167 1235.57 50.71C1235.08 51.3967 1234.41 51.95 1233.56 52.37C1232.71 52.79 1231.65 53 1230.38 53H1226.64ZM1228.38 51.38H1230.6C1231.47 51.38 1232.2 51.2233 1232.78 50.91C1233.37 50.59 1233.83 50.17 1234.18 49.65C1234.53 49.1233 1234.78 48.5433 1234.93 47.91C1235.08 47.27 1235.16 46.6333 1235.16 46C1235.16 45.32 1235.08 44.66 1234.91 44.02C1234.75 43.3733 1234.49 42.7933 1234.14 42.28C1233.79 41.7667 1233.35 41.36 1232.8 41.06C1232.25 40.7533 1231.59 40.6 1230.82 40.6H1228.38V51.38ZM1242.58 53.24C1241.47 53.24 1240.6 52.9333 1239.97 52.32C1239.34 51.7067 1239.02 50.8667 1239.02 49.8C1239.02 49.1133 1239.18 48.5167 1239.49 48.01C1239.8 47.5033 1240.25 47.1133 1240.82 46.84C1241.39 46.56 1242.07 46.42 1242.84 46.42C1243.34 46.42 1243.81 46.4767 1244.24 46.59C1244.68 46.6967 1245.09 46.86 1245.48 47.08V46.36C1245.48 45.5667 1245.3 44.9867 1244.94 44.62C1244.58 44.2467 1244.02 44.06 1243.26 44.06C1242.77 44.06 1242.27 44.15 1241.74 44.33C1241.22 44.51 1240.73 44.76 1240.28 45.08L1239.78 43.62C1240.29 43.28 1240.88 43.0167 1241.53 42.83C1242.19 42.6367 1242.84 42.54 1243.48 42.54C1244.69 42.54 1245.6 42.85 1246.21 43.47C1246.82 44.0833 1247.12 45 1247.12 46.22V53H1245.48V52.06C1245.08 52.44 1244.63 52.7333 1244.13 52.94C1243.63 53.14 1243.11 53.24 1242.58 53.24ZM1242.84 51.72C1243.31 51.72 1243.78 51.6033 1244.24 51.37C1244.71 51.1367 1245.12 50.8067 1245.48 50.38V48.62C1245.14 48.4067 1244.75 48.24 1244.32 48.12C1243.89 48 1243.47 47.94 1243.08 47.94C1242.33 47.94 1241.74 48.11 1241.31 48.45C1240.88 48.7833 1240.66 49.24 1240.66 49.82C1240.66 50.4067 1240.85 50.87 1241.24 51.21C1241.63 51.55 1242.16 51.72 1242.84 51.72ZM1252.7 53.24C1252 53.24 1251.46 53.03 1251.09 52.61C1250.72 52.19 1250.54 51.5867 1250.54 50.8V44.3H1248.88V42.78H1250.54V39.4L1252.28 38.56V42.78H1254.8V44.3H1252.28V50.22C1252.28 50.7067 1252.36 51.0633 1252.53 51.29C1252.7 51.51 1252.97 51.62 1253.34 51.62C1253.8 51.62 1254.31 51.44 1254.86 51.08L1254.66 52.78C1254.36 52.94 1254.04 53.0567 1253.72 53.13C1253.4 53.2033 1253.06 53.24 1252.7 53.24ZM1260.18 53.24C1259.07 53.24 1258.2 52.9333 1257.57 52.32C1256.94 51.7067 1256.62 50.8667 1256.62 49.8C1256.62 49.1133 1256.78 48.5167 1257.09 48.01C1257.4 47.5033 1257.85 47.1133 1258.42 46.84C1258.99 46.56 1259.67 46.42 1260.44 46.42C1260.94 46.42 1261.41 46.4767 1261.84 46.59C1262.28 46.6967 1262.69 46.86 1263.08 47.08V46.36C1263.08 45.5667 1262.9 44.9867 1262.54 44.62C1262.18 44.2467 1261.62 44.06 1260.86 44.06C1260.37 44.06 1259.87 44.15 1259.34 44.33C1258.82 44.51 1258.33 44.76 1257.88 45.08L1257.38 43.62C1257.89 43.28 1258.48 43.0167 1259.13 42.83C1259.79 42.6367 1260.44 42.54 1261.08 42.54C1262.29 42.54 1263.2 42.85 1263.81 43.47C1264.42 44.0833 1264.72 45 1264.72 46.22V53H1263.08V52.06C1262.68 52.44 1262.23 52.7333 1261.73 52.94C1261.23 53.14 1260.71 53.24 1260.18 53.24ZM1260.44 51.72C1260.91 51.72 1261.38 51.6033 1261.84 51.37C1262.31 51.1367 1262.72 50.8067 1263.08 50.38V48.62C1262.74 48.4067 1262.35 48.24 1261.92 48.12C1261.49 48 1261.07 47.94 1260.68 47.94C1259.93 47.94 1259.34 48.11 1258.91 48.45C1258.48 48.7833 1258.26 49.24 1258.26 49.82C1258.26 50.4067 1258.45 50.87 1258.84 51.21C1259.23 51.55 1259.76 51.72 1260.44 51.72ZM1276.83 53.24C1276.02 53.24 1275.28 53.1067 1274.62 52.84C1273.96 52.5667 1273.4 52.1967 1272.94 51.73C1272.49 51.2567 1272.16 50.72 1271.95 50.12L1273.59 49.52C1273.87 50.14 1274.3 50.6433 1274.86 51.03C1275.44 51.41 1276.11 51.6 1276.87 51.6C1277.71 51.6 1278.38 51.4 1278.88 51C1279.38 50.5933 1279.63 50.0067 1279.63 49.24C1279.63 48.7 1279.48 48.2467 1279.18 47.88C1278.88 47.5133 1278.49 47.2067 1278.01 46.96C1277.53 46.7067 1277.02 46.48 1276.47 46.28C1275.99 46.1 1275.5 45.9 1275.01 45.68C1274.53 45.46 1274.08 45.2 1273.68 44.9C1273.29 44.5933 1272.97 44.2233 1272.73 43.79C1272.49 43.35 1272.37 42.8267 1272.37 42.22C1272.37 41.5933 1272.54 41.02 1272.88 40.5C1273.22 39.9733 1273.71 39.5533 1274.35 39.24C1274.99 38.92 1275.77 38.76 1276.67 38.76C1277.41 38.76 1278.06 38.87 1278.62 39.09C1279.19 39.3033 1279.65 39.6 1280.01 39.98C1280.38 40.3533 1280.63 40.78 1280.77 41.26L1279.17 41.8C1279.01 41.4067 1278.7 41.0733 1278.25 40.8C1277.81 40.52 1277.25 40.38 1276.55 40.38C1275.81 40.38 1275.23 40.5433 1274.8 40.87C1274.38 41.1967 1274.17 41.6467 1274.17 42.22C1274.17 42.6533 1274.31 43.0167 1274.59 43.31C1274.88 43.5967 1275.25 43.8467 1275.71 44.06C1276.17 44.2733 1276.67 44.48 1277.19 44.68C1277.69 44.8667 1278.18 45.08 1278.67 45.32C1279.17 45.5533 1279.63 45.84 1280.04 46.18C1280.46 46.52 1280.8 46.9367 1281.05 47.43C1281.31 47.9167 1281.43 48.5067 1281.43 49.2C1281.43 50.06 1281.23 50.79 1280.83 51.39C1280.43 51.99 1279.89 52.45 1279.19 52.77C1278.5 53.0833 1277.71 53.24 1276.83 53.24ZM1287.07 53.24C1286.37 53.24 1285.83 53.03 1285.46 52.61C1285.09 52.19 1284.91 51.5867 1284.91 50.8V44.3H1283.25V42.78H1284.91V39.4L1286.65 38.56V42.78H1289.17V44.3H1286.65V50.22C1286.65 50.7067 1286.73 51.0633 1286.9 51.29C1287.07 51.51 1287.34 51.62 1287.71 51.62C1288.18 51.62 1288.68 51.44 1289.23 51.08L1289.03 52.78C1288.73 52.94 1288.42 53.0567 1288.09 53.13C1287.77 53.2033 1287.43 53.24 1287.07 53.24ZM1295.51 53.24C1294.11 53.24 1293.01 52.7633 1292.2 51.81C1291.4 50.85 1290.99 49.5467 1290.99 47.9C1290.99 46.8 1291.18 45.85 1291.54 45.05C1291.91 44.25 1292.43 43.6333 1293.1 43.2C1293.78 42.76 1294.59 42.54 1295.51 42.54C1296.45 42.54 1297.25 42.7567 1297.92 43.19C1298.6 43.6167 1299.12 44.23 1299.48 45.03C1299.85 45.83 1300.03 46.78 1300.03 47.88C1300.03 48.98 1299.85 49.9333 1299.48 50.74C1299.12 51.54 1298.59 52.1567 1297.91 52.59C1297.24 53.0233 1296.44 53.24 1295.51 53.24ZM1295.51 51.62C1296.37 51.62 1297.05 51.29 1297.53 50.63C1298.03 49.9633 1298.27 49.0467 1298.27 47.88C1298.27 46.7067 1298.03 45.79 1297.53 45.13C1297.05 44.47 1296.37 44.14 1295.51 44.14C1294.65 44.14 1293.97 44.47 1293.48 45.13C1293 45.7833 1292.75 46.7067 1292.75 47.9C1292.75 49.0667 1293 49.98 1293.48 50.64C1293.97 51.2933 1294.65 51.62 1295.51 51.62ZM1302.65 53V42.78H1304.39V44.12C1304.62 43.6 1304.94 43.2067 1305.35 42.94C1305.76 42.6733 1306.25 42.54 1306.81 42.54C1307.43 42.54 1307.95 42.7133 1308.39 43.06L1308.13 44.7C1307.91 44.5467 1307.68 44.4367 1307.44 44.37C1307.2 44.2967 1306.95 44.26 1306.67 44.26C1306.21 44.26 1305.81 44.3833 1305.47 44.63C1305.13 44.8767 1304.86 45.2233 1304.67 45.67C1304.48 46.1167 1304.39 46.64 1304.39 47.24V53H1302.65ZM1313.85 53.24C1312.92 53.24 1312.11 53.01 1311.43 52.55C1310.75 52.09 1310.23 51.4567 1309.86 50.65C1309.5 49.8433 1309.31 48.92 1309.31 47.88C1309.31 46.7533 1309.5 45.7933 1309.88 45C1310.26 44.2 1310.79 43.59 1311.47 43.17C1312.15 42.75 1312.95 42.54 1313.85 42.54C1314.62 42.54 1315.32 42.7133 1315.96 43.06C1316.6 43.4 1317.11 43.93 1317.49 44.65C1317.88 45.3633 1318.07 46.28 1318.07 47.4C1318.07 47.56 1318.07 47.7467 1318.05 47.96C1318.05 48.1667 1318.03 48.38 1318.01 48.6H1311.09C1311.16 49.22 1311.31 49.7633 1311.55 50.23C1311.79 50.6967 1312.11 51.0633 1312.5 51.33C1312.9 51.59 1313.36 51.72 1313.89 51.72C1314.33 51.72 1314.73 51.6433 1315.09 51.49C1315.47 51.3367 1315.81 51.1 1316.13 50.78L1317.15 51.92C1316.77 52.3 1316.3 52.6167 1315.73 52.87C1315.17 53.1167 1314.55 53.24 1313.85 53.24ZM1311.07 47.08H1316.31C1316.31 46.5 1316.22 45.9833 1316.02 45.53C1315.84 45.07 1315.56 44.71 1315.19 44.45C1314.83 44.19 1314.38 44.06 1313.85 44.06C1313.11 44.06 1312.48 44.3 1311.94 44.78C1311.42 45.26 1311.13 46.0267 1311.07 47.08ZM1327.72 55.6C1327.32 55.0667 1326.93 54.42 1326.55 53.66C1326.18 52.9 1325.87 52 1325.63 50.96C1325.4 49.9133 1325.28 48.7 1325.28 47.32C1325.28 45.94 1325.41 44.7067 1325.66 43.62C1325.92 42.5267 1326.26 41.5767 1326.66 40.77C1327.07 39.9633 1327.5 39.2933 1327.94 38.76H1329.62C1329.44 38.9867 1329.2 39.3533 1328.9 39.86C1328.62 40.36 1328.33 40.98 1328.03 41.72C1327.74 42.46 1327.49 43.3033 1327.29 44.25C1327.1 45.19 1327 46.2133 1327 47.32C1327 48.4333 1327.1 49.45 1327.28 50.37C1327.47 51.2833 1327.7 52.0933 1327.96 52.8C1328.24 53.5 1328.51 54.0833 1328.77 54.55C1329.04 55.0233 1329.25 55.3733 1329.4 55.6H1327.72ZM1332.54 53V39H1337.9C1339.03 39 1339.93 39.2067 1340.59 39.62C1341.25 40.0267 1341.72 40.5533 1342 41.2C1342.28 41.84 1342.42 42.5067 1342.42 43.2C1342.42 43.68 1342.33 44.1667 1342.17 44.66C1342.01 45.1467 1341.75 45.5967 1341.39 46.01C1341.03 46.4233 1340.56 46.7567 1339.99 47.01C1339.41 47.2567 1338.72 47.38 1337.9 47.38H1334.28V53H1332.54ZM1334.28 45.76H1338.02C1338.68 45.76 1339.2 45.63 1339.59 45.37C1339.98 45.11 1340.26 44.7833 1340.43 44.39C1340.59 43.9967 1340.68 43.6 1340.68 43.2C1340.68 42.8333 1340.6 42.45 1340.45 42.05C1340.3 41.65 1340.03 41.3133 1339.65 41.04C1339.26 40.76 1338.72 40.62 1338.02 40.62H1334.28V45.76ZM1345.14 53V39H1348.96C1350.16 39 1351.17 39.2 1352 39.6C1352.83 40 1353.5 40.5367 1354.01 41.21C1354.51 41.8767 1354.88 42.6267 1355.11 43.46C1355.34 44.2867 1355.46 45.1333 1355.46 46C1355.46 46.8067 1355.35 47.62 1355.14 48.44C1354.92 49.26 1354.57 50.0167 1354.07 50.71C1353.57 51.3967 1352.9 51.95 1352.06 52.37C1351.21 52.79 1350.15 53 1348.88 53H1345.14ZM1346.88 51.38H1349.1C1349.97 51.38 1350.7 51.2233 1351.28 50.91C1351.86 50.59 1352.33 50.17 1352.68 49.65C1353.03 49.1233 1353.28 48.5433 1353.43 47.91C1353.58 47.27 1353.66 46.6333 1353.66 46C1353.66 45.32 1353.57 44.66 1353.41 44.02C1353.25 43.3733 1352.99 42.7933 1352.64 42.28C1352.29 41.7667 1351.84 41.36 1351.3 41.06C1350.75 40.7533 1350.09 40.6 1349.32 40.6H1346.88V51.38ZM1362.85 53.24C1362.04 53.24 1361.3 53.1067 1360.64 52.84C1359.98 52.5667 1359.42 52.1967 1358.96 51.73C1358.51 51.2567 1358.18 50.72 1357.97 50.12L1359.61 49.52C1359.89 50.14 1360.31 50.6433 1360.88 51.03C1361.45 51.41 1362.12 51.6 1362.89 51.6C1363.73 51.6 1364.4 51.4 1364.9 51C1365.4 50.5933 1365.65 50.0067 1365.65 49.24C1365.65 48.7 1365.5 48.2467 1365.2 47.88C1364.9 47.5133 1364.51 47.2067 1364.03 46.96C1363.55 46.7067 1363.04 46.48 1362.49 46.28C1362 46.1 1361.52 45.9 1361.03 45.68C1360.54 45.46 1360.1 45.2 1359.7 44.9C1359.31 44.5933 1358.99 44.2233 1358.75 43.79C1358.51 43.35 1358.39 42.8267 1358.39 42.22C1358.39 41.5933 1358.56 41.02 1358.9 40.5C1359.24 39.9733 1359.73 39.5533 1360.37 39.24C1361.01 38.92 1361.78 38.76 1362.69 38.76C1363.43 38.76 1364.08 38.87 1364.64 39.09C1365.21 39.3033 1365.67 39.6 1366.03 39.98C1366.4 40.3533 1366.65 40.78 1366.79 41.26L1365.19 41.8C1365.02 41.4067 1364.72 41.0733 1364.27 40.8C1363.83 40.52 1363.26 40.38 1362.57 40.38C1361.83 40.38 1361.25 40.5433 1360.82 40.87C1360.4 41.1967 1360.19 41.6467 1360.19 42.22C1360.19 42.6533 1360.33 43.0167 1360.61 43.31C1360.9 43.5967 1361.27 43.8467 1361.73 44.06C1362.19 44.2733 1362.68 44.48 1363.21 44.68C1363.7 44.8667 1364.2 45.08 1364.69 45.32C1365.19 45.5533 1365.65 45.84 1366.06 46.18C1366.48 46.52 1366.82 46.9367 1367.07 47.43C1367.32 47.9167 1367.45 48.5067 1367.45 49.2C1367.45 50.06 1367.25 50.79 1366.85 51.39C1366.45 51.99 1365.9 52.45 1365.21 52.77C1364.52 53.0833 1363.73 53.24 1362.85 53.24ZM1369.96 55.6C1370.11 55.3733 1370.32 55.0233 1370.59 54.55C1370.86 54.0833 1371.12 53.5 1371.39 52.8C1371.66 52.0933 1371.89 51.2833 1372.08 50.37C1372.27 49.45 1372.36 48.4333 1372.36 47.32C1372.36 46.2133 1372.26 45.19 1372.06 44.25C1371.87 43.3033 1371.62 42.46 1371.33 41.72C1371.04 40.98 1370.74 40.36 1370.45 39.86C1370.16 39.3533 1369.93 38.9867 1369.74 38.76H1371.42C1371.87 39.2933 1372.29 39.9633 1372.7 40.77C1373.11 41.5767 1373.44 42.5267 1373.69 43.62C1373.95 44.7067 1374.08 45.94 1374.08 47.32C1374.08 48.7 1373.96 49.9133 1373.72 50.96C1373.49 52 1373.18 52.9 1372.81 53.66C1372.44 54.42 1372.05 55.0667 1371.64 55.6H1369.96Z" fill="black"/>
<path d="M1171.76 166.24C1170.5 166.24 1169.56 165.867 1168.95 165.12C1168.34 164.373 1168.04 163.227 1168.04 161.68V155.78H1169.78V161.94C1169.78 162.807 1169.97 163.47 1170.35 163.93C1170.73 164.39 1171.27 164.62 1171.98 164.62C1172.76 164.62 1173.35 164.397 1173.74 163.95C1174.14 163.503 1174.34 162.847 1174.34 161.98V155.78H1176.08V166H1174.34V165.02C1174.01 165.44 1173.64 165.75 1173.23 165.95C1172.82 166.143 1172.33 166.24 1171.76 166.24ZM1182.43 166.24C1181.71 166.24 1181.01 166.087 1180.35 165.78C1179.69 165.467 1179.15 165.047 1178.73 164.52L1179.97 163.46C1180.33 163.847 1180.73 164.147 1181.17 164.36C1181.61 164.573 1182.04 164.68 1182.47 164.68C1183.07 164.68 1183.53 164.567 1183.87 164.34C1184.2 164.107 1184.37 163.787 1184.37 163.38C1184.37 163.113 1184.29 162.873 1184.14 162.66C1183.99 162.447 1183.74 162.243 1183.4 162.05C1183.06 161.857 1182.6 161.653 1182.03 161.44C1180.9 161.02 1180.09 160.563 1179.6 160.07C1179.11 159.577 1178.87 158.967 1178.87 158.24C1178.87 157.44 1179.18 156.79 1179.82 156.29C1180.46 155.79 1181.29 155.54 1182.31 155.54C1183.01 155.54 1183.65 155.673 1184.24 155.94C1184.82 156.2 1185.33 156.58 1185.75 157.08L1184.55 158.08C1183.93 157.427 1183.18 157.1 1182.29 157.1C1181.76 157.1 1181.34 157.203 1181.04 157.41C1180.74 157.61 1180.59 157.887 1180.59 158.24C1180.59 158.58 1180.76 158.88 1181.1 159.14C1181.44 159.393 1182.07 159.687 1182.97 160.02C1183.7 160.287 1184.29 160.577 1184.75 160.89C1185.21 161.203 1185.54 161.56 1185.75 161.96C1185.96 162.36 1186.07 162.82 1186.07 163.34C1186.07 164.24 1185.74 164.95 1185.1 165.47C1184.45 165.983 1183.56 166.24 1182.43 166.24ZM1192.53 166.24C1191.59 166.24 1190.79 166.01 1190.11 165.55C1189.43 165.09 1188.9 164.457 1188.54 163.65C1188.17 162.843 1187.99 161.92 1187.99 160.88C1187.99 159.753 1188.18 158.793 1188.56 158C1188.94 157.2 1189.47 156.59 1190.15 156.17C1190.83 155.75 1191.62 155.54 1192.53 155.54C1193.29 155.54 1194 155.713 1194.64 156.06C1195.28 156.4 1195.79 156.93 1196.17 157.65C1196.55 158.363 1196.75 159.28 1196.75 160.4C1196.75 160.56 1196.74 160.747 1196.73 160.96C1196.72 161.167 1196.71 161.38 1196.69 161.6H1189.77C1189.83 162.22 1189.99 162.763 1190.23 163.23C1190.47 163.697 1190.78 164.063 1191.18 164.33C1191.57 164.59 1192.03 164.72 1192.57 164.72C1193 164.72 1193.4 164.643 1193.77 164.49C1194.14 164.337 1194.49 164.1 1194.81 163.78L1195.83 164.92C1195.45 165.3 1194.97 165.617 1194.41 165.87C1193.85 166.117 1193.22 166.24 1192.53 166.24ZM1189.75 160.08H1194.99C1194.99 159.5 1194.89 158.983 1194.7 158.53C1194.51 158.07 1194.23 157.71 1193.87 157.45C1193.5 157.19 1193.05 157.06 1192.53 157.06C1191.79 157.06 1191.15 157.3 1190.62 157.78C1190.09 158.26 1189.8 159.027 1189.75 160.08ZM1199.54 166V155.78H1201.28V157.12C1201.52 156.6 1201.84 156.207 1202.24 155.94C1202.66 155.673 1203.14 155.54 1203.7 155.54C1204.32 155.54 1204.85 155.713 1205.28 156.06L1205.02 157.7C1204.8 157.547 1204.57 157.437 1204.33 157.37C1204.1 157.297 1203.84 157.26 1203.56 157.26C1203.1 157.26 1202.7 157.383 1202.36 157.63C1202.02 157.877 1201.76 158.223 1201.56 158.67C1201.38 159.117 1201.28 159.64 1201.28 160.24V166H1199.54ZM1211.77 166C1211.77 165.08 1211.9 164.27 1212.16 163.57C1212.42 162.863 1212.78 162.243 1213.22 161.71C1213.66 161.17 1214.16 160.693 1214.72 160.28C1215.27 159.867 1215.83 159.493 1216.41 159.16C1216.91 158.867 1217.37 158.56 1217.81 158.24C1218.24 157.913 1218.59 157.55 1218.86 157.15C1219.13 156.75 1219.27 156.287 1219.27 155.76C1219.27 155.087 1219.02 154.523 1218.53 154.07C1218.03 153.61 1217.37 153.38 1216.53 153.38C1215.67 153.38 1215 153.57 1214.54 153.95C1214.08 154.323 1213.75 154.82 1213.55 155.44L1211.99 154.74C1212.26 153.88 1212.8 153.17 1213.62 152.61C1214.44 152.043 1215.43 151.76 1216.59 151.76C1217.52 151.76 1218.32 151.93 1218.99 152.27C1219.66 152.61 1220.17 153.083 1220.53 153.69C1220.89 154.297 1221.07 155 1221.07 155.8C1221.07 156.62 1220.89 157.317 1220.53 157.89C1220.17 158.457 1219.69 158.957 1219.1 159.39C1218.51 159.823 1217.87 160.24 1217.19 160.64C1216.61 160.973 1216.09 161.32 1215.62 161.68C1215.14 162.033 1214.75 162.423 1214.43 162.85C1214.11 163.277 1213.89 163.76 1213.79 164.3H1221.19V166H1211.77ZM1229.28 166V152H1234.64C1235.77 152 1236.67 152.207 1237.33 152.62C1237.99 153.027 1238.46 153.553 1238.74 154.2C1239.02 154.84 1239.16 155.507 1239.16 156.2C1239.16 156.68 1239.08 157.167 1238.91 157.66C1238.75 158.147 1238.49 158.597 1238.13 159.01C1237.77 159.423 1237.3 159.757 1236.73 160.01C1236.16 160.257 1235.46 160.38 1234.64 160.38H1231.02V166H1229.28ZM1231.02 158.76H1234.76C1235.42 158.76 1235.94 158.63 1236.33 158.37C1236.72 158.11 1237 157.783 1237.17 157.39C1237.34 156.997 1237.42 156.6 1237.42 156.2C1237.42 155.833 1237.34 155.45 1237.19 155.05C1237.04 154.65 1236.78 154.313 1236.39 154.04C1236 153.76 1235.46 153.62 1234.76 153.62H1231.02V158.76ZM1241.88 166V152H1245.7C1246.9 152 1247.91 152.2 1248.74 152.6C1249.57 153 1250.24 153.537 1250.75 154.21C1251.25 154.877 1251.62 155.627 1251.85 156.46C1252.08 157.287 1252.2 158.133 1252.2 159C1252.2 159.807 1252.09 160.62 1251.88 161.44C1251.66 162.26 1251.31 163.017 1250.81 163.71C1250.31 164.397 1249.64 164.95 1248.8 165.37C1247.95 165.79 1246.89 166 1245.62 166H1241.88ZM1243.62 164.38H1245.84C1246.71 164.38 1247.44 164.223 1248.02 163.91C1248.6 163.59 1249.07 163.17 1249.42 162.65C1249.77 162.123 1250.02 161.543 1250.17 160.91C1250.32 160.27 1250.4 159.633 1250.4 159C1250.4 158.32 1250.31 157.66 1250.15 157.02C1249.99 156.373 1249.73 155.793 1249.38 155.28C1249.03 154.767 1248.58 154.36 1248.04 154.06C1247.49 153.753 1246.83 153.6 1246.06 153.6H1243.62V164.38ZM1259.59 166.24C1258.78 166.24 1258.04 166.107 1257.38 165.84C1256.72 165.567 1256.16 165.197 1255.7 164.73C1255.25 164.257 1254.92 163.72 1254.71 163.12L1256.35 162.52C1256.63 163.14 1257.05 163.643 1257.62 164.03C1258.19 164.41 1258.86 164.6 1259.63 164.6C1260.47 164.6 1261.14 164.4 1261.64 164C1262.14 163.593 1262.39 163.007 1262.39 162.24C1262.39 161.7 1262.24 161.247 1261.94 160.88C1261.64 160.513 1261.25 160.207 1260.77 159.96C1260.29 159.707 1259.78 159.48 1259.23 159.28C1258.74 159.1 1258.26 158.9 1257.77 158.68C1257.28 158.46 1256.84 158.2 1256.44 157.9C1256.05 157.593 1255.73 157.223 1255.49 156.79C1255.25 156.35 1255.13 155.827 1255.13 155.22C1255.13 154.593 1255.3 154.02 1255.64 153.5C1255.98 152.973 1256.47 152.553 1257.11 152.24C1257.75 151.92 1258.52 151.76 1259.43 151.76C1260.17 151.76 1260.82 151.87 1261.38 152.09C1261.95 152.303 1262.41 152.6 1262.77 152.98C1263.14 153.353 1263.39 153.78 1263.53 154.26L1261.93 154.8C1261.76 154.407 1261.46 154.073 1261.01 153.8C1260.57 153.52 1260 153.38 1259.31 153.38C1258.57 153.38 1257.99 153.543 1257.56 153.87C1257.14 154.197 1256.93 154.647 1256.93 155.22C1256.93 155.653 1257.07 156.017 1257.35 156.31C1257.64 156.597 1258.01 156.847 1258.47 157.06C1258.93 157.273 1259.42 157.48 1259.95 157.68C1260.44 157.867 1260.94 158.08 1261.43 158.32C1261.93 158.553 1262.39 158.84 1262.8 159.18C1263.22 159.52 1263.56 159.937 1263.81 160.43C1264.06 160.917 1264.19 161.507 1264.19 162.2C1264.19 163.06 1263.99 163.79 1263.59 164.39C1263.19 164.99 1262.64 165.45 1261.95 165.77C1261.26 166.083 1260.47 166.24 1259.59 166.24Z" fill="black"/>
<path d="M1215.61 278.84V274.98H1211.81V273.3H1215.61V269.44H1217.37V273.3H1221.21V274.98H1217.37V278.84H1215.61Z" fill="black"/>
<path d="M241 165H373" stroke="#9FA8B2"/>
<path d="M930 165H998" stroke="#9FA8B2"/>
<path d="M999 165V50.5H1046M999 165H1046M999 165V279H1046" stroke="#9FA8B2"/>
</svg>
