<svg width="423" height="278" viewBox="0 0 423 278" fill="none" xmlns="http://www.w3.org/2000/svg">
<line x1="215" y1="184.28" x2="171" y2="184.28" stroke="#061C37" stroke-width="0.560522" stroke-dasharray="5.61 5.61"/>
<line x1="214.72" y1="182" x2="214.72" y2="96" stroke="#061C37" stroke-width="0.560522" stroke-dasharray="5.61 5.61"/>
<line x1="300" y1="125.28" x2="264" y2="125.28" stroke="#061C37" stroke-width="0.560522" stroke-dasharray="5.61 5.61"/>
<line x1="263.72" y1="124" x2="263.72" y2="95" stroke="#061C37" stroke-width="0.560522" stroke-dasharray="5.61 5.61"/>
<line x1="239.72" y1="235" x2="239.72" y2="95" stroke="#061C37" stroke-width="0.560522" stroke-dasharray="5.61 5.61"/>
<path d="M146.923 51.9746L3.45741 47.0838C2.13843 47.0388 1.06611 48.1372 1.14272 49.4547L9.26531 189.163C9.34184 190.48 10.5322 191.446 11.8362 191.25L153.131 170.056C154.272 169.885 155.098 168.875 155.037 167.722L149.085 54.0981C149.025 52.9365 148.085 52.0143 146.923 51.9746Z" stroke="#061C37" stroke-width="1.12104"/>
<path d="M68.8226 261.68L9.40723 192.175L155.143 169.754L220.164 226.367L68.8226 261.68Z" stroke="#061C37" stroke-width="1.12104"/>
<path d="M46.9626 205.067L40.2363 197.78L145.615 180.404L151.78 186.01L46.9626 205.067Z" fill="#EAEAEA"/>
<path d="M69.3829 229.73L49.7646 207.87L154.022 188.812L174.761 207.87L69.3829 229.73Z" fill="#E4F2EC"/>
<path d="M150.659 217.399L106.938 226.928L120.952 241.501L165.233 231.412L150.659 217.399Z" stroke="#D9D9D9" stroke-width="0.560522"/>
<path d="M280.13 211L215 257.174L269.931 277.142L329.347 224.453L280.13 211Z" stroke="#061C37" stroke-width="0.972094"/>
<path d="M279.158 216.346L223.749 255.716L267.128 270.976L319.817 227.255L279.158 216.346Z" fill="#E4F2EC"/>
<path d="M334.231 113L258 142.708L339.276 201.563L421.112 160.644L334.231 113Z" stroke="#061C37" stroke-width="1.12104"/>
<path d="M334.231 117.484L268.65 143.829L340.397 194.836L409.902 160.084L334.231 117.484Z" fill="#E4F2EC"/>
<path d="M211.192 92.6658C164.001 92.6658 179.5 28.5 218 41.8119C211.192 -18.6884 286.301 -7.10677 271.168 45.0218C319.373 34.9327 310.965 96.5901 277.894 92.6658H211.192Z" stroke="#061C37" stroke-width="1.12104"/>
<path d="M142.812 60.4526L11.6494 59.3315L18.9362 179.844L148.417 163.028L142.812 60.4526Z" fill="#E4F2EC"/>
</svg>
